<svg id="f57afbe9-7752-4858-82b6-bf70fc7a948e" data-name="Capa 1" xmlns="http://www.w3.org/2000/svg" viewBox="0 0 169 187"><defs><style>.\34 54d8344-248a-4684-9798-a668d2de7e61{fill:#306586;}</style></defs><title>1icono88azul</title><path class="454d8344-248a-4684-9798-a668d2de7e61" d="M58.5,86.07c-8.5.31-14.07,4.8-13.84,10.54.2,4.94,5.06,8.32,12.53,8.06,8.24-.3,14.16-4.72,13.93-10.47-.2-4.93-5.07-8.4-12.62-8.13"/><path class="454d8344-248a-4684-9798-a668d2de7e61" d="M112.25,75.86c6.61-.24,11.09-4,10.9-8.9C123,62.84,119,59.82,113.41,60c-6.35.23-10.92,4.2-10.72,9,.17,4.21,3.72,7.08,9.56,6.86"/><path class="454d8344-248a-4684-9798-a668d2de7e61" d="M59,77.78c6.61-.24,11.09-4,10.9-8.9-.17-4.13-4.16-7.14-9.73-6.94-6.35.23-10.92,4.2-10.72,9,.17,4.2,3.72,7.08,9.56,6.86"/><path class="454d8344-248a-4684-9798-a668d2de7e61" d="M111.72,84.15c-8.5.31-14.07,4.8-13.84,10.54.2,4.93,5.07,8.32,12.53,8.06,8.24-.3,14.16-4.72,13.93-10.47-.2-4.93-5.07-8.4-12.62-8.13"/><path class="454d8344-248a-4684-9798-a668d2de7e61" d="M84.62,5.71c-43.16,0-78.15,33-78.15,73.67A71,71,0,0,0,25.8,127.85l0,0,.37.35a76.22,76.22,0,0,0,6.65,6.26L84.57,183.3l51.18-48.25c16.54-13.51,27-33.43,27-55.68,0-40.68-35-73.67-78.14-73.67M56.53,113.93c-13.47.49-23.72-6.44-24.11-16.07C32.17,91.71,35.59,87,41,83.62c2.1-1.29,2.14-2.42.79-3.75-2.33-2.27-4.27-5.6-4.4-8.84-.44-10.76,8.49-17.48,23.5-18C72.69,52.58,81.62,58.66,82,67.56c.22,5.34-2.05,8.66-5.37,11.62-1.66,1.44-1.7,2.57-.11,3.65,3.89,2.7,6.63,6.73,6.81,11.1.48,11.89-9.78,19.39-26.78,20M109.76,112c-13.47.49-23.72-6.44-24.11-16.06-.25-6.15,3.17-10.89,8.53-14.24,2.1-1.29,2.14-2.43.79-3.75-2.33-2.27-4.27-5.6-4.4-8.84-.44-10.76,8.49-17.48,23.5-18,11.84-.43,20.77,5.65,21.13,14.55.22,5.34-2.06,8.66-5.37,11.62-1.66,1.44-1.7,2.57-.11,3.65,3.89,2.7,6.63,6.73,6.81,11.1.48,11.89-9.78,19.39-26.78,20"/></svg>