<svg id="8016f65a-ba24-4300-afee-052fa6ec226e" data-name="Capa 1" xmlns="http://www.w3.org/2000/svg" viewBox="0 0 38 42"><defs><style>.\33 5ce2307-692c-48f9-8278-a6a22e021aa0{fill:#c9494e;}</style></defs><title>1icono_items1</title><path class="35ce2307-692c-48f9-8278-a6a22e021aa0" d="M13.18,19.12c-1.89.07-3.13,1.07-3.08,2.35,0,1.1,1.13,1.85,2.79,1.79,1.83-.07,3.15-1.05,3.1-2.33,0-1.1-1.13-1.87-2.81-1.81"/><path class="35ce2307-692c-48f9-8278-a6a22e021aa0" d="M25.15,16.85c1.47-.05,2.47-.9,2.43-2,0-.92-.93-1.59-2.17-1.54-1.41.05-2.43.94-2.39,2s.83,1.58,2.13,1.53"/><path class="35ce2307-692c-48f9-8278-a6a22e021aa0" d="M13.3,17.28c1.47-.05,2.47-.9,2.43-2,0-.92-.93-1.59-2.17-1.54-1.41.05-2.43.94-2.39,2s.83,1.58,2.13,1.53"/><path class="35ce2307-692c-48f9-8278-a6a22e021aa0" d="M25,18.69C23.14,18.76,21.9,19.76,22,21c0,1.1,1.13,1.85,2.79,1.79,1.83-.07,3.15-1.05,3.1-2.33,0-1.1-1.13-1.87-2.81-1.81"/><path class="35ce2307-692c-48f9-8278-a6a22e021aa0" d="M19,1.23c-9.61,0-17.4,7.34-17.4,16.4a15.8,15.8,0,0,0,4.3,10.79h0l.08.08a17,17,0,0,0,1.48,1.4L19,40.77,30.38,30a16,16,0,0,0,6-12.4c0-9.06-7.79-16.4-17.4-16.4M12.75,25.32c-3,.11-5.28-1.43-5.37-3.58a3.53,3.53,0,0,1,1.9-3.17c.47-.29.48-.54.18-.84a3.11,3.11,0,0,1-1-2c-.1-2.4,1.89-3.89,5.23-4,2.64-.1,4.62,1.26,4.7,3.24a3.06,3.06,0,0,1-1.19,2.59c-.37.32-.38.57,0,.81a3.28,3.28,0,0,1,1.51,2.47c.11,2.65-2.18,4.32-6,4.45M24.6,24.9c-3,.11-5.28-1.43-5.37-3.58a3.53,3.53,0,0,1,1.9-3.17c.47-.29.48-.54.18-.84a3.11,3.11,0,0,1-1-2c-.1-2.4,1.89-3.89,5.23-4,2.64-.1,4.62,1.26,4.7,3.24a3.06,3.06,0,0,1-1.2,2.59c-.37.32-.38.57,0,.81a3.28,3.28,0,0,1,1.52,2.47c.11,2.65-2.18,4.32-6,4.45"/></svg>