<?xml version="1.0" encoding="utf-8"?>
<!-- Generator: Adobe Illustrator 24.3.0, SVG Export Plug-In . SVG Version: 6.00 Build 0)  -->
<svg version="1.1" id="Capa_1" xmlns="http://www.w3.org/2000/svg" xmlns:xlink="http://www.w3.org/1999/xlink" x="0px" y="0px"
	 viewBox="0 0 49.47 51.77" style="enable-background:new 0 0 49.47 51.77;" xml:space="preserve">
<style type="text/css">
	.st0{fill:#306586;}
	.st1{fill:#9FBFB7;}
</style>
<g>
	<g>
		<g>
			<path class="st0" d="M24.73,0.88c-12.15,0-22.01,9.29-22.01,20.75c0,5.23,2.06,10,5.44,13.65l-0.01,0.01l0.1,0.1
				c0.59,0.62,1.21,1.21,1.87,1.76l14.58,13.75l14.41-13.59c4.66-3.8,7.61-9.42,7.61-15.68C46.74,10.17,36.89,0.88,24.73,0.88z"/>
		</g>
	</g>
	<g>
		<path class="st1" d="M36.14,19.15h-21.6c-0.55,0-1-0.45-1-1s0.45-1,1-1h21.6c0.55,0,1,0.45,1,1S36.69,19.15,36.14,19.15z"/>
	</g>
	<g>
		<path class="st1" d="M36.14,24.15h-21.6c-0.55,0-1-0.45-1-1s0.45-1,1-1h21.6c0.55,0,1,0.45,1,1S36.69,24.15,36.14,24.15z"/>
	</g>
	<g>
		<path class="st1" d="M36.14,29.15h-21.6c-0.55,0-1-0.45-1-1s0.45-1,1-1h21.6c0.55,0,1,0.45,1,1S36.69,29.15,36.14,29.15z"/>
	</g>
</g>
</svg>
