<svg width="50" height="52" viewBox="0 0 50 52" fill="none" xmlns="http://www.w3.org/2000/svg">
<path d="M24.73 0.880005C12.58 0.880005 2.72 10.17 2.72 21.63C2.72 26.86 4.78 31.63 8.16 35.28L8.15 35.29L8.25 35.39C8.84 36.01 9.46 36.6 10.12 37.15L24.7 50.9L39.11 37.31C43.77 33.51 46.72 27.89 46.72 21.63C46.74 10.17 36.89 0.880005 24.73 0.880005Z" fill="#9FBFB7"/>
<path d="M20.1799 28.0795L24.5398 23.7197L28.8996 28.0795L31.0795 25.8996L26.7197 21.5398L31.0795 17.1799L28.8996 15L24.5398 19.3598L20.1799 15L18 17.1799L22.3598 21.5398L18 25.8996L20.1799 28.0795Z" fill="#306586"/>
<path d="M24.4167 36.8333C32.9174 36.8333 39.8333 29.9174 39.8333 21.4167C39.8333 12.9159 32.9174 6 24.4167 6C15.9159 6 9 12.9159 9 21.4167C9 29.9174 15.9159 36.8333 24.4167 36.8333ZM24.4167 9.08333C31.217 9.08333 36.75 14.6164 36.75 21.4167C36.75 28.217 31.217 33.75 24.4167 33.75C17.6164 33.75 12.0833 28.217 12.0833 21.4167C12.0833 14.6164 17.6164 9.08333 24.4167 9.08333Z" fill="#306586"/>
</svg>
