<svg width="33" height="32" viewBox="0 0 33 32" fill="none" xmlns="http://www.w3.org/2000/svg">
<path d="M11.0495 14.473C9.30933 14.5309 8.17117 15.334 8.2182 16.369C8.25583 17.2549 9.2529 17.8675 10.7861 17.8179C12.4698 17.7682 13.6832 16.9651 13.6362 15.9301C13.5892 15.0525 12.5921 14.4233 11.0495 14.473Z" fill="#9FBFB7"/>
<path d="M22.0558 12.6347C23.4103 12.5933 24.3227 11.9061 24.2851 11.0285C24.2475 10.2833 23.4386 9.74519 22.291 9.7783C20.9929 9.8197 20.0523 10.5317 20.0993 11.3928C20.1276 12.1545 20.8613 12.6761 22.0558 12.6347Z" fill="#9FBFB7"/>
<path d="M11.1549 12.9814C12.5094 12.94 13.4218 12.2528 13.3841 11.3752C13.3465 10.63 12.5376 10.0919 11.39 10.125C10.092 10.1664 9.16074 10.8784 9.19837 11.7395C9.23599 12.5012 9.96027 13.0228 11.1549 12.9814Z" fill="#9FBFB7"/>
<path d="M21.944 14.1332C20.2039 14.1911 19.0657 14.9942 19.1127 16.0291C19.1504 16.915 20.1474 17.5277 21.6806 17.478C23.3644 17.4284 24.5778 16.6253 24.5307 15.5903C24.4837 14.7044 23.4866 14.0835 21.944 14.1332Z" fill="#9FBFB7"/>
<path d="M16.3929 0C7.56048 0 0.402344 5.94463 0.402344 13.2719C0.402344 16.6168 1.89794 19.6719 4.36237 22.0067L4.35297 22.015L4.42821 22.0812C4.85149 22.4787 5.31241 22.8595 5.79212 23.2072L16.3929 32L26.8715 23.3066C30.2577 20.8724 32.4023 17.2874 32.4023 13.2802C32.3929 5.94463 25.2254 0 16.3929 0ZM10.6457 19.4898C7.8897 19.5809 5.79211 18.3307 5.70746 16.592C5.66043 15.4825 6.35649 14.6298 7.45702 14.0254C7.8897 13.7935 7.8897 13.5865 7.61692 13.3464C7.1372 12.9407 6.74215 12.3364 6.71393 11.7568C6.61987 9.8194 8.45408 8.61061 11.5205 8.51125C13.9473 8.43674 15.7721 9.52962 15.8474 11.1358C15.8944 12.0962 15.4241 12.6924 14.7468 13.2305C14.4082 13.4872 14.3988 13.6942 14.728 13.8846C15.5276 14.3731 16.0825 15.0934 16.1202 15.8799C16.2236 18.0326 14.126 19.3821 10.6457 19.4898ZM21.5381 19.1503C18.7821 19.2414 16.6845 17.9912 16.5999 16.2525C16.5528 15.1431 17.2489 14.2903 18.3494 13.6859C18.7821 13.4541 18.7821 13.2471 18.5093 13.007C18.0296 12.6013 17.6346 11.9969 17.6063 11.4173C17.5123 9.47995 19.3465 8.27115 22.4129 8.1718C24.8397 8.09728 26.6645 9.19017 26.7398 10.7964C26.7868 11.7568 26.3165 12.3529 25.6393 12.8911C25.3006 13.1477 25.2912 13.3547 25.6204 13.5451C26.42 14.0336 26.975 14.7539 27.0126 15.5405C27.116 17.6849 25.0185 19.0344 21.5381 19.1503Z" fill="#9FBFB7"/>
</svg>
