<?xml version="1.0" encoding="utf-8"?>
<!-- Generator: Adobe Illustrator 24.3.0, SVG Export Plug-In . SVG Version: 6.00 Build 0)  -->
<svg version="1.1" xmlns="http://www.w3.org/2000/svg" xmlns:xlink="http://www.w3.org/1999/xlink" x="0px" y="0px"
	 viewBox="0 0 370.58 397.57" style="enable-background:new 0 0 370.58 397.57;" xml:space="preserve">
<style type="text/css">
	.st0{fill:#9FBFB7;}
	.st1{fill:#306586;}
	.st2{fill:none;stroke:#A6CC9F;stroke-width:2;stroke-miterlimit:10;}
	.st3{fill:#A6CC9F;}
	.st4{fill:#FFFFFF;}
	.st5{fill:#6AB391;}
	.st6{fill-rule:evenodd;clip-rule:evenodd;fill:#FFFFFF;}
	.st7{display:none;}
	.st8{display:inline;opacity:0.28;fill:#C9494E;}
	.st9{display:inline;opacity:0.28;fill:#A6CC9F;}
	.st10{fill:none;stroke:#9FBFB7;stroke-width:4;stroke-linecap:round;stroke-miterlimit:10;}
	.st11{fill:#C9494E;}
	.st12{fill:none;stroke:#9FBFB7;stroke-width:2;stroke-linecap:round;stroke-miterlimit:10;}
	.st13{fill:none;stroke:#9FBFB7;stroke-width:3;stroke-miterlimit:10;}
	.st14{fill:#FFFFFF;stroke:#666666;}
	.st15{fill:none;stroke:#DE928D;stroke-width:2;stroke-miterlimit:10;}
	.st16{clip-path:url(#SVGID_16_);fill:url(#SVGID_17_);}
	.st17{fill:#F4F6FA;}
	.st18{fill:#2BBFE8;}
	.st19{fill:#7E68C6;}
	.st20{fill:#CB479C;}
	.st21{fill:#FA9F3C;}
	.st22{fill:#F7BB40;}
	.st23{fill:#2A3942;}
	.st24{fill:#D7DEED;}
	.st25{fill:#57606F;}
	.st26{fill:#FEBE76;}
	.st27{fill:#AFB9D2;}
	.st28{fill:#E8A664;}
	.st29{fill:#FCD884;}
	.st30{fill:#EABF6A;}
	.st31{fill:#A28671;}
	.st32{fill:#60534A;}
	.st33{fill:#73665C;}
	.st34{fill:#8E725D;}
	.st35{fill:#FFE678;}
	.st36{fill:#B7C9F1;}
	.st37{fill:#3E3E3F;}
	.st38{fill:#EFF3F6;}
	.st39{fill:#DBDFE0;}
	.st40{fill:#FF7979;}
	.st41{fill:#414A56;}
	.st42{fill:#747371;}
	.st43{fill:#5B5A57;}
	.st44{fill:#E32929;}
	.st45{fill:#FD3B3B;}
	.st46{opacity:0.2;fill:#FFFFFF;}
	.st47{fill:none;stroke:#000000;stroke-width:1.8663;stroke-miterlimit:10;}
	.st48{fill:none;}
	.st49{fill:#231F20;}
	.st50{fill:none;stroke:#9FBFB7;stroke-width:10;stroke-miterlimit:10;}
	.st51{fill:#FD61AD;}
	.st52{fill:#333333;}
	.st53{fill:#58476B;}
	.st54{fill:#F5A2A6;}
	.st55{fill:#FFE475;}
	.st56{fill:#78C3D6;}
	.st57{fill:#9BC9FF;}
	.st58{fill:#1E81CE;}
	.st59{fill:#212121;}
	.st60{fill:#E04A4E;}
</style>
<g id="Capa_1">
</g>
<g id="margenes" class="st7">
</g>
<g id="Capa_3">
	<g>
		<path class="st0" d="M200.16,337.46c-1.47-0.83-3.33-0.29-4.16,1.18c-1.34,2.4-3.33,4.32-5.93,5.72
			c-4.46,2.4-10.47,2.6-16.08,0.55c-5.61-2.06-10.07-6.1-11.92-10.81c-1.08-2.75-1.36-5.5-0.83-8.2c0.32-1.66-0.75-3.26-2.41-3.59
			c-0.2-0.04-0.4-0.06-0.59-0.06c-1.43,0-2.71,1.01-2.99,2.47c-0.76,3.86-0.38,7.77,1.14,11.62c2.52,6.41,8.17,11.62,15.51,14.31
			c7.33,2.69,15.02,2.36,21.08-0.9c3.64-1.96,6.46-4.69,8.38-8.13C202.16,340.14,201.63,338.28,200.16,337.46z"/>
		<path class="st0" d="M312.32,162.17C312.31,162.46,312.31,162.45,312.32,162.17c0.01-0.4,0.04-1.53,0.04-1.69
			c0-2.63-0.06-5.19-0.19-7.7c-1.3-24.26-9.65-43.13-39.53-59.28c-1.06-0.57-2.15-1.15-3.27-1.71c-1.45-0.74-2.97-1.48-4.52-2.21
			c-0.69-0.33-1.39-0.65-2.1-0.97c-0.77-0.35-1.54-0.7-2.31-1.04c-4.29-1.91-8.69-3.72-12.8-5.35c-9.85-3.9-17.98-6.68-18.55-6.88
			l-6.14-2.1l0,0h0l1.12,3.07l0.8,2.21c0,0,0.48,1.36,0.48,1.36c0.11,0.33,1.43,5.86,1.65,7.44c-8.38-2.54-17.11-4.33-26.1-5.29
			l0.26-15.42c0.11-0.1,0.21-0.2,0.32-0.3c3.53-3.46,5.49-7.87,5.89-13.24l0.45-30.34c0.15-10.11-7.63-18.05-17.74-18.1l-12.01-0.06
			c-5.06-0.02-9.51,1.85-13.04,5.31c-3.53,3.46-5.49,7.87-5.57,12.93l0,0.32L140.17,23c-3.16-0.01-5.73,2.5-5.78,5.66
			c-0.05,3.16,2.44,5.7,5.6,5.72l19.28,0.1l-0.1,6.95l-19.28-0.1c-3.16-0.01-5.73,2.5-5.78,5.66s2.44,5.7,5.6,5.72l19.28,0.1l0,0.31
			c-0.08,5.28,2.03,10.2,5.8,13.66l-0.24,15.87c-9.3,1.34-18.3,3.57-26.89,6.59c0-0.01-0.01-0.01-0.01-0.02
			c-0.42-0.92-4.57-9.14-5.53-10.85c-2.19-3.9-4.59-7.77-7.24-11.62c-0.01-0.01-0.01-0.02-0.02-0.03c-0.63-0.92-1.28-1.83-1.94-2.74
			c-0.01-0.01-0.02-0.02-0.02-0.03c-4.08-5.65-8.68-11.23-13.85-16.72c-0.74-0.78-1.49-1.57-2.25-2.35
			c-0.01-0.01-0.02-0.02-0.02-0.02l-0.03-7.63v0c0,0-10.75,9.94-11.25,10.43c-0.27,0.26-1.67,1.65-2.1,2.08
			c-0.28,0.28-0.55,0.56-0.83,0.84c-0.41,0.41-0.81,0.83-1.21,1.24c-0.28,0.29-2.53,2.69-2.79,2.98c-0.38,0.41-0.75,0.82-1.11,1.23
			c-0.26,0.29-0.52,0.58-0.78,0.88c-0.37,0.42-4.4,5.19-4.8,5.68c-0.17,0.22-4.98,6.53-5.32,7c-0.2,0.28-0.39,0.56-0.59,0.84
			c-0.3,0.43-6.09,9.44-6.33,9.85c-0.18,0.3-5.26,9.97-5.39,10.25c-0.21,0.44-0.41,0.88-0.61,1.31c-0.14,0.31-0.27,0.61-0.41,0.92
			c-0.18,0.41-0.36,0.81-0.54,1.22c-0.14,0.32-0.27,0.64-0.41,0.96c-0.17,0.39-0.33,0.78-0.49,1.17c-0.13,0.33-0.27,0.65-0.4,0.98
			c-0.16,0.39-0.31,0.77-0.46,1.16c-0.13,0.33-0.26,0.66-0.38,0.99c-0.15,0.38-0.29,0.77-0.43,1.15c-0.12,0.33-0.24,0.66-0.36,0.99
			c-0.14,0.38-0.27,0.77-0.41,1.15c-0.11,0.33-0.23,0.65-0.34,0.98c-0.13,0.39-0.26,0.79-0.39,1.18c-0.1,0.32-0.21,0.63-0.31,0.95
			c-0.13,0.42-0.26,0.83-0.39,1.24c-0.09,0.29-0.18,0.59-0.27,0.88c-0.17,0.58-0.34,1.16-0.5,1.73c-0.11,0.39-0.55,2.02-0.66,2.45
			c-0.09,0.33-0.44,1.74-0.53,2.11c-0.08,0.35-0.16,0.7-0.24,1.05c-0.08,0.35-0.62,2.82-0.69,3.17c-0.07,0.36-0.14,0.72-0.21,1.08
			c-0.07,0.34-0.5,2.78-0.56,3.11c-0.06,0.37-0.58,3.84-0.62,4.16c-0.05,0.37-0.1,0.75-0.14,1.12c-0.04,0.3-0.07,0.6-0.1,0.9
			c-0.05,0.4-0.09,0.79-0.13,1.19c-0.01,0.09-0.22,2.28-0.3,3.29c-0.02,0.24-0.37,7.66-0.37,8.06c0,0.28,0,3.66,0,4.07
			c0,0.25,0.14,4.32,0.15,4.46c0.09,1.74,0.21,3.47,0.36,5.19c0,0.05,0.01,0.11,0.01,0.16c0.04,0.49,1.34,10.57,1.41,11.02
			c0.03,0.17,0.58,3.29,0.68,3.81v0c-4.51,12.81-6.96,26.5-6.96,40.73c0,29.8,10.88,58.6,30.74,81.65l3.96,4.41
			c3.57,3.78,7.41,7.41,11.44,10.78l90.78,85.58l89.75-84.61c30.08-24.63,47.32-60.27,47.32-97.8
			C322.29,193.49,318.74,177.14,312.32,162.17z M305.64,148.82C305.64,148.83,305.64,148.83,305.64,148.82c0,0-0.01-0.01-0.01-0.01
			C305.64,148.82,305.64,148.82,305.64,148.82z M271.25,207c-0.29,0.09-1.66,0.45-2.05,0.55c-0.29,0.07-0.58,0.15-0.87,0.21
			c-0.4,0.09-3.9,0.71-4.18,0.75c-0.45,0.06-1.87,0.22-2.13,0.24c-0.51,0.05-2.51,0.15-2.68,0.16c-0.55,0.02-1.11,0.04-1.66,0.04
			c-5.31,0-10.42-0.86-15.2-2.45c-0.03-0.01-0.06-0.02-0.09-0.03c-0.94-0.31-1.87-0.66-2.78-1.03c-2.67-1.08-5.22-2.38-7.63-3.9
			c-0.9-0.56-1.77-1.17-2.63-1.79c-0.52-0.37-1.03-0.75-1.54-1.14c-0.5-0.39-0.99-0.81-1.47-1.22c-0.81-0.68-1.6-1.39-2.36-2.12
			c-0.05-0.05-0.1-0.09-0.15-0.14c-0.02-0.02-0.03-0.03-0.05-0.05c-4.12-4.04-7.51-8.81-9.99-14.09c-1.26-2.68-2.3-5.49-3.06-8.41
			c-0.01-0.06-0.03-0.12-0.04-0.17c-0.97-3.82-1.49-7.81-1.49-11.92c0,0,0,0,0,0c0-4.07,0.43-7.66,1.16-10.94
			c0.39-1.72,0.86-3.36,1.4-4.92c0.64-1.83,1.37-3.57,2.18-5.23c1.02-2.09,2.15-4.09,3.35-6.03v0v8.75v7.64v0.9
			c0,0.27,0.02,0.54,0.05,0.8c0.01,0.08,0.01,0.17,0.01,0.25c0.01,0.1,0.11,0.81,0.17,1.06c0.02,0.1,0.04,0.19,0.06,0.29
			c0.16,0.66,0.38,1.3,0.66,1.91c0.04,0.09,0.08,0.17,0.13,0.26c0.11,0.22,1.76,2.62,2.57,3.31l2.26,1.47
			c0.45,0.22,0.91,0.41,1.39,0.56c0.11,0.04,2.14,0.47,3.08,0.47c0.36,0,0.71-0.02,1.06-0.05c0.7-0.07,1.37-0.21,2.02-0.41
			c0.02-0.01,0.04-0.02,0.06-0.02c4.19-1.34,7.23-5.26,7.23-9.89v-7.95c0-2.36,1.92-4.28,4.29-4.28c1.77,0,3.29,1.08,3.94,2.62
			c0.01,0.01,0.01,0.03,0.01,0.04c0.21,0.5,0.32,1.05,0.32,1.62v0v26.82c0,1.36,0.27,2.66,0.75,3.85c0.15,0.37,0.31,0.74,0.51,1.09
			c0.27,0.5,0.6,0.98,0.95,1.43c1.19,1.52,2.79,2.71,4.63,3.38c0.33,0.12,0.67,0.22,1.02,0.31c0.1,0.03,0.2,0.05,0.31,0.07
			c0.13,0.03,0.26,0.05,0.4,0.07c0.13,0.02,0.26,0.05,0.4,0.07c0.11,0.01,0.21,0.03,0.32,0.04c0.36,0.04,0.73,0.07,1.11,0.07
			c5.72,0,10.38-4.66,10.38-10.38v-41.26v0c0-1.18,0.48-2.25,1.26-3.03c0.78-0.78,1.85-1.26,3.03-1.26c0,0,1.12,0.17,1.12,0.17
			c1.35,0.37,2.44,1.38,2.9,2.69c0,0,0,0.01,0,0.01c0.08,0.22,0.14,0.44,0.18,0.66c0.04,0.24,0.08,0.49,0.08,0.75v30.87
			c0,2.15,0.66,4.14,1.78,5.8c0.09,0.14,0.2,0.26,0.29,0.39c0.3,0.4,0.62,0.79,0.97,1.14c0.04,0.04,0.09,0.08,0.13,0.12
			c0.52,0.5,1.09,0.95,1.71,1.33c0.33,0.21,0.67,0.39,1.02,0.56c0.23,0.11,0.46,0.21,0.69,0.31c0.48,0.19,0.98,0.34,1.49,0.46
			c0.74,0.17,1.5,0.26,2.29,0.26c0.72,0,1.42-0.07,2.09-0.21c4.73-0.97,8.29-5.16,8.29-10.17v-5.75v0v-0.94
			c0-2.36,1.92-4.28,4.28-4.28c2.36,0,4.29,1.92,4.29,4.28v17.02c-0.08,0.44-0.18,0.88-0.28,1.32c0,0,0,0,0,0
			c-0.04,0.16-0.07,0.32-0.1,0.48c-0.06,0.26-0.12,0.51-0.18,0.76c-0.11,0.43-0.21,0.85-0.33,1.28c-0.07,0.25-0.14,0.5-0.22,0.76
			c-0.12,0.42-0.25,0.84-0.38,1.25c-0.08,0.25-0.17,0.5-0.25,0.75c-0.14,0.41-0.28,0.81-0.43,1.21c-0.09,0.25-0.19,0.5-0.29,0.75
			c-0.15,0.4-0.31,0.79-0.48,1.18c-0.1,0.25-0.21,0.49-0.32,0.74c-0.17,0.39-0.34,0.77-0.52,1.15c-0.11,0.24-0.23,0.49-0.35,0.73
			c-0.18,0.37-0.37,0.75-0.57,1.11c-0.13,0.24-0.26,0.48-0.39,0.72c-0.2,0.36-0.88,1.55-1.03,1.79c-0.21,0.35-0.43,0.7-0.65,1.04
			c-0.15,0.23-0.91,1.37-1.14,1.7c-0.16,0.23-0.32,0.46-0.48,0.68c-0.24,0.33-1.06,1.41-1.24,1.63c-0.25,0.31-1.83,2.18-2.09,2.47
			c-0.19,0.21-1.8,1.89-2.01,2.09c-0.28,0.27-6.05,5.05-6.29,5.22c-0.31,0.22-0.64,0.43-0.96,0.64c-0.25,0.17-1.4,0.9-1.73,1.09
			c-0.26,0.16-0.51,0.31-0.78,0.46c-0.33,0.19-1.53,0.85-1.8,0.99c-0.34,0.18-0.68,0.35-1.03,0.52
			C278.72,204.12,271.63,206.89,271.25,207z M272.29,213.17C272.29,213.17,272.28,213.17,272.29,213.17
			C272.28,213.17,272.28,213.17,272.29,213.17C272.28,213.17,272.29,213.17,272.29,213.17z M249.49,214.55
			C249.49,214.55,249.49,214.55,249.49,214.55C249.49,214.55,249.49,214.55,249.49,214.55
			C249.49,214.55,249.49,214.55,249.49,214.55z M240.84,244.46c-0.72-2.4-0.19-13.93-3.67-22.87c-1.33-3.42-9.23-15.15-10.54-17.41
			c10.26,7.34,16.25,8.74,17.98,9.22C244.61,213.4,250.11,235.28,240.84,244.46z M230.66,110.79c0.24-0.58,2.58-9.49,2.73-10.68
			c0-0.01,0-0.02,0-0.03c0,0,0,0,0,0c0.46-3.8,0.12-10.62,0.12-10.62c-0.01-0.07-0.4-3.36-0.4-3.37c-0.07-0.47-0.24-1.49-0.25-1.55
			c-0.07-0.4-0.15-0.79-0.22-1.16c-0.01-0.07-0.03-0.14-0.04-0.2c7.11,2.58,19.78,7.37,30.25,12.33c1.24,0.59,2.45,1.18,3.61,1.77
			c0.03,0.02,0.06,0.03,0.09,0.05c0.24,0.12,0.46,0.24,0.7,0.36c0.7,0.36,1.4,0.72,2.07,1.09c7.27,3.9,13.17,7.93,17.93,12.16
			c1.09,0.97,2.13,1.95,3.1,2.94c0.54,0.55,2.48,2.69,2.91,3.2c0.16,0.19,0.31,0.38,0.46,0.56c0.28,0.35,1.18,1.49,1.34,1.71
			c0.24,0.32,1.04,1.44,1.21,1.67c0.21,0.31,0.96,1.43,1.11,1.68c0.19,0.31,0.88,1.44,1.03,1.7c0.18,0.31,1.27,2.34,1.43,2.65
			c0.13,0.27,2.48,5.88,2.58,6.15c0.12,0.34,1.55,5.33,1.61,5.59c0.09,0.39,0.36,1.61,0.41,1.89c0,0.01,0,0.02,0.01,0.03
			c0.12,0.57,0.35,1.87,0.37,1.94c-0.02-0.01-0.58-0.21-0.84-0.29c-0.23-0.07-2.02-0.4-2.61-0.42c-0.12,0-0.24-0.02-0.36-0.02
			c-3.58,0-6.73,1.8-8.63,4.54c-0.1,0.14-1.03,1.86-1.08,2c-0.11,0.26-0.58,1.94-0.6,2.05c-0.04,0.21-0.13,0.85-0.13,0.95
			c-0.03,0.32-0.05,0.64-0.05,0.97v6.69c0,2.3-1.87,4.16-4.16,4.16c-1.25,0-2.37-0.56-3.14-1.43c-0.11-0.13-0.22-0.26-0.31-0.41
			c-0.45-0.66-0.71-1.47-0.71-2.33V133.5v-5.24c0-5.79-4.71-10.5-10.5-10.5c-1.8,0-3.5,0.46-4.99,1.26c0,0,0,0,0,0
			c-0.35,0.19-0.68,0.41-1.01,0.64c-0.02,0.01-0.04,0.02-0.06,0.04c-0.09,0.06-0.17,0.13-0.26,0.19c-0.27,0.2-0.52,0.41-0.77,0.64
			c-0.07,0.07-0.15,0.13-0.22,0.2c-0.3,0.29-0.58,0.6-0.85,0.92c-0.04,0.05-0.07,0.1-0.11,0.15c-0.22,0.28-0.43,0.57-0.62,0.88
			c-0.06,0.1-0.12,0.2-0.18,0.3c-0.18,0.3-0.34,0.62-0.49,0.94c-0.03,0.07-0.06,0.13-0.09,0.19c-0.17,0.39-0.31,0.78-0.43,1.19
			c-0.03,0.1-0.05,0.2-0.08,0.3c-0.09,0.32-0.16,0.65-0.21,0.99c-0.02,0.12-0.04,0.24-0.05,0.36c-0.05,0.43-0.09,0.87-0.09,1.32
			v41.26c0,2.29-1.87,4.16-4.16,4.16c-1.44,0-2.7-0.73-3.45-1.84c-0.06-0.08-0.09-0.17-0.14-0.26c-0.08-0.15-0.18-0.29-0.24-0.45
			c-0.21-0.5-0.33-1.04-0.33-1.62v0V142.7c0-1.65-0.39-3.2-1.07-4.59c-0.19-0.39-0.4-0.76-0.63-1.12c-0.03-0.05-0.06-0.1-0.09-0.15
			c-1.89-2.79-5.09-4.64-8.71-4.64c-5.79,0-10.51,4.71-10.51,10.5v7.95c0,2.24-1.78,4.06-4,4.15c-0.05,0-0.1,0.02-0.16,0.02
			c-0.78,0-1.51-0.23-2.13-0.61c-0.29-0.18-0.57-0.37-0.81-0.61c-0.75-0.75-1.22-1.79-1.22-2.94v-2.05v-24.72v0c0,0,0,0,0,0
			C226.12,119.9,228.65,115.69,230.66,110.79z M200.72,92.06c9.22,1.06,18.13,3.04,26.64,5.86v0c-0.03,0.41-0.13,1.28-0.13,1.29
			c-0.05,0.4-1.76,7.74-1.82,7.91c-0.09,0.26-0.43,1.13-0.5,1.3c-2.37,5.77-5.53,10.48-8.87,15.46c-2.56,3.82-5.14,7.7-7.34,12.05
			c-2.73-1.58-5.62-2.92-8.65-4.01L200.72,92.06z M170.51,23.16c0.03-1.9,0.69-3.79,1.97-5.05c1.6-1.57,3.2-2.51,4.78-2.19
			l12.32,0.38c3.79,0.02,6.9,3.2,6.85,6.99l-0.46,30.34c-0.03,1.9-0.69,3.79-1.97,5.05c-0.64,0.63-0.96,0.94-1.92,1.25
			c-0.95,0.31-1.91,0.62-3.17,0.61l-12.01-0.06c-1.27-0.01-2.21-0.32-3.15-0.65c-2.51-1.28-3.74-3.81-3.7-6.34L170.51,23.16z
			 M186.54,245.75l-13.42-0.07c0.04-0.3,3.42-174.45,3.63-174.45c0,0,12.63,0.12,12.94,0.14
			C189.68,71.37,186.49,245.44,186.54,245.75z M164.41,92.8l-0.58,38.72c-4.91,1.67-9.48,3.99-13.65,6.84
			c-1.01-13.14-3.72-26.54-8.69-39.87C148.84,95.96,156.5,94.04,164.41,92.8z M150.65,151.65c3.6-3.43,7.99-6.31,12.99-8.49
			l-1.72,96.46l-12.66-0.06c-1.11-0.01-2.15,0.31-3.03,0.85l-0.98-1.79c-1.37-2.52-3.9-4.22-6.75-4.55
			c-2.85-0.32-5.69,0.76-7.6,2.91c-0.15,0.16-0.3,0.32-0.44,0.49C140.69,214.54,150.44,184.23,150.65,151.65z M118.56,243.42
			c-1.09,2.2-2.16,4.3-3.22,6.3c-0.87,0.56-1.65,1.05-2.31,1.45c-1.38,0.84-2.23,1.31-2.26,1.33c-0.04,0.02-1.21,0.65-3.13,1.57
			l-0.29-71.71l34.01-27.63l0.97-0.79c-0.06,3.23-0.22,6.43-0.47,9.61c-0.72,9.3-2.19,18.34-4.16,26.99
			c-0.85,3.73-1.79,7.39-2.81,10.96c-0.33,1.17-0.68,2.34-1.03,3.49C129.46,219.58,123.89,232.65,118.56,243.42z M126.65,85.63
			C126.65,85.63,126.65,85.63,126.65,85.63c1.16,2.2,7.04,15.86,7.08,15.85c5.21,14.03,7.79,28.16,8.45,41.97l-34.88,28.33
			l-0.28-69.3L126.65,85.63z M106.84,57.04c0.75,0.86,1.49,1.72,2.22,2.58c0.02,0.03,0.05,0.06,0.07,0.08
			c4.15,4.93,7.82,9.93,11.1,14.98c0.77,1.19,1.53,2.38,2.26,3.58c0.01,0.02,0.02,0.04,0.04,0.06l-15.54,13.33l0,0L106.84,57.04
			C106.84,57.04,106.84,57.04,106.84,57.04z M99.37,246.67c-8.06-10.74-21.12-30.33-29.8-54.52l29.67,23.57v0L99.37,246.67z
			 M66.27,107.15c0.97-2.92,2.07-5.81,3.29-8.67c0.04-0.09,3.6-7.69,3.81-8.09c0.39-0.76,1.68-3.12,1.92-3.56
			c0.41-0.73,0.82-1.46,1.24-2.18c0.26-0.45,0.54-0.89,0.81-1.34c0.43-0.71,0.85-1.42,1.3-2.13c0.25-0.39,0.51-0.78,0.76-1.17
			c0.8-1.24,1.62-2.47,2.47-3.7c0.42-0.61,2.05-2.89,2.45-3.42c0.46-0.62,3.59-4.67,4.11-5.3c0.4-0.49,0.8-0.98,1.2-1.46
			c0.56-0.67,1.12-1.33,1.69-1.99c0.39-0.45,0.77-0.9,1.16-1.34c0.65-0.74,1.32-1.47,1.99-2.21c0.33-0.37,0.66-0.73,1-1.1
			c1.02-1.1,2.06-2.19,3.13-3.27v0l0.31,77.83l-32.92-26.07C66.08,107.69,66.18,107.42,66.27,107.15z M60.69,136.32
			c0.02-0.36,0.04-0.71,0.07-1.06c0.08-1.21,0.18-2.42,0.3-3.63c0.04-0.39,0.08-0.78,0.12-1.17c0.13-1.21,0.29-2.41,0.46-3.61
			c0.05-0.35,0.09-0.7,0.15-1.04c0.21-1.39,1.42-7.69,1.79-9.24c0,0,0,0,0-0.01l0,0l15.57,12.33c0,0,0,0,0,0c0,0,0,0,0,0
			c0.08-0.1,0.17-0.19,0.26-0.29c0,0-0.01,0.01-0.01,0.01c-0.08,0.09-0.16,0.18-0.24,0.27c0,0,0,0,0,0l19.82,15.7l0.24,60.59
			l-33.97-26.98c-0.34-1.28-3.25-15.7-3.88-20.5c-0.07-0.58-0.21-1.76-0.21-1.76c0,0-0.08-0.94-0.12-1.41
			C60.62,150.09,60.61,137.65,60.69,136.32z M58.29,210.61c0-7.23,0.69-14.31,2-21.19c10.96,34.02,30.55,60.02,37.59,68.66
			c-3.47,1.22-7.3,2.31-11.05,2.9c-2.84,0.44-5.29,2.24-6.57,4.81c-1.27,2.58-1.21,5.62,0.16,8.14l6.84,12.54
			C68.56,265.13,58.29,238.32,58.29,210.61z M141.15,337.75l-16.43-15.49c0,0,0,0,0,0h0h0c0.07,0.02,0.15,0.04,0.22,0.06
			c0.12,0.03,0.24,0.07,0.37,0.09c3.24,0.73,6.46,1.1,9.63,1.1c1.3,0,2.58-0.06,3.86-0.19
			C139.03,328.23,139.81,333.07,141.15,337.75L141.15,337.75C141.15,337.75,141.15,337.75,141.15,337.75z M143.53,295.06l-0.68,1.85
			c-0.46,1.26-0.88,2.53-1.26,3.81c-1.64,5.44-2.59,10.99-2.83,16.51c-0.15-0.01-0.29-0.01-0.45,0c-3.76,0.38-7.68,0.12-11.66-0.78
			c-6.3-1.43-12.15-4.39-17.16-8.54c-1.44-1.19-2.81-2.48-4.09-3.86c-0.76-0.82-1.49-1.67-2.19-2.55c-1.32-1.66-2.54-3.42-3.64-5.29
			c-0.26-0.44-0.52-0.87-0.76-1.32l-13.02-23.88c-0.43-0.79-0.45-1.7-0.05-2.51c0.4-0.81,1.14-1.34,2.02-1.48
			c4.01-0.62,8.03-1.75,11.68-3c0,0,0,0,0.01,0c3.1-1.06,5.92-2.22,8.22-3.24c0.74-0.33,1.43-0.64,2.05-0.94
			c2.33-1.1,8.89-4.94,9.42-5.29c1.38-0.9,5.07-3.51,5.3-3.69c3.66-2.72,7.67-6.08,11.01-9.84c0.6-0.67,1.45-1,2.34-0.9
			c0.89,0.1,1.65,0.61,2.08,1.4l10.99,20.15l2.03,3.72c0.3,0.56,0.59,1.13,0.88,1.71l-2.18,5.95l-4.67,12.74
			c-1.77-0.58-3.63-0.88-5.54-0.88c-0.3,0-0.61,0.02-0.92,0.03c-2.18,0.1-4.4,0.57-6.56,1.41c-0.94,0.36-1.86,0.78-2.77,1.28
			c-0.84,0.46-1.63,0.96-2.39,1.5c-4.01,2.87-6.82,6.84-7.83,11.22c-0.72,3.14-0.57,6.21,0.46,9.1c0.57,1.59,2.31,2.43,3.9,1.85
			c1.59-0.57,2.42-2.31,1.85-3.9c-0.64-1.8-0.73-3.66-0.26-5.67c0.72-3.1,2.97-6.05,6.11-8.08c0.35-0.23,0.7-0.45,1.07-0.65
			c1.55-0.84,3.18-1.4,4.81-1.7c2.08-0.38,4.12-0.3,5.95,0.25L143.53,295.06z M195.7,369.39l-10.49,9.89l-6.99-6.59c0,0,0,0,0,0l0,0
			C184.04,372.58,189.89,371.47,195.7,369.39L195.7,369.39z M288.48,280.15c-0.7,0.91-1.41,1.81-2.13,2.71
			c-0.05,0.06-9.69,10.63-9.92,10.85c-0.09,0.09-1.23,1.15-3.08,2.88c-10.02,9.36-41.01,38.26-41.01,38.26c-3.52,7.84-3.52,7.84,0,0
			c0,0,1.28-2.94,1.84-4.46l3.7-10.1l0.41-1.12l4.22-11.52l0.08-0.23l4.18-11.41c1.21-3.31,0.74-7.01-1.27-9.91
			s-5.31-4.64-8.83-4.66c-0.11,0-0.22-0.01-0.32-0.01c-1.34-0.02-2.72-0.07-4.13-0.18c-1.67-0.12-3.15,1.14-3.27,2.83
			c-0.01,0.13,0,0.26,0.01,0.39c0.08,1.51,1.26,2.77,2.81,2.88c0.08,0.01,0.16,0.01,0.25,0.01c1.57,0.11,3.12,0.17,4.61,0.19
			c1.56,0.01,2.96,0.75,3.85,2.03c0.89,1.28,1.09,2.85,0.55,4.31l-12.6,34.38c-1.03,2.81-2.26,5.5-3.65,8.09
			c-0.54,1-1.1,1.99-1.69,2.95c-0.56,0.92-1.15,1.83-1.76,2.72c-6.56,9.55-15.66,16.94-26.26,21.08c-7.92,3.09-15.9,4.11-23.75,3.09
			c-0.59-0.08-2.05-0.31-2.16-0.38c-7.08-4.19-12.83-10.19-17.14-17.82c-0.15-0.27-0.32-0.53-0.47-0.81
			c-7.02-12.94-8.6-28.4-4.57-43.14c0.46-1.69,11.09-30.96,11.09-30.96l3.1-8.46c0.52-1.41,1.63-2.45,3.06-2.89
			c0.05-0.02,0.1-0.04,0.16-0.05c0.9-0.24,1.82-0.21,2.67,0.07c0.57,0.18,1.1,0.47,1.58,0.87c5.01,4.19,10.79,7.77,16.04,10.6
			c8.41,4.53,15.48,7.15,15.95,7.32c0.11,0.04,2.64,0.97,6.68,2.14c0.41,0.12,0.82,0.15,1.22,0.1c1.18-0.14,2.21-0.97,2.57-2.18
			c0.47-1.62-0.46-3.31-2.08-3.79c-3.82-1.11-6.26-2-6.28-2.01c-0.05-0.02-1.47-0.54-3.75-1.51l7.28,0.04
			c1.9,0.01,3.17-0.62,4.13-1.56c0.96-0.94,1.94-2.52,1.64-4.1c0.05-3.16-2.44-5.7-5.6-5.72l-28.76-0.15
			c-1.76-1.22-3.49-2.51-5.11-3.87c-2.7-2.26-6.35-3.07-9.75-2.15c-2.43,0.65-4.52,2.13-5.96,4.12l-4.89-8.97l54.63,0.28
			c1.9,0.01,3.17-0.62,4.13-1.56c0.96-0.94,1.61-2.2,1.64-4.1c0.05-3.16-2.44-5.7-5.6-5.72l-8.53-0.04l1.62-96.75
			c1.75,0.76,3.44,1.62,5.05,2.59c-1.2,4.33-1.94,14.83-1.94,14.83c0,0.87,0.03,1.74,0.07,2.6c0.01,0.28,0.42,4.62,0.49,5.16
			c0.05,0.32,0.94,5.01,1.14,5.78c0.03,0.13,0.49,1.78,0.7,2.47c0.09,0.3,2.47,6.51,2.66,6.92c0.15,0.33,4.49,7.89,4.76,8.27
			c0.18,0.26,4.83,6.02,5.83,7.04c0.02,0.02,0.03,0.04,0.05,0.05c0.43,0.44,2.4,2.3,2.77,2.62c-0.8,2.09-0.49,4.15,0.99,5.66
			c9.64,10.48,14.49,24.41,14.28,38.32c-0.02,1.39-0.11,2.77-0.23,4.14c-0.55,0.96-1.1,1.94-1.66,2.92
			c-5.51,9.7-11.71,20.61-16.47,31.17l6.58,0.54c0.2-0.42,0.42-0.89,0.66-1.37c4.4-9.23,9.79-18.73,14.64-27.27
			c0.27-0.47,0.52-0.92,0.79-1.39c0.2-0.36,0.4-0.7,0.6-1.05c2.35-4.22,4.22-7.54,4.98-8.92c0.07-0.13,0.15-0.26,0.22-0.39
			c0.57-1.05,1.12-2.08,1.64-3.08c2.81-5.38,1.9-18.35,1.03-26.12c0.76,0.11,7.48,0.61,8.18,0.61c0.84,0,0.84,0,0,0
			c0.84,0,7.42-0.5,8.18-0.61c-0.86,7.78-1.76,20.76,1.05,26.14c2.32,4.43,5.17,9.45,8.19,14.77
			C279.5,263.21,284.34,271.74,288.48,280.15C288.49,280.15,288.48,280.15,288.48,280.15z M312.28,210.95
			c-0.06,2.17-0.57,10.99-0.7,12.16c0,0.01,0,0.02,0,0.02c-0.01,0.08-1.73,10.54-2.08,12.3c-0.01,0.06-0.02,0.12-0.03,0.16
			c-0.02,0.1-0.04,0.2-0.07,0.3c-0.29,1.27-0.61,2.54-0.95,3.8c-0.07,0.26-0.14,0.51-0.21,0.77c-0.28,1.01-0.57,2.02-0.88,3.02
			c-0.09,0.3-0.18,0.6-0.28,0.89c-0.36,1.14-0.73,2.28-1.13,3.41c-0.03,0.08-0.06,0.17-0.08,0.25c-0.44,1.26-0.91,2.52-1.4,3.76
			c-0.06,0.17-0.13,0.33-0.2,0.49c-0.42,1.06-0.86,2.11-1.31,3.16c-0.11,0.24-0.21,0.49-0.32,0.73c-0.49,1.12-1,2.23-1.53,3.34
			c-0.03,0.07-0.07,0.14-0.1,0.21c-0.59,1.24-1.21,2.46-1.85,3.68c-0.04,0.07-0.08,0.15-0.12,0.22c-0.58,1.09-1.18,2.18-1.79,3.25
			c-0.11,0.2-0.23,0.4-0.35,0.6c-0.62,1.07-1.25,2.13-1.9,3.19c-0.05,0.07-0.09,0.15-0.14,0.22c-0.74,1.19-1.5,2.36-2.28,3.52
			c0,0,0,0,0,0c-3.86-7.59-8.14-15.13-12.07-22.05c-2.99-5.27-5.82-10.25-8.09-14.58c-1.83-3.49-1.24-15.55-0.14-24.64
			c0,0,0,0,0.01,0c1.01-0.28,2.01-0.59,3-0.93c0.02-0.01,0.04-0.01,0.06-0.02c0.4-0.14,0.79-0.28,1.18-0.43
			c0.41-0.15,0.81-0.3,1.21-0.46c4.07-1.61,7.91-3.7,11.44-6.19c0.03-0.02,0.06-0.04,0.09-0.07c0.82-0.58,1.63-1.19,2.41-1.82
			c0.01-0.01,0.02-0.02,0.03-0.03c3.22-2.57,6.15-5.5,8.72-8.72c0.02-0.03,0.05-0.06,0.07-0.09c0.61-0.77,1.2-1.55,1.77-2.36
			c0.03-0.05,0.07-0.09,0.1-0.14c0.59-0.83,1.15-1.69,1.7-2.56c0.19-0.31,0.37-0.63,0.55-0.94c1.41-2.36,2.66-4.82,3.71-7.39v0l0,0
			c0,0,0,0,0-0.01c0,0,0,0,0,0c0,0,0,0.01,0,0.01c0.3,1.09,0.58,2.2,0.84,3.3c0.06,0.25,0.12,0.5,0.17,0.75
			c0.2,0.88,0.4,1.76,0.58,2.64c0.05,0.26,0.93,5.23,1.25,7.2c0.04,0.26,0.07,0.47,0.09,0.61c0,0.02,0.28,2.28,0.4,3.4
			c0.04,0.34,0.06,0.67,0.1,1.01c0,0,0,0.01,0,0.01c0.07,0.79,0.46,8.39,0.51,10.33c0,0.14,0.01,0.25,0.01,0.32
			C312.29,210.69,312.28,210.81,312.28,210.95z"/>
		<path class="st0" d="M197.14,286.13c-0.08,0.1-0.17,0.19-0.26,0.29c0.08-0.09,0.16-0.18,0.24-0.27
			C197.13,286.14,197.13,286.13,197.14,286.13z"/>
		<path class="st0" d="M226.89,308c-1.57-0.64-3.34,0.12-3.98,1.68c-1.78,4.39-4.13,5.84-6.03,6.25c-1.25,0.27-2.32,0.09-2.9-0.01
			c-0.36-0.06-0.69-0.15-1.02-0.24c-0.85-0.2-1.65-0.45-2.39-0.76c-3-1.3-5.04-3.57-6.08-6.77c-0.07-0.21-0.17-0.41-0.28-0.6
			c-0.55-0.94-1.56-1.52-2.63-1.52c-0.31,0-0.63,0.05-0.94,0.15c-1.43,0.46-2.27,1.87-2.08,3.31c0.02,0.18,0.06,0.36,0.12,0.54
			c1.94,5.99,6.46,10.07,12.81,11.6c0.47,0.11,0.95,0.22,1.44,0.3c0.43,0.07,0.85,0.13,1.27,0.17c1.29,0.11,2.54,0.05,3.73-0.18
			c4.62-0.89,8.37-4.33,10.65-9.95C229.2,310.42,228.45,308.64,226.89,308z"/>
		<path class="st0" d="M166.05,304.83c0.4,0.23,0.79,0.45,1.19,0.65c4.57,2.31,9.28,2.7,13.67,1.2c1.27-0.43,2.51-1.02,3.71-1.77
			c1.32-0.83,1.78-2.5,1.13-3.88c-0.05-0.11-0.1-0.22-0.16-0.33c-0.89-1.43-2.78-1.87-4.21-0.97c-1.24,0.78-2.52,1.29-3.82,1.55
			c-1.96,0.39-3.98,0.2-6.05-0.57c-0.79-0.3-1.59-0.68-2.39-1.15c-1.3-0.76-5.25-3.05-2.82-10.53c0.52-1.6-0.35-3.33-1.96-3.85
			c-0.31-0.1-0.63-0.15-0.95-0.15c-1.29,0-2.49,0.82-2.9,2.11c-1.28,3.93-1.38,7.53-0.38,10.58
			C161.09,300.66,163.08,303.1,166.05,304.83z"/>
		<path class="st0" d="M115.72,272.97c-1.66-0.28-3.24,0.86-3.51,2.52c-0.44,2.67-1.9,4.55-4.46,5.7c-0.15,0.07-0.32,0.12-0.48,0.19
			c-0.21,0.09-0.42,0.18-0.65,0.25c-1.01,0.34-3.68,1.22-6.33-3.25c-0.21-0.36-0.48-0.65-0.79-0.88c0,0,0,0-0.01,0
			c-0.96-0.72-2.29-0.83-3.39-0.18c-1.45,0.86-1.93,2.73-1.07,4.19c1.28,2.15,2.8,3.79,4.5,4.89c0,0,0,0,0.01,0
			c1.67,1.08,3.51,1.64,5.44,1.64c0.76,0,1.53-0.09,2.31-0.27c0.16-0.03,0.32-0.07,0.48-0.11c0.26-0.07,0.52-0.14,0.78-0.23
			c5.38-1.79,8.82-5.68,9.68-10.94C118.51,274.82,117.38,273.24,115.72,272.97z"/>
		<path class="st0" d="M126.9,271.76c1.46,0.63,2.94,0.99,4.42,1.11c0.34,0.03,0.69,0.05,1.03,0.05c3.12,0,6.2-1.14,8.99-3.38
			c0.7-0.56,1.3-1.18,1.82-1.83c1.12-1.41,1.82-3.01,2.08-4.74c0.36-2.45-0.15-5.18-1.56-8.01c-0.76-1.51-2.59-2.12-4.1-1.37
			c-1.51,0.76-2.12,2.59-1.37,4.1c2.33,4.66,0.13,6.42-0.69,7.08c-2.67,2.15-5.35,2.59-8.18,1.37c-0.43-0.19-0.87-0.26-1.31-0.24
			c-1.15,0.04-2.22,0.71-2.71,1.83C124.64,269.29,125.35,271.09,126.9,271.76z"/>
	</g>
</g>
</svg>
