<?xml version="1.0" encoding="utf-8"?>
<!-- Generator: Adobe Illustrator 24.3.0, SVG Export Plug-In . SVG Version: 6.00 Build 0)  -->
<svg version="1.1" xmlns="http://www.w3.org/2000/svg" xmlns:xlink="http://www.w3.org/1999/xlink" x="0px" y="0px"
	 viewBox="0 0 370.58 397.57" style="enable-background:new 0 0 370.58 397.57;" xml:space="preserve">
<style type="text/css">
	.st0{fill:#9FBFB7;}
	.st1{fill:#306586;}
	.st2{fill:none;stroke:#A6CC9F;stroke-width:2;stroke-miterlimit:10;}
	.st3{fill:#A6CC9F;}
	.st4{fill:#FFFFFF;}
	.st5{fill:#6AB391;}
	.st6{fill-rule:evenodd;clip-rule:evenodd;fill:#FFFFFF;}
	.st7{display:none;}
	.st8{display:inline;opacity:0.28;fill:#C9494E;}
	.st9{display:inline;opacity:0.28;fill:#A6CC9F;}
	.st10{fill:none;stroke:#9FBFB7;stroke-width:4;stroke-linecap:round;stroke-miterlimit:10;}
	.st11{fill:#C9494E;}
	.st12{fill:none;stroke:#9FBFB7;stroke-width:2;stroke-linecap:round;stroke-miterlimit:10;}
	.st13{fill:none;stroke:#9FBFB7;stroke-width:3;stroke-miterlimit:10;}
	.st14{fill:#FFFFFF;stroke:#666666;}
	.st15{fill:none;stroke:#DE928D;stroke-width:2;stroke-miterlimit:10;}
	.st16{clip-path:url(#SVGID_16_);fill:url(#SVGID_17_);}
	.st17{fill:#F4F6FA;}
	.st18{fill:#2BBFE8;}
	.st19{fill:#7E68C6;}
	.st20{fill:#CB479C;}
	.st21{fill:#FA9F3C;}
	.st22{fill:#F7BB40;}
	.st23{fill:#2A3942;}
	.st24{fill:#D7DEED;}
	.st25{fill:#57606F;}
	.st26{fill:#FEBE76;}
	.st27{fill:#AFB9D2;}
	.st28{fill:#E8A664;}
	.st29{fill:#FCD884;}
	.st30{fill:#EABF6A;}
	.st31{fill:#A28671;}
	.st32{fill:#60534A;}
	.st33{fill:#73665C;}
	.st34{fill:#8E725D;}
	.st35{fill:#FFE678;}
	.st36{fill:#B7C9F1;}
	.st37{fill:#3E3E3F;}
	.st38{fill:#EFF3F6;}
	.st39{fill:#DBDFE0;}
	.st40{fill:#FF7979;}
	.st41{fill:#414A56;}
	.st42{fill:#747371;}
	.st43{fill:#5B5A57;}
	.st44{fill:#E32929;}
	.st45{fill:#FD3B3B;}
	.st46{opacity:0.2;fill:#FFFFFF;}
	.st47{fill:none;stroke:#000000;stroke-width:1.8663;stroke-miterlimit:10;}
	.st48{fill:none;}
	.st49{fill:#231F20;}
	.st50{fill:none;stroke:#9FBFB7;stroke-width:10;stroke-miterlimit:10;}
	.st51{fill:#FD61AD;}
	.st52{fill:#333333;}
	.st53{fill:#58476B;}
	.st54{fill:#F5A2A6;}
	.st55{fill:#FFE475;}
	.st56{fill:#78C3D6;}
	.st57{fill:#9BC9FF;}
	.st58{fill:#1E81CE;}
	.st59{fill:#212121;}
	.st60{fill:#E04A4E;}
</style>
<g id="Capa_1">
</g>
<g id="margenes" class="st7">
</g>
<g id="Capa_3">
	<g>
		<path class="st1" d="M343.33,92.53c-0.99-12.78-6.9-24.4-16.64-32.73c-9.74-8.33-22.13-12.37-34.91-11.38
			c-12.78,0.99-24.4,6.9-32.73,16.64l11.07,9.47c5.8-6.78,13.9-10.89,22.8-11.59c8.9-0.69,17.53,2.12,24.31,7.93
			c6.78,5.8,10.9,13.9,11.59,22.79c0.69,8.9-2.12,17.53-7.93,24.31l11.07,9.47C340.28,117.7,344.32,105.3,343.33,92.53z"/>
		<path class="st1" d="M370.34,90.43c-1.56-20.02-10.79-38.22-26.01-51.24c-31.46-26.93-78.96-23.24-105.89,8.23l11.07,9.47
			c21.7-25.36,59.99-28.33,85.35-6.63c12.26,10.5,19.71,25.17,20.96,41.31c1.25,16.14-3.83,31.79-14.33,44.05l11.07,9.47
			C365.58,129.86,371.9,110.45,370.34,90.43z"/>
		<path class="st1" d="M324.43,155.97c-5.65-18.78-18.17-38.72-35.26-56.16c-17.08-17.44-36.76-30.37-55.42-36.4
			c-17.42-5.64-32.21-4.7-42.28,2.53c-6.54-0.91-13.23-1.39-20.04-1.39c-15.26,0-29.94,2.37-43.65,6.74l-1.47-6.92
			c-0.71-4.23-4.23-7.05-8.47-7.05H98.79c-4.23,0-7.76,2.82-8.47,7.05l-4.94,23.29c-5.65,1.41-10.58,3.53-15.53,6.35L50.1,81.31
			c-3.53-2.12-8.47-1.41-11.29,1.41L25.41,96.13c-2.82,3.53-3.53,7.76-1.41,11.29l12.7,19.76c-2.82,4.94-4.94,10.59-6.35,15.53
			l-23.29,4.94C2.82,148.35,0,151.88,0,156.11v18.35c0,4.23,2.82,7.76,7.06,8.47l23.29,4.94c1.03,4.11,2.44,7.85,4.21,11.49
			c0.66,1.36,1.37,2.7,2.14,4.04l-1.66,2.58l-11.04,17.17c-2.12,3.53-1.41,8.47,1.41,11.29l13.41,13.41
			c2.86,2.29,6.18,3.18,9.22,2.31c4.62,9.04,10.36,17.59,17.15,25.47l-0.35,0.35l4.32,4.06c3.57,3.78,7.41,7.41,11.44,10.78
			l90.78,85.58l52.24-49.25l6.09-5.74l31.42-29.62c26.26-21.51,42.73-51.4,46.49-83.61c4.01-1.51,7.55-3.71,10.52-6.63
			C328.1,191.78,330.34,175.6,324.43,155.97z M237.86,150.09c4.27,4.35,9.31,7.51,14.21,8.9c0.91,0.26,1.8,0.45,2.66,0.58
			c-7.03,8.46-15.63,14.66-19.6,17.3c-4.34-3.59-8.58-7.5-12.68-11.68c-2.01-2.05-3.94-4.13-5.81-6.24c-1.94-2.2-3.81-4.42-5.6-6.67
			c0.58-0.83,1.33-1.88,2.22-3.07c3.31-4.39,8.69-10.77,15.47-16.18c0.11,0.87,0.28,1.77,0.52,2.68
			C230.54,140.63,233.59,145.74,237.86,150.09z M237.34,127.43c2.65-2.6,10.57-0.45,17.2,6.32c6.63,6.77,8.62,14.73,5.97,17.33
			s-10.57,0.45-17.2-6.32C236.67,137.99,234.68,130.02,237.34,127.43z M216.64,170.13c0.12,0.13,0.24,0.26,0.37,0.39
			c4.9,5,10.01,9.63,15.26,13.83c0.13,0.12,0.27,0.23,0.41,0.33c12.91,10.29,26.59,17.98,39.75,22.24
			c4.68,1.51,9.16,2.55,13.42,3.13l-90.69,43.57c-0.01,0-0.02,0.01-0.03,0.01l-45.74,21.98c-5.15,0.14-12.75-1.05-22.8-10.07
			c-1.08-0.97-2.19-2.03-3.33-3.19c-1.51-1.55-2.85-3.04-4.03-4.47c-3.17-3.85-5.23-7.32-6.55-10.41c-1.99-4.69-2.28-8.51-2.14-11.5
			l12.78-25.25l6.71-13.25l16.7-33.01l6.36-12.57l9.07-17.92l16.73-33.07c0.3,2.62,0.79,5.34,1.44,8.13
			c0.41,1.76,0.86,3.54,1.41,5.35c0.65,2.16,1.4,4.34,2.24,6.53c3.01,7.94,7.18,16.01,12.33,23.94c2.31,3.55,4.81,7.07,7.49,10.55
			c0.96,1.24,1.94,2.47,2.95,3.7C209.85,162.84,213.14,166.54,216.64,170.13z M107.97,195.63c-16.23,0-29.64-13.41-29.64-29.64
			c0-16.23,13.41-29.64,29.64-29.64c16.11,0,29.43,13.21,29.63,29.27l-12.31,24.32C120.4,193.51,114.41,195.63,107.97,195.63z
			 M171.44,74.56c3.97,0,7.89,0.18,11.76,0.52c-0.94,1.63-1.76,3.37-2.42,5.21l-1.81,3.58l-1.14-1.14
			c-3.53-2.82-7.76-3.53-11.29-1.41l-19.76,12.7c-4.94-2.82-9.88-4.94-15.53-6.35l-1.38-6.53C142.9,76.88,156.88,74.56,171.44,74.56
			z M46.57,230.21l-3.53-3.53l4.43-6.77l7.57-11.57c2.12-2.82,2.12-6.35,0-9.17c-4.23-5.65-7.06-12.7-8.47-19.76
			c-0.19-0.75-0.48-1.5-0.87-2.22c-1.07-1.96-2.89-3.62-5.48-4.13l-3.83-0.89l-17.34-4.05v-4.94l20.67-4.82l0.5-0.12
			c2.82-0.71,5.65-2.82,6.35-6.35c1.41-7.06,4.23-13.41,8.47-19.76c1.75-2.34,2.03-5.15,0.88-7.66c-0.24-0.52-0.52-1.03-0.88-1.52
			l-12-18.35l3.53-3.53l18.14,11.86l0.21,0.14c2.82,2.11,6.35,2.11,9.17,0c2.91-2.19,6.21-3.99,9.68-5.42
			c3.25-1.34,6.66-2.36,10.08-3.05c2.82-0.71,5.65-2.82,6.35-6.35l0.84-3.62l3.12-13.36l0.98-4.19h4.94l0.25,1.09l2.33,9.98
			l2.36,10.11c0.71,2.82,2.82,5.65,6.35,6.35c7.76,1.41,14.11,4.23,20.46,8.47c2.82,2.11,6.35,2.11,9.17,0l18.35-12l0.6,0.6
			l-20.81,41.12c-8.11-14.37-23.51-24.07-41.19-24.07c-26.11,0-47.28,21.17-47.28,47.28s21.17,47.28,47.28,47.28
			c1.93,0,3.83-0.13,5.7-0.35l-10.26,20.27c-0.06,0.12-0.12,0.25-0.17,0.38c-0.01,0.04-0.02,0.07-0.04,0.11
			c-0.03,0.08-0.06,0.16-0.08,0.24c-0.02,0.08-0.04,0.17-0.06,0.25c-0.01,0.04-0.02,0.07-0.02,0.11c-0.02,0.14-0.04,0.28-0.05,0.43
			c-0.52,7.18,1.2,14.02,5.3,20.91h-2.44l-5.65-22.58c-0.7-2.82-2.82-5.65-6.35-6.35c-7.06-1.41-13.41-4.23-19.76-8.47
			c-2.82-2.12-6.35-2.12-9.17,0l-15.17,9.92L46.57,230.21z M171.36,362.66l-84.03-79.21l-0.22-0.2c-3.65-3.06-7.15-6.34-10.4-9.76
			l-0.95-1.03c-7.74-8.34-14.14-17.57-19.1-27.42l13.2-8.49c4.94,2.82,9.88,4.94,15.53,6.35l4.94,23.29
			c0.71,4.23,4.23,7.06,8.47,7.06h19.05c1.69,0,3.27-0.46,4.6-1.22c9.28,8.08,18.31,11.66,28.05,11.16c0.06,0,0.12-0.01,0.19-0.02
			c0.04,0,0.08-0.01,0.12-0.01c0.27-0.03,0.53-0.09,0.78-0.18c0.02-0.01,0.04-0.02,0.06-0.02c0.1-0.04,0.21-0.08,0.31-0.13
			c0.01-0.01,0.03-0.01,0.04-0.02l0.28-0.13l62.15,39.38L171.36,362.66z M231.43,306.03l-11.29,10.64l-59.77-37.87l23.39-11.24
			c13.72,15.22,30.32,27.33,49.43,36.05L231.43,306.03z M236.56,296.77c-17.54-7.98-32.85-18.94-45.62-32.66l4.88-2.34
			c11.48,12.41,25.53,22.86,41.83,31.14L236.56,296.77z M254.65,284.16l-0.14,0.11l-8.88,8.37l0.2-0.73
			c0.5-1.78-0.35-3.65-2.01-4.46c-15.89-7.69-29.59-17.49-40.8-29.16l93.75-45.04C292.01,240.56,277.24,265.7,254.65,284.16z
			 M312.79,196.11c-1.33,1.31-2.85,2.41-4.5,3.34c-1.29,0.73-2.65,1.37-4.12,1.87c-0.15,0.04-0.29,0.09-0.44,0.15
			c-1.77,0.57-3.66,0.97-5.66,1.22c-6.65,0.81-14.54-0.17-23.31-3.01c-10.97-3.55-22.37-9.69-33.35-17.86
			c3.43-2.39,8.32-6.12,13.24-10.94c4.62-4.53,9.26-10.02,12.73-16.26c1.97-3.08,2.4-7.18,1.19-11.81
			c-1.28-4.92-4.34-10.03-8.6-14.39c-4.27-4.35-9.31-7.51-14.21-8.9c-4.57-1.29-8.66-0.96-11.77,0.91
			c-13.07,6.9-23.01,18.89-27.79,25.45c-7.81-10.95-13.64-22.27-16.99-33.14c-0.06-0.19-0.12-0.38-0.18-0.57
			c-2.35-7.8-3.27-14.89-2.79-21.01c0.22-2.88,0.75-5.56,1.59-7.99c0.06-0.15,0.12-0.29,0.16-0.44c0.91-2.48,2.14-4.7,3.7-6.64
			c0.52-0.65,1.08-1.27,1.68-1.86c2.91-2.85,6.61-4.82,10.95-5.89c7.36-1.82,16.59-1.06,27.07,2.33
			c17.51,5.67,36.09,17.91,52.32,34.49c16.24,16.57,28.1,35.4,33.4,53.02C322.18,174.95,320.64,188.42,312.79,196.11z"/>
	</g>
</g>
</svg>
