<svg width="298" height="268" viewBox="0 0 298 268" fill="none" xmlns="http://www.w3.org/2000/svg">
<path d="M162.717 227.48C161.517 226.921 160 227.285 159.323 228.275C158.23 229.893 156.607 231.188 154.486 232.131C150.848 233.749 145.945 233.884 141.369 232.502C136.793 231.113 133.155 228.39 131.646 225.215C130.765 223.361 130.536 221.508 130.969 219.687C131.23 218.568 130.357 217.49 129.003 217.267C128.84 217.241 128.676 217.227 128.521 217.227C127.355 217.227 126.311 217.908 126.082 218.892C125.462 221.494 125.772 224.13 127.012 226.725C129.068 231.046 133.677 234.558 139.664 236.371C145.643 238.185 151.916 237.962 156.86 235.765C159.829 234.443 162.129 232.603 163.695 230.284C164.348 229.287 163.916 228.033 162.717 227.48Z" fill="#306586"/>
<path d="M254.207 109.318C254.199 109.514 254.199 109.507 254.207 109.318C254.216 109.048 254.24 108.287 254.24 108.179C254.24 106.406 254.191 104.68 254.085 102.988C253.025 86.6348 246.213 73.9146 221.84 63.028C220.975 62.6437 220.086 62.2527 219.172 61.8753C217.989 61.3764 216.749 60.8776 215.485 60.3855C214.922 60.1631 214.351 59.9473 213.772 59.7316C213.144 59.4957 212.516 59.2598 211.888 59.0306C208.388 57.7431 204.799 56.5229 201.447 55.4242C193.412 52.7952 186.78 50.9212 186.315 50.7864L181.306 49.3708L182.22 51.4403L182.873 52.93L183.264 53.8468C183.354 54.0692 184.431 57.797 184.61 58.862C177.774 57.1498 170.653 55.9432 163.32 55.2961L163.532 44.9015C163.622 44.8341 163.703 44.7667 163.793 44.6993C166.672 42.3669 168.271 39.3942 168.597 35.7743L168.965 15.3222C169.087 8.50714 162.741 3.15482 154.494 3.12112L144.697 3.08067C140.569 3.06719 136.939 4.32775 134.06 6.66012C131.18 8.99249 129.581 11.9652 129.516 15.3762V15.5919L113.781 15.5042C111.203 15.4975 109.107 17.1895 109.066 19.3196C109.025 21.4498 111.056 23.162 113.634 23.1755L129.361 23.2429L129.28 27.9278L113.553 27.8604C110.975 27.8537 108.878 29.5456 108.838 31.6758C108.797 33.8059 110.828 35.5181 113.406 35.5316L129.133 35.599V35.808C129.068 39.3672 130.789 42.6838 133.864 45.0161L133.668 55.714C126.082 56.6173 118.741 58.1205 111.733 60.1563C111.733 60.1496 111.725 60.1496 111.725 60.1428C111.383 59.5227 107.997 53.9816 107.214 52.8289C105.428 50.1999 103.47 47.5912 101.309 44.9959C101.3 44.9892 101.3 44.9824 101.292 44.9757C100.778 44.3555 100.248 43.7421 99.7097 43.1287C99.7016 43.1219 99.6934 43.1152 99.6934 43.1084C96.3653 39.2998 92.613 35.5384 88.3957 31.8376C87.7921 31.3118 87.1803 30.7792 86.5603 30.2534C86.5522 30.2467 86.544 30.24 86.544 30.24L86.5195 25.0966C86.5195 25.0966 77.7505 31.7971 77.3427 32.1274C77.1224 32.3027 75.9804 33.2397 75.6296 33.5296C75.4012 33.7183 75.181 33.907 74.9526 34.0958C74.6181 34.3722 74.2919 34.6553 73.9656 34.9317C73.7372 35.1272 71.9018 36.745 71.6897 36.9405C71.3797 37.2169 71.0779 37.4932 70.7843 37.7696C70.5722 37.9651 70.3601 38.1606 70.148 38.3628C69.8462 38.6459 66.5588 41.8614 66.2325 42.1917C66.0939 42.34 62.1702 46.5935 61.8929 46.9103C61.7297 47.0991 61.5748 47.2878 61.4116 47.4766C61.1669 47.7664 56.4439 53.84 56.2481 54.1164C56.1013 54.3186 51.9574 60.8371 51.8514 61.0259C51.6801 61.3225 51.5169 61.6191 51.3538 61.909C51.2396 62.1179 51.1335 62.3202 51.0193 62.5291C50.8725 62.8055 50.7257 63.0751 50.5788 63.3515C50.4646 63.5672 50.3586 63.7829 50.2444 63.9987C50.1057 64.2616 49.9752 64.5244 49.8447 64.7873C49.7386 65.0098 49.6244 65.2255 49.5184 65.448C49.3879 65.7109 49.2655 65.967 49.1432 66.2299C49.0371 66.4524 48.9311 66.6748 48.8332 66.8973C48.7108 67.1534 48.5966 67.4163 48.4824 67.6725C48.3845 67.8949 48.2866 68.1174 48.1888 68.3398C48.0746 68.596 47.9685 68.8589 47.8543 69.115C47.7646 69.3375 47.6667 69.5532 47.577 69.7757C47.4709 70.0385 47.3649 70.3082 47.2588 70.5711C47.1773 70.7868 47.0875 70.9958 47.006 71.2115C46.8999 71.4946 46.7939 71.771 46.6878 72.0473C46.6144 72.2428 46.541 72.4451 46.4676 72.6406C46.3289 73.0315 46.1902 73.4225 46.0597 73.8067C45.97 74.0696 45.6111 75.1684 45.5214 75.4583C45.4479 75.6807 45.1624 76.6312 45.089 76.8806C45.0238 77.1165 44.9585 77.3525 44.8932 77.5884C44.828 77.8243 44.3875 79.4894 44.3304 79.7253C44.2733 79.968 44.2162 80.2106 44.1591 80.4533C44.102 80.6825 43.7512 82.3273 43.7023 82.5498C43.6533 82.7992 43.2292 85.1383 43.1965 85.354C43.1558 85.6034 43.115 85.8596 43.0823 86.109C43.0497 86.3112 43.0252 86.5134 43.0008 86.7157C42.96 86.9853 42.9274 87.2482 42.8947 87.5178C42.8866 87.5785 42.7153 89.0548 42.65 89.7356C42.6337 89.8974 42.3482 94.8992 42.3482 95.1688C42.3482 95.3576 42.3482 97.636 42.3482 97.9124C42.3482 98.0809 42.4624 100.824 42.4706 100.919C42.544 102.092 42.6419 103.258 42.7642 104.417C42.7642 104.451 42.7724 104.492 42.7724 104.525C42.805 104.856 43.8654 111.65 43.9225 111.954C43.947 112.068 44.3957 114.172 44.4772 114.522C40.7983 123.157 38.7998 132.386 38.7998 141.978C38.7998 162.066 47.6749 181.48 63.8751 197.018L67.1053 199.991C70.0175 202.539 73.1498 204.986 76.4372 207.257L150.488 264.946L223.699 207.911C248.236 191.308 262.299 167.284 262.299 141.985C262.34 130.431 259.444 119.409 254.207 109.318ZM248.758 100.319C248.758 100.326 248.758 100.326 248.758 100.319L248.75 100.312C248.758 100.319 248.758 100.319 248.758 100.319ZM220.706 139.538C220.469 139.598 219.352 139.841 219.034 139.909C218.797 139.956 218.56 140.01 218.324 140.05C217.998 140.111 215.143 140.529 214.914 140.556C214.547 140.596 213.389 140.704 213.177 140.717C212.761 140.751 211.129 140.819 210.99 140.825C210.542 140.839 210.085 140.852 209.636 140.852C205.305 140.852 201.137 140.273 197.237 139.201C197.213 139.194 197.188 139.187 197.164 139.18C196.397 138.972 195.639 138.736 194.896 138.486C192.718 137.758 190.638 136.882 188.672 135.857C187.938 135.48 187.229 135.069 186.527 134.651C186.103 134.401 185.687 134.145 185.271 133.882C184.863 133.619 184.463 133.336 184.072 133.06C183.411 132.601 182.767 132.123 182.147 131.631C182.106 131.597 182.065 131.57 182.024 131.536C182.008 131.523 182 131.516 181.983 131.503C178.623 128.779 175.857 125.564 173.834 122.005C172.807 120.198 171.958 118.304 171.338 116.335C171.33 116.295 171.314 116.255 171.306 116.221C170.514 113.646 170.09 110.956 170.09 108.186C170.09 105.442 170.441 103.022 171.036 100.811C171.355 99.6515 171.738 98.546 172.178 97.4944C172.701 96.2609 173.296 95.0879 173.957 93.9689C174.789 92.5601 175.711 91.2119 176.689 89.9041V95.8025V100.953V101.559C176.689 101.741 176.706 101.923 176.73 102.099C176.738 102.152 176.738 102.213 176.738 102.267C176.747 102.334 176.828 102.813 176.877 102.982C176.893 103.049 176.91 103.11 176.926 103.177C177.056 103.622 177.236 104.053 177.464 104.465C177.497 104.525 177.53 104.579 177.57 104.64C177.66 104.788 179.006 106.406 179.667 106.871L181.51 107.862C181.877 108.01 182.253 108.138 182.644 108.24C182.734 108.266 184.39 108.556 185.157 108.556C185.45 108.556 185.736 108.543 186.021 108.523C186.592 108.475 187.139 108.381 187.669 108.246C187.685 108.24 187.702 108.233 187.718 108.233C191.136 107.329 193.616 104.687 193.616 101.566V96.2069C193.616 94.6161 195.182 93.3218 197.115 93.3218C198.559 93.3218 199.799 94.0498 200.329 95.0879C200.337 95.0947 200.337 95.1081 200.337 95.1149C200.508 95.4519 200.598 95.8227 200.598 96.2069V114.286C200.598 115.203 200.818 116.079 201.21 116.881C201.332 117.131 201.463 117.38 201.626 117.616C201.846 117.953 202.115 118.277 202.401 118.58C203.372 119.605 204.677 120.407 206.178 120.859C206.447 120.939 206.724 121.007 207.01 121.068C207.091 121.088 207.173 121.101 207.263 121.115C207.369 121.135 207.475 121.148 207.589 121.162C207.695 121.175 207.801 121.196 207.915 121.209C208.005 121.216 208.087 121.229 208.176 121.236C208.47 121.263 208.772 121.283 209.082 121.283C213.748 121.283 217.549 118.142 217.549 114.286V86.473C217.549 85.6776 217.94 84.9563 218.577 84.4305C219.213 83.9047 220.086 83.5811 221.048 83.5811L221.962 83.6957C223.063 83.9451 223.952 84.626 224.328 85.509V85.5158C224.393 85.6641 224.442 85.8124 224.474 85.9607C224.507 86.1225 224.54 86.291 224.54 86.4662V107.276C224.54 108.725 225.078 110.066 225.992 111.185C226.065 111.28 226.155 111.361 226.228 111.448C226.473 111.718 226.734 111.981 227.019 112.217C227.052 112.244 227.093 112.271 227.125 112.298C227.55 112.635 228.015 112.938 228.52 113.194C228.79 113.336 229.067 113.457 229.352 113.572C229.54 113.646 229.728 113.713 229.915 113.781C230.307 113.909 230.715 114.01 231.131 114.091C231.734 114.205 232.354 114.266 232.999 114.266C233.586 114.266 234.157 114.219 234.704 114.124C238.562 113.47 241.466 110.646 241.466 107.269V103.393V102.759C241.466 101.168 243.032 99.874 244.957 99.874C246.882 99.874 248.457 101.168 248.457 102.759V114.232C248.391 114.529 248.31 114.825 248.228 115.122C248.196 115.23 248.171 115.338 248.147 115.446C248.098 115.621 248.049 115.789 248 115.958C247.91 116.248 247.828 116.531 247.731 116.821C247.674 116.989 247.616 117.158 247.551 117.333C247.453 117.616 247.347 117.899 247.241 118.176C247.176 118.344 247.102 118.513 247.037 118.681C246.923 118.958 246.809 119.227 246.686 119.497C246.613 119.665 246.531 119.834 246.45 120.002C246.328 120.272 246.197 120.535 246.058 120.798C245.977 120.966 245.887 121.128 245.797 121.297C245.659 121.56 245.52 121.816 245.373 122.072C245.283 122.234 245.186 122.402 245.088 122.564C244.941 122.813 244.786 123.07 244.623 123.312C244.517 123.474 244.411 123.636 244.305 123.798C244.141 124.04 243.587 124.842 243.464 125.004C243.293 125.24 243.114 125.476 242.934 125.705C242.812 125.86 242.192 126.629 242.004 126.851C241.874 127.006 241.743 127.161 241.613 127.31C241.417 127.532 240.748 128.26 240.601 128.408C240.397 128.617 239.108 129.878 238.896 130.073C238.741 130.215 237.428 131.348 237.257 131.482C237.028 131.664 232.322 134.887 232.126 135.001C231.873 135.149 231.604 135.291 231.343 135.433C231.139 135.547 230.201 136.039 229.932 136.167C229.719 136.275 229.516 136.376 229.295 136.477C229.026 136.605 228.047 137.05 227.827 137.145C227.55 137.266 227.272 137.381 226.987 137.495C226.799 137.596 221.016 139.464 220.706 139.538ZM221.554 143.697C221.546 143.697 221.546 143.697 221.554 143.697ZM195.9 164.789C195.312 163.172 195.745 155.399 192.906 149.373C191.821 147.067 185.377 139.16 184.308 137.637C192.678 142.585 197.564 143.528 198.975 143.852C198.975 143.852 203.461 158.601 195.9 164.789ZM187.596 74.6831C187.791 74.2921 189.7 68.2859 189.823 67.4837C189.823 67.477 189.823 67.4702 189.823 67.4635C190.198 64.9019 189.92 60.3046 189.92 60.3046C189.912 60.2574 189.594 58.0397 189.594 58.0329C189.537 57.7161 189.398 57.0285 189.39 56.9881C189.333 56.7184 189.268 56.4555 189.211 56.2061C189.203 56.1589 189.186 56.1117 189.178 56.0713C194.978 57.8105 205.313 61.0394 213.854 64.3829C214.865 64.7806 215.852 65.1783 216.798 65.576C216.823 65.5895 216.847 65.5963 216.872 65.6097C217.068 65.6906 217.247 65.7715 217.443 65.8524C218.014 66.0951 218.585 66.3378 219.131 66.5872C225.062 69.2161 229.874 71.9328 233.757 74.7842C234.646 75.4381 235.495 76.0987 236.286 76.766C236.727 77.1368 238.309 78.5793 238.66 78.9231C238.79 79.0512 238.913 79.1793 239.035 79.3006C239.263 79.5365 239.998 80.305 240.128 80.4533C240.324 80.669 240.976 81.424 241.115 81.5791C241.286 81.788 241.898 82.543 242.021 82.7115C242.176 82.9205 242.738 83.6822 242.861 83.8575C243.008 84.0665 243.897 85.4349 244.027 85.6439C244.133 85.8259 246.05 89.6075 246.132 89.7895C246.23 90.0187 247.396 93.3825 247.445 93.5577C247.519 93.8206 247.739 94.643 247.78 94.8318C247.78 94.8385 247.78 94.8453 247.788 94.852C247.886 95.2362 248.073 96.1125 248.09 96.1597C248.073 96.153 247.616 96.0182 247.404 95.9642C247.217 95.9171 245.757 95.6946 245.275 95.6811C245.177 95.6811 245.08 95.6676 244.982 95.6676C242.061 95.6676 239.492 96.881 237.942 98.728C237.86 98.8224 237.102 99.9819 237.061 100.076C236.971 100.251 236.588 101.384 236.572 101.458C236.539 101.6 236.465 102.031 236.465 102.099C236.441 102.314 236.425 102.53 236.425 102.752V107.262C236.425 108.812 234.899 110.066 233.031 110.066C232.012 110.066 231.098 109.689 230.47 109.102C230.38 109.015 230.29 108.927 230.217 108.826C229.85 108.381 229.638 107.835 229.638 107.255V89.9918V86.4595C229.638 82.5565 225.796 79.3815 221.073 79.3815C219.605 79.3815 218.218 79.6916 217.002 80.2309C216.717 80.3589 216.448 80.5072 216.178 80.6623C216.162 80.669 216.146 80.6758 216.13 80.6892C216.056 80.7297 215.991 80.7769 215.917 80.8173C215.697 80.9521 215.493 81.0937 215.289 81.2487C215.232 81.2959 215.167 81.3364 215.11 81.3836C214.865 81.5791 214.637 81.788 214.417 82.0037C214.384 82.0374 214.359 82.0711 214.327 82.1049C214.147 82.2936 213.976 82.4891 213.821 82.6981C213.772 82.7655 213.723 82.8329 213.674 82.9003C213.527 83.1025 213.397 83.3182 213.275 83.5339C213.25 83.5811 213.226 83.6216 213.201 83.662C213.062 83.9249 212.948 84.1878 212.85 84.4642C212.826 84.5316 212.81 84.599 212.785 84.6664C212.712 84.8821 212.655 85.1046 212.614 85.3338C212.597 85.4147 212.581 85.4955 212.573 85.5764C212.532 85.8663 212.5 86.1629 212.5 86.4662V114.279C212.5 115.823 210.974 117.084 209.106 117.084C207.932 117.084 206.904 116.592 206.292 115.843C206.243 115.789 206.219 115.729 206.178 115.668C206.112 115.567 206.031 115.473 205.982 115.365C205.811 115.028 205.713 114.664 205.713 114.273V96.1934C205.713 95.0812 205.395 94.0363 204.84 93.0993C204.685 92.8364 204.514 92.587 204.326 92.3444C204.302 92.3107 204.277 92.2769 204.253 92.2432C202.711 90.3625 200.101 89.1154 197.148 89.1154C192.425 89.1154 188.574 92.2904 188.574 96.1934V101.552C188.574 103.062 187.122 104.289 185.312 104.35C185.271 104.35 185.23 104.363 185.181 104.363C184.545 104.363 183.949 104.208 183.444 103.952C183.207 103.831 182.979 103.703 182.783 103.541C182.171 103.036 181.788 102.334 181.788 101.559V100.177V83.5137C183.892 80.8241 185.956 77.9861 187.596 74.6831ZM163.173 62.0573C170.694 62.7718 177.962 64.1065 184.904 66.0075C184.879 66.2838 184.798 66.8703 184.798 66.877C184.757 67.1467 183.362 72.0945 183.313 72.2091C183.24 72.3844 182.962 72.9709 182.905 73.0855C180.972 76.975 178.394 80.15 175.67 83.507C173.581 86.082 171.477 88.6975 169.682 91.6298C167.455 90.5647 165.098 89.6615 162.626 88.9267L163.173 62.0573ZM138.53 15.6121C138.554 14.3313 139.093 13.0573 140.137 12.2079C141.442 11.1496 142.747 10.5159 144.036 10.7317L154.086 10.9878C157.177 11.0013 159.714 13.1449 159.673 15.6997L159.298 36.1518C159.274 37.4326 158.735 38.7066 157.691 39.556C157.169 39.9806 156.908 40.1896 156.125 40.3986C155.35 40.6075 154.567 40.8165 153.539 40.8098L143.742 40.7693C142.706 40.7626 141.94 40.5536 141.173 40.3312C139.125 39.4683 138.122 37.7629 138.155 36.0574L138.53 15.6121ZM151.606 165.659L140.659 165.612C140.692 165.41 143.449 48.0159 143.62 48.0159C143.62 48.0159 153.923 48.0968 154.175 48.1102C154.167 48.1102 151.565 165.45 151.606 165.659ZM133.554 62.5561L133.081 88.6571C129.076 89.7828 125.348 91.3467 121.946 93.2679C121.122 84.4103 118.912 75.3774 114.858 66.3917C120.853 64.6862 127.102 63.392 133.554 62.5561ZM122.33 102.227C125.266 99.9144 128.847 97.9731 132.926 96.5035L131.523 161.527L121.196 161.486C120.29 161.48 119.442 161.695 118.724 162.059L117.925 160.853C116.807 159.154 114.743 158.008 112.419 157.786C110.094 157.57 107.777 158.298 106.219 159.747C106.097 159.855 105.974 159.963 105.86 160.077C114.205 144.62 122.158 124.189 122.33 102.227ZM96.1532 164.088C95.2641 165.571 94.3912 166.987 93.5266 168.335C92.8169 168.713 92.1806 169.043 91.6423 169.313C90.5166 169.879 89.8232 170.196 89.7987 170.209C89.7661 170.223 88.8117 170.647 87.2455 171.267L87.009 122.928L114.752 104.303L115.543 103.77C115.494 105.948 115.363 108.105 115.16 110.248C114.572 116.517 113.373 122.611 111.766 128.442C111.073 130.957 110.306 133.424 109.474 135.83C109.205 136.619 108.919 137.408 108.634 138.183C105.045 148.018 100.501 156.828 96.1532 164.088ZM102.752 57.7228C103.699 59.2058 108.495 68.414 108.528 68.4072C112.778 77.8648 114.882 87.3898 115.421 96.699L86.9682 115.796L86.7398 69.0813L102.752 57.7228ZM86.5929 38.4504C87.2047 39.0302 87.8084 39.6099 88.4038 40.1896C88.4202 40.2098 88.4446 40.2301 88.4609 40.2435C91.8462 43.5668 94.8399 46.9373 97.5155 50.3415C98.1436 51.1437 98.7635 51.9458 99.359 52.7547C99.3671 52.7682 99.3753 52.7817 99.3916 52.7952L86.7153 61.7809L86.5929 38.4504ZM80.4995 166.279C73.9248 159.039 63.2715 145.834 56.191 129.527L80.3935 145.416L80.4995 166.279ZM53.4991 72.2294C54.2904 70.261 55.1877 68.3129 56.1828 66.385C56.2155 66.3243 59.1194 61.2012 59.2907 60.9315C59.6089 60.4192 60.6611 58.8283 60.8569 58.5317C61.1914 58.0397 61.5258 57.5476 61.8684 57.0622C62.0805 56.7589 62.3089 56.4623 62.5291 56.1589C62.8799 55.6803 63.2225 55.2017 63.5896 54.7231C63.7935 54.4602 64.0056 54.1973 64.2095 53.9344C64.8621 53.0985 65.531 52.2694 66.2244 51.4403C66.567 51.0291 67.8966 49.4921 68.2229 49.1349C68.5981 48.7169 71.1513 45.9868 71.5755 45.5621C71.9018 45.2318 72.2281 44.9015 72.5544 44.578C73.0112 44.1263 73.468 43.6814 73.9329 43.2365C74.2511 42.9332 74.561 42.6298 74.8792 42.3332C75.4094 41.8344 75.9559 41.3423 76.5025 40.8435C76.7717 40.5941 77.0408 40.3514 77.3182 40.102C78.1502 39.3605 78.9986 38.6257 79.8714 37.8977L80.1243 90.3625L53.2707 72.7889C53.3441 72.5934 53.4257 72.4114 53.4991 72.2294ZM48.9474 91.8927C48.9637 91.65 48.98 91.4141 49.0045 91.1782C49.0697 90.3625 49.1513 89.5469 49.2492 88.7312C49.2818 88.4683 49.3145 88.2054 49.3471 87.9425C49.4531 87.1269 49.5836 86.3179 49.7223 85.509C49.7631 85.2731 49.7957 85.0372 49.8447 84.808C50.016 83.871 51.003 79.6242 51.3048 78.5793C51.3048 78.5793 51.3048 78.5793 51.3048 78.5726L64.0056 86.8842C64.0709 86.8168 64.1443 86.7561 64.2177 86.6887L64.2095 86.6954C64.1443 86.7561 64.079 86.8168 64.0138 86.8774L80.1814 97.4607L80.3771 138.304L52.6671 120.117C52.3897 119.254 50.016 109.534 49.5021 106.298C49.445 105.907 49.3308 105.112 49.3308 105.112C49.3308 105.112 49.2655 104.478 49.2329 104.161C48.8903 101.175 48.8821 92.7893 48.9474 91.8927ZM46.9897 141.971C46.9897 137.098 47.5525 132.325 48.6211 127.687C57.5614 150.62 73.5414 168.146 79.2841 173.971C76.4535 174.793 73.3293 175.528 70.2703 175.925C67.9537 176.222 65.9552 177.435 64.9111 179.168C63.8751 180.907 63.924 182.956 65.0416 184.655L70.6211 193.108C55.3671 178.723 46.9897 160.65 46.9897 141.971ZM114.58 227.676L101.178 217.234C101.235 217.247 101.3 217.261 101.358 217.274C101.455 217.295 101.553 217.322 101.659 217.335C104.302 217.827 106.929 218.077 109.515 218.077C110.575 218.077 111.619 218.036 112.663 217.948C112.851 221.258 113.487 224.521 114.58 227.676ZM116.522 198.899L115.967 200.146C115.592 200.995 115.249 201.851 114.939 202.714C113.601 206.381 112.827 210.122 112.631 213.843C112.508 213.837 112.394 213.837 112.264 213.843C109.197 214.099 105.999 213.924 102.752 213.317C97.6133 212.354 92.8414 210.358 88.7546 207.561C87.58 206.759 86.4624 205.889 85.4183 204.959C84.7984 204.406 84.2029 203.833 83.6319 203.24C82.5551 202.121 81.5599 200.934 80.6626 199.674C80.4506 199.377 80.2385 199.087 80.0427 198.784L69.422 182.687C69.0712 182.154 69.0549 181.541 69.3812 180.995C69.7075 180.449 70.3111 180.091 71.029 179.997C74.3 179.579 77.5792 178.817 80.5566 177.975C80.5566 177.975 80.5566 177.975 80.5648 177.975C83.0935 177.26 85.3938 176.478 87.27 175.791C87.8736 175.568 88.4365 175.359 88.9422 175.157C90.8428 174.415 96.194 171.827 96.6263 171.591C97.752 170.984 100.762 169.225 100.95 169.104C103.935 167.27 107.206 165.005 109.931 162.47C110.42 162.019 111.114 161.796 111.84 161.864C112.566 161.931 113.185 162.275 113.536 162.808L122.501 176.391L124.157 178.898C124.402 179.276 124.638 179.66 124.875 180.051L123.096 184.062L119.287 192.65C117.843 192.259 116.326 192.057 114.768 192.057C114.523 192.057 114.27 192.07 114.018 192.077C112.239 192.144 110.428 192.461 108.666 193.027C107.9 193.27 107.149 193.553 106.407 193.89C105.722 194.2 105.077 194.537 104.457 194.901C101.186 196.836 98.894 199.512 98.0701 202.465C97.4828 204.581 97.6052 206.651 98.4454 208.599C98.9103 209.671 100.33 210.237 101.627 209.846C102.924 209.462 103.601 208.289 103.136 207.217C102.614 206.004 102.54 204.75 102.924 203.395C103.511 201.305 105.346 199.317 107.908 197.948C108.193 197.793 108.479 197.645 108.781 197.51C110.045 196.944 111.375 196.566 112.704 196.364C114.401 196.108 116.065 196.162 117.558 196.532L116.522 198.899ZM159.078 249.004L150.521 255.671L144.819 251.229C149.567 251.154 154.339 250.406 159.078 249.004ZM234.761 188.848C234.19 189.461 233.61 190.068 233.023 190.675C232.982 190.715 225.119 197.84 224.931 197.989C224.858 198.049 223.928 198.764 222.419 199.93C214.245 206.239 188.966 225.721 188.966 225.721C186.095 231.006 186.095 231.006 188.966 225.721C188.966 225.721 190.01 223.739 190.467 222.714L193.485 215.906L193.82 215.151L197.262 207.385L197.327 207.23L200.737 199.539C201.724 197.308 201.341 194.814 199.701 192.859C198.061 190.904 195.369 189.731 192.498 189.717C192.408 189.717 192.319 189.711 192.237 189.711C191.144 189.697 190.018 189.663 188.868 189.589C187.506 189.508 186.299 190.358 186.201 191.497C186.193 191.585 186.201 191.672 186.209 191.76C186.274 192.778 187.237 193.627 188.501 193.701C188.566 193.708 188.632 193.708 188.705 193.708C189.986 193.782 191.25 193.823 192.465 193.836C193.738 193.843 194.88 194.342 195.606 195.205C196.332 196.067 196.495 197.126 196.055 198.11L185.777 221.285C184.936 223.179 183.933 224.993 182.799 226.739C182.359 227.413 181.902 228.08 181.421 228.727C180.964 229.347 180.483 229.961 179.985 230.561C174.634 236.998 167.211 241.98 158.564 244.771C152.104 246.854 145.594 247.541 139.191 246.854C138.709 246.8 137.518 246.645 137.429 246.598C131.653 243.773 126.963 239.729 123.447 234.585C123.325 234.403 123.186 234.228 123.064 234.039C117.337 225.316 116.049 214.895 119.336 204.959C119.711 203.819 128.382 184.089 128.382 184.089L130.911 178.386C131.335 177.435 132.241 176.734 133.407 176.438C133.448 176.424 133.489 176.411 133.538 176.404C134.272 176.242 135.022 176.262 135.716 176.451C136.181 176.573 136.613 176.768 137.005 177.038C141.091 179.862 145.806 182.275 150.089 184.183C156.949 187.237 162.716 189.003 163.099 189.117C163.189 189.144 165.253 189.771 168.548 190.56C168.883 190.641 169.217 190.661 169.544 190.627C170.506 190.533 171.346 189.974 171.64 189.158C172.023 188.066 171.265 186.927 169.943 186.603C166.827 185.855 164.837 185.255 164.821 185.248C164.78 185.235 163.622 184.884 161.762 184.23L167.7 184.257C169.25 184.264 170.286 183.839 171.069 183.206C171.852 182.572 172.652 181.507 172.407 180.442C172.448 178.312 170.417 176.599 167.839 176.586L144.379 176.485C142.943 175.663 141.532 174.793 140.21 173.876C138.008 172.353 135.03 171.807 132.257 172.427C130.275 172.865 128.57 173.863 127.395 175.204L123.406 169.157L167.969 169.346C169.519 169.353 170.555 168.928 171.338 168.295C172.121 167.661 172.652 166.812 172.676 165.531C172.717 163.401 170.686 161.689 168.108 161.675L161.15 161.648L162.471 96.4294C163.899 96.9417 165.277 97.5214 166.591 98.1753C165.612 101.094 165.008 108.172 165.008 108.172C165.008 108.759 165.033 109.345 165.065 109.925C165.074 110.114 165.408 113.039 165.465 113.403C165.506 113.619 166.232 116.78 166.395 117.299C166.419 117.387 166.795 118.499 166.966 118.964C167.039 119.167 168.981 123.353 169.136 123.629C169.258 123.852 172.798 128.948 173.019 129.204C173.165 129.379 176.959 133.262 177.774 133.95C177.791 133.963 177.799 133.976 177.815 133.983C178.166 134.28 179.773 135.534 180.075 135.749C179.422 137.158 179.675 138.547 180.882 139.565C188.746 146.629 192.702 156.019 192.531 165.396C192.514 166.333 192.441 167.263 192.343 168.187C191.894 168.834 191.446 169.495 190.989 170.155C186.494 176.694 181.437 184.048 177.554 191.167L182.922 191.531C183.085 191.248 183.264 190.931 183.46 190.607C187.049 184.385 191.446 177.981 195.402 172.225C195.622 171.908 195.826 171.604 196.046 171.288C196.21 171.045 196.373 170.816 196.536 170.58C198.453 167.735 199.978 165.497 200.598 164.567C200.655 164.479 200.721 164.392 200.778 164.304C201.243 163.596 201.691 162.902 202.115 162.228C204.408 158.601 203.665 149.858 202.956 144.62C203.576 144.695 209.057 145.032 209.628 145.032C210.313 145.032 210.313 145.032 209.628 145.032C210.313 145.032 215.681 144.695 216.301 144.62C215.599 149.865 214.865 158.615 217.157 162.241C219.05 165.228 221.375 168.611 223.838 172.198C227.435 177.429 231.384 183.179 234.761 188.848ZM254.175 142.2C254.126 143.663 253.71 149.609 253.604 150.397C253.604 150.404 253.604 150.411 253.604 150.411C253.596 150.465 252.193 157.516 251.907 158.702C251.899 158.743 251.891 158.783 251.883 158.81C251.866 158.878 251.85 158.945 251.826 159.012C251.589 159.868 251.328 160.725 251.051 161.574C250.993 161.749 250.936 161.918 250.879 162.093C250.651 162.774 250.414 163.455 250.161 164.129C250.088 164.331 250.015 164.533 249.933 164.729C249.639 165.497 249.338 166.266 249.011 167.027C248.987 167.081 248.962 167.142 248.946 167.196C248.587 168.045 248.204 168.895 247.804 169.73C247.755 169.845 247.698 169.953 247.641 170.061C247.298 170.775 246.939 171.483 246.572 172.191C246.483 172.353 246.401 172.521 246.311 172.683C245.912 173.438 245.496 174.186 245.063 174.934C245.039 174.982 245.006 175.029 244.982 175.076C244.5 175.912 243.995 176.734 243.473 177.557C243.44 177.604 243.407 177.658 243.375 177.705C242.902 178.44 242.412 179.175 241.915 179.896C241.825 180.031 241.727 180.165 241.629 180.3C241.123 181.022 240.609 181.736 240.079 182.451C240.038 182.498 240.006 182.552 239.965 182.599C239.361 183.401 238.741 184.19 238.105 184.972C234.956 179.855 231.465 174.773 228.259 170.108C225.82 166.555 223.512 163.198 221.66 160.28C220.167 157.927 220.649 149.797 221.546 143.67C221.546 143.67 221.546 143.67 221.554 143.67C222.378 143.481 223.194 143.272 224.001 143.043C224.018 143.036 224.034 143.036 224.05 143.03C224.376 142.935 224.695 142.841 225.013 142.74C225.347 142.639 225.673 142.537 226 142.43C229.32 141.344 232.452 139.935 235.332 138.257C235.356 138.243 235.381 138.23 235.405 138.21C236.074 137.819 236.735 137.408 237.371 136.983C237.379 136.976 237.387 136.969 237.395 136.963C240.022 135.23 242.412 133.255 244.508 131.085C244.525 131.064 244.549 131.044 244.566 131.024C245.063 130.505 245.544 129.979 246.009 129.433C246.034 129.399 246.067 129.372 246.091 129.339C246.572 128.779 247.029 128.199 247.478 127.613C247.633 127.404 247.78 127.188 247.926 126.979C249.077 125.388 250.096 123.73 250.953 121.998C250.953 121.998 250.953 121.998 250.953 121.991V121.998C251.197 122.733 251.426 123.481 251.638 124.222C251.687 124.391 251.736 124.559 251.777 124.728C251.94 125.321 252.103 125.914 252.25 126.507C252.29 126.683 253.008 130.033 253.269 131.361C253.302 131.536 253.326 131.678 253.343 131.772C253.343 131.786 253.571 133.309 253.669 134.064C253.702 134.293 253.718 134.516 253.751 134.745V134.752C253.808 135.284 254.126 140.407 254.167 141.715C254.167 141.809 254.175 141.884 254.175 141.931C254.183 142.025 254.175 142.106 254.175 142.2Z" fill="#306586"/>
<path d="M160.252 192.879C160.187 192.946 160.114 193.007 160.041 193.074C160.106 193.014 160.171 192.953 160.236 192.892C160.244 192.886 160.244 192.879 160.252 192.879Z" fill="#306586"/>
<path d="M184.521 207.621C183.24 207.19 181.796 207.702 181.274 208.754C179.822 211.713 177.905 212.691 176.355 212.967C175.336 213.149 174.463 213.028 173.99 212.96C173.696 212.92 173.427 212.859 173.158 212.798C172.464 212.664 171.812 212.495 171.208 212.286C168.761 211.41 167.097 209.88 166.249 207.723C166.192 207.581 166.11 207.446 166.02 207.318C165.572 206.684 164.748 206.293 163.875 206.293C163.622 206.293 163.361 206.327 163.108 206.395C161.942 206.705 161.256 207.655 161.411 208.626C161.428 208.747 161.46 208.869 161.509 208.99C163.092 213.028 166.779 215.778 171.959 216.809C172.342 216.883 172.734 216.958 173.133 217.012C173.484 217.059 173.827 217.099 174.169 217.126C175.222 217.2 176.241 217.16 177.212 217.005C180.981 216.405 184.04 214.086 185.899 210.298C186.405 209.253 185.793 208.053 184.521 207.621Z" fill="#306586"/>
<path d="M134.893 205.485C135.219 205.64 135.537 205.788 135.863 205.923C139.591 207.48 143.433 207.743 147.014 206.732C148.05 206.442 149.062 206.044 150.041 205.539C151.117 204.979 151.493 203.853 150.962 202.923C150.922 202.849 150.881 202.775 150.832 202.701C150.106 201.737 148.564 201.44 147.398 202.047C146.386 202.573 145.342 202.916 144.282 203.092C142.683 203.355 141.035 203.227 139.346 202.708C138.702 202.505 138.049 202.249 137.397 201.932C136.336 201.42 133.114 199.876 135.097 194.834C135.521 193.756 134.811 192.589 133.498 192.239C133.245 192.171 132.984 192.138 132.723 192.138C131.671 192.138 130.692 192.69 130.357 193.56C129.313 196.209 129.232 198.636 130.047 200.692C130.847 202.674 132.47 204.319 134.893 205.485Z" fill="#306586"/>
<path d="M93.836 184.008C92.4819 183.819 91.1931 184.588 90.9728 185.707C90.6139 187.507 89.423 188.774 87.3347 189.549C87.2123 189.596 87.0737 189.63 86.9432 189.677C86.7719 189.738 86.6006 189.798 86.4129 189.846C85.5891 190.075 83.4111 190.668 81.2494 187.655C81.0781 187.412 80.8579 187.217 80.605 187.062C80.605 187.062 80.605 187.062 80.5968 187.062C79.8138 186.576 78.7288 186.502 77.8315 186.94C76.6488 187.52 76.2572 188.781 76.9587 189.765C78.0028 191.214 79.2427 192.32 80.6295 193.061C80.6295 193.061 80.6295 193.061 80.6376 193.061C81.9999 193.789 83.5008 194.167 85.0752 194.167C85.6951 194.167 86.3232 194.106 86.9595 193.985C87.09 193.964 87.2205 193.937 87.351 193.91C87.5631 193.863 87.7752 193.816 87.9873 193.755C92.3759 192.549 95.182 189.927 95.8835 186.381C96.1119 185.255 95.1901 184.19 93.836 184.008Z" fill="#306586"/>
<path d="M102.956 183.192C104.147 183.617 105.355 183.859 106.562 183.94C106.839 183.96 107.125 183.974 107.402 183.974C109.947 183.974 112.46 183.205 114.736 181.695C115.307 181.318 115.796 180.9 116.22 180.462C117.134 179.511 117.705 178.433 117.917 177.267C118.21 175.615 117.794 173.775 116.644 171.867C116.024 170.849 114.532 170.438 113.3 170.944C112.068 171.456 111.571 172.69 112.182 173.707C114.083 176.849 112.288 178.035 111.619 178.48C109.441 179.929 107.255 180.226 104.947 179.404C104.596 179.275 104.237 179.228 103.878 179.242C102.94 179.269 102.067 179.72 101.668 180.475C101.113 181.527 101.692 182.74 102.956 183.192Z" fill="#306586"/>
</svg>
