<?xml version="1.0" encoding="utf-8"?>
<!-- Generator: Adobe Illustrator 24.3.0, SVG Export Plug-In . SVG Version: 6.00 Build 0)  -->
<svg version="1.1" xmlns="http://www.w3.org/2000/svg" xmlns:xlink="http://www.w3.org/1999/xlink" x="0px" y="0px"
	 viewBox="0 0 370.58 397.57" style="enable-background:new 0 0 370.58 397.57;" xml:space="preserve">
<style type="text/css">
	.st0{fill:#9FBFB7;}
	.st1{fill:#306586;}
	.st2{fill:none;stroke:#A6CC9F;stroke-width:2;stroke-miterlimit:10;}
	.st3{fill:#A6CC9F;}
	.st4{fill:#FFFFFF;}
	.st5{fill:#6AB391;}
	.st6{fill-rule:evenodd;clip-rule:evenodd;fill:#FFFFFF;}
	.st7{display:none;}
	.st8{display:inline;opacity:0.28;fill:#C9494E;}
	.st9{display:inline;opacity:0.28;fill:#A6CC9F;}
	.st10{fill:none;stroke:#9FBFB7;stroke-width:4;stroke-linecap:round;stroke-miterlimit:10;}
	.st11{fill:#C9494E;}
	.st12{fill:none;stroke:#9FBFB7;stroke-width:2;stroke-linecap:round;stroke-miterlimit:10;}
	.st13{fill:none;stroke:#9FBFB7;stroke-width:3;stroke-miterlimit:10;}
	.st14{fill:#FFFFFF;stroke:#666666;}
	.st15{fill:none;stroke:#DE928D;stroke-width:2;stroke-miterlimit:10;}
	.st16{clip-path:url(#SVGID_16_);fill:url(#SVGID_17_);}
	.st17{fill:#F4F6FA;}
	.st18{fill:#2BBFE8;}
	.st19{fill:#7E68C6;}
	.st20{fill:#CB479C;}
	.st21{fill:#FA9F3C;}
	.st22{fill:#F7BB40;}
	.st23{fill:#2A3942;}
	.st24{fill:#D7DEED;}
	.st25{fill:#57606F;}
	.st26{fill:#FEBE76;}
	.st27{fill:#AFB9D2;}
	.st28{fill:#E8A664;}
	.st29{fill:#FCD884;}
	.st30{fill:#EABF6A;}
	.st31{fill:#A28671;}
	.st32{fill:#60534A;}
	.st33{fill:#73665C;}
	.st34{fill:#8E725D;}
	.st35{fill:#FFE678;}
	.st36{fill:#B7C9F1;}
	.st37{fill:#3E3E3F;}
	.st38{fill:#EFF3F6;}
	.st39{fill:#DBDFE0;}
	.st40{fill:#FF7979;}
	.st41{fill:#414A56;}
	.st42{fill:#747371;}
	.st43{fill:#5B5A57;}
	.st44{fill:#E32929;}
	.st45{fill:#FD3B3B;}
	.st46{opacity:0.2;fill:#FFFFFF;}
	.st47{fill:none;stroke:#000000;stroke-width:1.8663;stroke-miterlimit:10;}
	.st48{fill:none;}
	.st49{fill:#231F20;}
	.st50{fill:none;stroke:#9FBFB7;stroke-width:10;stroke-miterlimit:10;}
	.st51{fill:#FD61AD;}
	.st52{fill:#333333;}
	.st53{fill:#58476B;}
	.st54{fill:#F5A2A6;}
	.st55{fill:#FFE475;}
	.st56{fill:#78C3D6;}
	.st57{fill:#9BC9FF;}
	.st58{fill:#1E81CE;}
	.st59{fill:#212121;}
	.st60{fill:#E04A4E;}
</style>
<g id="Capa_1">
</g>
<g id="margenes" class="st7">
</g>
<g id="Capa_3">
	<g>
		<path class="st0" d="M309.13,45.95c-0.52-1.9-2.02-3.36-3.92-3.84c-1.9-0.48-3.92,0.1-5.27,1.53
			C284,60.39,267.56,69.6,251.2,76.18c-20.18-11.4-43.75-17.96-68.92-17.96c-6.89,0-13.65,0.49-20.27,1.44
			c-20.74-19.87-48.77-26.51-50.38-26.88c-1.88-0.43-3.82,0.42-4.77,2.1c-0.01,0.02-0.02,0.04-0.04,0.06
			c-0.66,1.18-6.55,11.88-10.5,26.94c-2.22,8.46-3.83,18.3-3.56,28.58c-7.01,5.9-13.36,12.47-18.94,19.62
			c-0.77-1.22-1.51-2.48-2.23-3.78c-1.03-1.89-3.06-2.98-5.25-2.8c-2.15,0.19-3.99,1.63-4.68,3.68
			c-6.28,18.57-10.24,37.33-11.92,55.4c-1.44,7.44-2.2,15.11-2.2,22.94c0,12.06,1.82,23.96,5.31,35.36
			c3.53,15.62,9.35,29.51,17.42,40.75c7.64,10.65,17.22,18.89,28.42,24.58l83.49,78.7l88.26-83.2
			c27.8-22.77,44.45-55.11,46.35-89.56C325.64,157.62,326.67,110.21,309.13,45.95z M263.58,273.58l-81.38,76.7l-59.68-56.25
			c5.71,1,11.7,1.52,17.93,1.52c3,0,5.44-2.44,5.44-5.44c0-2.66-1.91-4.87-4.42-5.34c-0.33-0.06-0.67-0.1-1.02-0.1
			c-13.6,0-25.62-2.57-35.99-7.66c-10-4.91-18.47-12.15-25.33-21.72c-7.02-9.78-12.17-21.83-15.41-35.41
			c-4.1-17.17-5.15-36.8-3.08-57.44c1.33-13.31,3.97-27.04,7.92-40.81c1.78,2.38,3.64,4.61,5.59,6.73
			c13.52,14.71,30.79,23.58,47.64,32.23c12.35,6.34,25.11,12.89,36.15,21.67c17.61,14,27.36,29.47,31.16,43.33
			c1.59,5.81,2.14,11.33,1.77,16.34c-0.24,3.26-0.85,6.3-1.82,9.06c-0.91,2.62-2.13,4.93-3.62,6.93c-2.59,2.3-5.58,4.6-8.8,6.85
			c-2.57,1.03-5.4,1.57-8.46,1.57c-26.16,0-65.09-38.38-79.14-93.46c-0.74-2.91-3.68-4.68-6.62-3.93c-2.91,0.74-4.67,3.71-3.93,6.62
			c12.74,49.95,47.68,92.87,79.84,100.47c3.32,0.78,6.61,1.19,9.84,1.19c10.69,0,19.8-4.56,25.85-12.6
			c2.19-2.91,3.99-6.27,5.31-10.05c5.24-15.02,2.56-36.45-12.16-57.39c-5.64-8.02-13.05-15.97-22.46-23.45
			c-11.88-9.45-25.14-16.26-37.96-22.84c-17.39-8.93-34-17.47-46.36-31.9c4.11-5.55,8.72-10.75,13.77-15.55
			c0.25,1.27,0.53,2.53,0.85,3.8c0.42,1.64,1.71,2.83,3.26,3.18c0.65,0.15,1.35,0.15,2.04-0.02c2.34-0.58,3.75-2.96,3.16-5.3
			c-0.71-2.8-1.21-5.63-1.53-8.44c-0.5-4.41-0.57-8.81-0.32-13.08c1.09-18.53,8.13-34.91,11.3-41.42
			c6.92,2.05,23.66,7.86,38.06,19.51c3.31,2.68,6.5,5.67,9.41,8.99c3.71,4.23,6.98,9.01,9.5,14.37c0.79,1.67,1.5,3.4,2.13,5.19
			c0.8,2.27,3.3,3.46,5.57,2.66c0.11-0.04,0.21-0.08,0.31-0.12c2.07-0.91,3.12-3.28,2.35-5.45c-2.37-6.73-5.71-12.68-9.64-17.95
			c3.83-0.34,7.71-0.52,11.64-0.52c19.88,0,38.69,4.43,55.36,12.28c-3.84,1.3-7.68,2.52-11.49,3.74
			c-30.56,9.78-59.42,19.02-78.37,60.66c-1.24,2.74-0.04,5.96,2.7,7.21c2.73,1.25,5.96,0.04,7.21-2.7
			c12.01-26.4,28.28-38.17,47.2-46.14c7.78-3.28,16.01-5.91,24.58-8.66c6.79-2.17,13.83-4.43,21.01-7.13
			c3.93-1.48,7.9-3.09,11.89-4.9c12.8-5.79,25.87-13.58,38.62-25.36c9.25,36.74,12.11,67.4,10.89,92.89
			c-0.69,14.55-2.71,27.42-5.62,38.77c-5.54,21.6-14.31,37.72-23.32,49.52c-24.83,32.52-59.92,44.8-85.48,45.57
			c-0.87,0.03-1.74,0.04-2.59,0.04c-3,0-5.44,2.44-5.44,5.44c0,3.01,2.44,5.44,5.44,5.44c21.84,0,50.77-7.78,75.74-28.18
			C268.37,269.51,266.02,271.59,263.58,273.58z"/>
		<path class="st0" d="M211.2,216.01c0.91,0,1.83-0.23,2.67-0.7c32.3-18.25,57.67-53.14,70.25-96.33c0.6-2.05,1.16-4.11,1.7-6.19
			c0.75-2.91-1-5.88-3.91-6.63c-2.5-0.65-5.03,0.55-6.17,2.74c-0.19,0.36-0.35,0.75-0.46,1.17c-11,42.56-35.96,78.36-66.77,95.77
			c-2.61,1.48-3.54,4.8-2.06,7.42C207.46,215.01,209.3,216.01,211.2,216.01z"/>
		<path class="st0" d="M149.48,114.27l-6.98-15.85l-6.13-13.92c-0.97-2.21-3.55-3.21-5.76-2.23c-2.21,0.97-3.21,3.55-2.23,5.76
			l6.27,14.23l6.85,15.54c0.97,2.21,3.55,3.21,5.76,2.23C149.45,119.05,150.45,116.47,149.48,114.27z"/>
	</g>
</g>
</svg>
