<?xml version="1.0" encoding="utf-8"?>
<!-- Generator: Adobe Illustrator 24.3.0, SVG Export Plug-In . SVG Version: 6.00 Build 0)  -->
<svg version="1.1" id="Capa_1" xmlns="http://www.w3.org/2000/svg" xmlns:xlink="http://www.w3.org/1999/xlink" x="0px" y="0px"
	 viewBox="0 0 135.96 165.65" style="enable-background:new 0 0 135.96 165.65;" xml:space="preserve">
<style type="text/css">
	.st0{fill:#306586;}
</style>
<g>
	<path class="st0" d="M126.42,10.7c-0.24-0.89-0.95-1.59-1.85-1.81c-0.9-0.23-1.85,0.05-2.49,0.72c-7.52,7.91-15.28,12.25-23,15.36
		c-9.52-5.38-20.65-8.48-32.53-8.48c-3.25,0-6.44,0.23-9.56,0.68C47.21,7.79,33.98,4.65,33.22,4.48c-0.89-0.2-1.8,0.2-2.25,0.99
		c0,0.01-0.01,0.02-0.02,0.03c-0.31,0.56-3.09,5.61-4.96,12.71c-1.05,3.99-1.81,8.63-1.68,13.49c-3.31,2.78-6.3,5.89-8.94,9.26
		c-0.36-0.58-0.71-1.17-1.05-1.78c-0.49-0.89-1.44-1.41-2.48-1.32c-1.01,0.09-1.88,0.77-2.21,1.74c-2.96,8.77-4.83,17.62-5.63,26.14
		c-0.68,3.51-1.04,7.13-1.04,10.83c0,5.69,0.86,11.31,2.51,16.69c1.67,7.37,4.41,13.93,8.22,19.23c3.61,5.03,8.12,8.91,13.41,11.6
		l39.4,37.14l41.65-39.26c13.12-10.75,20.98-26.01,21.87-42.27C134.22,63.4,134.7,41.02,126.42,10.7z M104.93,118.12l-38.4,36.19
		l-28.16-26.55c2.7,0.47,5.52,0.72,8.46,0.72c1.42,0,2.57-1.15,2.57-2.57c0-1.25-0.9-2.3-2.09-2.52c-0.16-0.03-0.32-0.05-0.48-0.05
		c-6.42,0-12.09-1.21-16.98-3.61c-4.72-2.31-8.72-5.73-11.95-10.25c-3.31-4.62-5.74-10.3-7.27-16.71
		c-1.93-8.1-2.43-17.37-1.45-27.11c0.63-6.28,1.87-12.76,3.74-19.26c0.84,1.12,1.72,2.18,2.64,3.18
		c6.38,6.94,14.53,11.13,22.48,15.21c5.83,2.99,11.85,6.09,17.06,10.23c8.31,6.61,12.91,13.91,14.7,20.45
		c0.75,2.74,1.01,5.35,0.84,7.71c-0.11,1.54-0.4,2.97-0.86,4.28c-0.43,1.24-1.01,2.33-1.71,3.27c-1.22,1.08-2.63,2.17-4.15,3.23
		c-1.21,0.49-2.55,0.74-3.99,0.74c-12.34,0-30.72-18.11-37.35-44.11c-0.35-1.37-1.74-2.21-3.12-1.85c-1.37,0.35-2.2,1.75-1.85,3.12
		c6.01,23.57,22.5,43.83,37.68,47.41c1.57,0.37,3.12,0.56,4.64,0.56c5.04,0,9.34-2.15,12.2-5.94c1.04-1.37,1.88-2.96,2.5-4.74
		c2.47-7.09,1.21-17.2-5.74-27.08c-2.66-3.78-6.16-7.54-10.6-11.07c-5.61-4.46-11.86-7.67-17.91-10.78
		c-8.21-4.21-16.05-8.24-21.88-15.05c1.94-2.62,4.12-5.08,6.5-7.34c0.12,0.6,0.25,1.19,0.4,1.79c0.2,0.78,0.81,1.33,1.54,1.5
		c0.31,0.07,0.64,0.07,0.96-0.01c1.1-0.27,1.77-1.4,1.49-2.5c-0.33-1.32-0.57-2.66-0.72-3.98c-0.24-2.08-0.27-4.16-0.15-6.17
		c0.51-8.75,3.84-16.48,5.33-19.55C37.1,9.88,45,12.62,51.8,18.12c1.56,1.26,3.07,2.67,4.44,4.24c1.75,2,3.29,4.25,4.48,6.78
		c0.37,0.79,0.71,1.6,1.01,2.45c0.38,1.07,1.56,1.64,2.63,1.26c0.05-0.02,0.1-0.04,0.15-0.06c0.98-0.43,1.47-1.55,1.11-2.57
		c-1.12-3.17-2.69-5.99-4.55-8.47c1.81-0.16,3.64-0.24,5.49-0.24c9.38,0,18.26,2.09,26.13,5.79c-1.81,0.61-3.62,1.19-5.42,1.77
		c-14.42,4.62-28.04,8.98-36.98,28.62c-0.59,1.29-0.02,2.81,1.27,3.4c1.29,0.59,2.81,0.02,3.4-1.27
		c5.67-12.46,13.34-18.01,22.27-21.78c3.67-1.55,7.56-2.79,11.6-4.09c3.2-1.03,6.53-2.09,9.91-3.37c1.85-0.7,3.73-1.46,5.61-2.31
		c6.04-2.73,12.21-6.41,18.23-11.97c4.37,17.34,5.71,31.81,5.14,43.83c-0.33,6.87-1.28,12.94-2.65,18.3
		c-2.61,10.19-6.75,17.8-11.01,23.37c-11.72,15.35-28.28,21.14-40.34,21.51c-0.41,0.01-0.82,0.02-1.22,0.02
		c-1.42,0-2.57,1.15-2.57,2.57c0,1.42,1.15,2.57,2.57,2.57c10.3,0,23.96-3.67,35.74-13.3C107.19,116.2,106.08,117.18,104.93,118.12z
		"/>
	<path class="st0" d="M80.21,90.95c0.43,0,0.86-0.11,1.26-0.33c15.24-8.61,27.22-25.08,33.15-45.46c0.28-0.97,0.55-1.94,0.8-2.92
		c0.35-1.37-0.47-2.77-1.84-3.13c-1.18-0.31-2.37,0.26-2.91,1.29c-0.09,0.17-0.16,0.36-0.22,0.55
		c-5.19,20.08-16.97,36.98-31.51,45.19c-1.23,0.7-1.67,2.26-0.97,3.5C78.44,90.48,79.31,90.95,80.21,90.95z"/>
	<path class="st0" d="M51.08,42.94l-3.3-7.48l-2.89-6.57c-0.46-1.04-1.68-1.51-2.72-1.05c-1.04,0.46-1.51,1.68-1.05,2.72l2.96,6.71
		l3.23,7.33c0.46,1.04,1.68,1.51,2.72,1.05C51.07,45.2,51.54,43.98,51.08,42.94z"/>
</g>
</svg>
