<svg width="298" height="268" viewBox="0 0 298 268" fill="none" xmlns="http://www.w3.org/2000/svg">
<path d="M162.717 227.48C161.518 226.921 160.001 227.285 159.324 228.275C158.231 229.893 156.608 231.188 154.487 232.131C150.849 233.749 145.946 233.884 141.37 232.502C136.794 231.113 133.156 228.39 131.647 225.215C130.766 223.361 130.537 221.508 130.97 219.687C131.231 218.568 130.358 217.49 129.004 217.267C128.841 217.241 128.677 217.227 128.522 217.227C127.356 217.227 126.312 217.908 126.083 218.892C125.463 221.494 125.773 224.13 127.013 226.725C129.069 231.046 133.678 234.558 139.665 236.371C145.644 238.185 151.917 237.962 156.861 235.765C159.83 234.443 162.13 232.603 163.696 230.284C164.349 229.287 163.917 228.033 162.717 227.48Z" fill="#9FBFB7"/>
<path d="M254.208 109.318C254.2 109.514 254.2 109.507 254.208 109.318C254.217 109.048 254.241 108.287 254.241 108.179C254.241 106.406 254.192 104.68 254.086 102.988C253.026 86.6348 246.214 73.9146 221.841 63.028C220.976 62.6437 220.087 62.2527 219.173 61.8753C217.99 61.3764 216.75 60.8776 215.486 60.3855C214.923 60.1631 214.352 59.9473 213.773 59.7316C213.145 59.4957 212.517 59.2598 211.889 59.0306C208.389 57.7431 204.8 56.5229 201.448 55.4242C193.413 52.7952 186.781 50.9212 186.316 50.7864L181.307 49.3708L182.221 51.4403L182.874 52.93L183.265 53.8468C183.355 54.0692 184.432 57.797 184.611 58.862C177.775 57.1498 170.654 55.9432 163.321 55.2961L163.533 44.9015C163.623 44.8341 163.704 44.7667 163.794 44.6993C166.673 42.3669 168.272 39.3942 168.598 35.7743L168.965 15.3222C169.088 8.50714 162.742 3.15482 154.495 3.12112L144.698 3.08067C140.57 3.06719 136.94 4.32775 134.061 6.66012C131.181 8.99249 129.582 11.9652 129.517 15.3762V15.5919L113.782 15.5042C111.204 15.4975 109.108 17.1895 109.067 19.3196C109.026 21.4498 111.057 23.162 113.635 23.1755L129.362 23.2429L129.281 27.9278L113.554 27.8604C110.976 27.8537 108.879 29.5456 108.839 31.6758C108.798 33.8059 110.829 35.5181 113.407 35.5316L129.134 35.599V35.808C129.069 39.3672 130.79 42.6838 133.865 45.0161L133.669 55.714C126.083 56.6173 118.742 58.1205 111.734 60.1563C111.734 60.1496 111.726 60.1496 111.726 60.1428C111.384 59.5227 107.998 53.9816 107.215 52.8289C105.429 50.1999 103.471 47.5912 101.31 44.9959C101.301 44.9892 101.301 44.9824 101.293 44.9757C100.779 44.3555 100.249 43.7421 99.7107 43.1287C99.7026 43.1219 99.6944 43.1152 99.6944 43.1084C96.3663 39.2998 92.6139 35.5384 88.3967 31.8376C87.793 31.3118 87.1812 30.7792 86.5613 30.2534C86.5531 30.2467 86.545 30.24 86.545 30.24L86.5205 25.0966C86.5205 25.0966 77.7515 31.7971 77.3436 32.1274C77.1234 32.3027 75.9814 33.2397 75.6306 33.5296C75.4022 33.7183 75.182 33.907 74.9536 34.0958C74.6191 34.3722 74.2928 34.6553 73.9665 34.9317C73.7381 35.1272 71.9028 36.745 71.6907 36.9405C71.3807 37.2169 71.0789 37.4932 70.7852 37.7696C70.5731 37.9651 70.3611 38.1606 70.149 38.3628C69.8471 38.6459 66.5598 41.8614 66.2335 42.1917C66.0948 42.34 62.1712 46.5935 61.8939 46.9103C61.7307 47.0991 61.5757 47.2878 61.4126 47.4766C61.1679 47.7664 56.4448 53.84 56.2491 54.1164C56.1022 54.3186 51.9584 60.8371 51.8523 61.0259C51.681 61.3225 51.5179 61.6191 51.3547 61.909C51.2405 62.1179 51.1345 62.3202 51.0203 62.5291C50.8735 62.8055 50.7266 63.0751 50.5798 63.3515C50.4656 63.5672 50.3596 63.7829 50.2454 63.9987C50.1067 64.2616 49.9762 64.5244 49.8457 64.7873C49.7396 65.0098 49.6254 65.2255 49.5194 65.448C49.3888 65.7109 49.2665 65.967 49.1441 66.2299C49.0381 66.4524 48.932 66.6748 48.8342 66.8973C48.7118 67.1534 48.5976 67.4163 48.4834 67.6725C48.3855 67.8949 48.2876 68.1174 48.1897 68.3398C48.0755 68.596 47.9695 68.8589 47.8553 69.115C47.7656 69.3375 47.6677 69.5532 47.5779 69.7757C47.4719 70.0385 47.3659 70.3082 47.2598 70.5711C47.1782 70.7868 47.0885 70.9958 47.0069 71.2115C46.9009 71.4946 46.7949 71.771 46.6888 72.0473C46.6154 72.2428 46.542 72.4451 46.4686 72.6406C46.3299 73.0315 46.1912 73.4225 46.0607 73.8067C45.971 74.0696 45.6121 75.1684 45.5223 75.4583C45.4489 75.6807 45.1634 76.6312 45.09 76.8806C45.0247 77.1165 44.9595 77.3525 44.8942 77.5884C44.829 77.8243 44.3885 79.4894 44.3314 79.7253C44.2743 79.968 44.2172 80.2106 44.1601 80.4533C44.103 80.6825 43.7522 82.3273 43.7033 82.5498C43.6543 82.7992 43.2301 85.1383 43.1975 85.354C43.1567 85.6034 43.1159 85.8596 43.0833 86.109C43.0507 86.3112 43.0262 86.5134 43.0017 86.7157C42.961 86.9853 42.9283 87.2482 42.8957 87.5178C42.8875 87.5785 42.7162 89.0548 42.651 89.7356C42.6347 89.8974 42.3492 94.8992 42.3492 95.1688C42.3492 95.3576 42.3492 97.636 42.3492 97.9124C42.3492 98.0809 42.4634 100.824 42.4715 100.919C42.5449 102.092 42.6428 103.258 42.7652 104.417C42.7652 104.451 42.7733 104.492 42.7733 104.525C42.806 104.856 43.8664 111.65 43.9235 111.954C43.948 112.068 44.3966 114.172 44.4782 114.522C40.7993 123.157 38.8008 132.386 38.8008 141.978C38.8008 162.066 47.6758 181.48 63.8761 197.018L67.1063 199.991C70.0184 202.539 73.1508 204.986 76.4382 207.257L150.489 264.946L223.7 207.911C248.237 191.308 262.3 167.284 262.3 141.985C262.341 130.431 259.445 119.409 254.208 109.318ZM248.759 100.319C248.759 100.326 248.759 100.326 248.759 100.319L248.751 100.312C248.759 100.319 248.759 100.319 248.759 100.319ZM220.707 139.538C220.47 139.598 219.353 139.841 219.034 139.909C218.798 139.956 218.561 140.01 218.325 140.05C217.999 140.111 215.143 140.529 214.915 140.556C214.548 140.596 213.39 140.704 213.178 140.717C212.762 140.751 211.13 140.819 210.991 140.825C210.543 140.839 210.086 140.852 209.637 140.852C205.306 140.852 201.138 140.273 197.238 139.201C197.214 139.194 197.189 139.187 197.165 139.18C196.398 138.972 195.64 138.736 194.897 138.486C192.719 137.758 190.639 136.882 188.673 135.857C187.939 135.48 187.23 135.069 186.528 134.651C186.104 134.401 185.688 134.145 185.272 133.882C184.864 133.619 184.464 133.336 184.073 133.06C183.412 132.601 182.767 132.123 182.148 131.631C182.107 131.597 182.066 131.57 182.025 131.536C182.009 131.523 182.001 131.516 181.984 131.503C178.624 128.779 175.858 125.564 173.835 122.005C172.808 120.198 171.959 118.304 171.339 116.335C171.331 116.295 171.315 116.255 171.307 116.221C170.515 113.646 170.091 110.956 170.091 108.186C170.091 105.442 170.442 103.022 171.037 100.811C171.356 99.6515 171.739 98.546 172.179 97.4944C172.701 96.2609 173.297 95.0879 173.958 93.9689C174.79 92.5601 175.712 91.2119 176.69 89.9041V95.8025V100.953V101.559C176.69 101.741 176.707 101.923 176.731 102.099C176.739 102.152 176.739 102.213 176.739 102.267C176.747 102.334 176.829 102.813 176.878 102.982C176.894 103.049 176.911 103.11 176.927 103.177C177.057 103.622 177.237 104.053 177.465 104.465C177.498 104.525 177.531 104.579 177.571 104.64C177.661 104.788 179.007 106.406 179.668 106.871L181.511 107.862C181.878 108.01 182.254 108.138 182.645 108.24C182.735 108.266 184.391 108.556 185.158 108.556C185.451 108.556 185.737 108.543 186.022 108.523C186.593 108.475 187.14 108.381 187.67 108.246C187.686 108.24 187.703 108.233 187.719 108.233C191.137 107.329 193.617 104.687 193.617 101.566V96.2069C193.617 94.6161 195.183 93.3218 197.116 93.3218C198.56 93.3218 199.8 94.0498 200.33 95.0879C200.338 95.0947 200.338 95.1081 200.338 95.1149C200.509 95.4519 200.599 95.8227 200.599 96.2069V114.286C200.599 115.203 200.819 116.079 201.211 116.881C201.333 117.131 201.464 117.38 201.627 117.616C201.847 117.953 202.116 118.277 202.402 118.58C203.373 119.605 204.678 120.407 206.179 120.859C206.448 120.939 206.725 121.007 207.011 121.068C207.092 121.088 207.174 121.101 207.264 121.115C207.37 121.135 207.476 121.148 207.59 121.162C207.696 121.175 207.802 121.196 207.916 121.209C208.006 121.216 208.088 121.229 208.177 121.236C208.471 121.263 208.773 121.283 209.083 121.283C213.749 121.283 217.55 118.142 217.55 114.286V86.473C217.55 85.6776 217.941 84.9563 218.578 84.4305C219.214 83.9047 220.087 83.5811 221.049 83.5811L221.963 83.6957C223.064 83.9451 223.953 84.626 224.329 85.509V85.5158C224.394 85.6641 224.443 85.8124 224.475 85.9607C224.508 86.1225 224.541 86.291 224.541 86.4662V107.276C224.541 108.725 225.079 110.066 225.993 111.185C226.066 111.28 226.156 111.361 226.229 111.448C226.474 111.718 226.735 111.981 227.02 112.217C227.053 112.244 227.094 112.271 227.126 112.298C227.551 112.635 228.016 112.938 228.521 113.194C228.791 113.336 229.068 113.457 229.353 113.572C229.541 113.646 229.729 113.713 229.916 113.781C230.308 113.909 230.716 114.01 231.132 114.091C231.735 114.205 232.355 114.266 233 114.266C233.587 114.266 234.158 114.219 234.705 114.124C238.563 113.47 241.467 110.646 241.467 107.269V103.393V102.759C241.467 101.168 243.033 99.874 244.958 99.874C246.883 99.874 248.458 101.168 248.458 102.759V114.232C248.392 114.529 248.311 114.825 248.229 115.122C248.197 115.23 248.172 115.338 248.148 115.446C248.099 115.621 248.05 115.789 248.001 115.958C247.911 116.248 247.829 116.531 247.732 116.821C247.674 116.989 247.617 117.158 247.552 117.333C247.454 117.616 247.348 117.899 247.242 118.176C247.177 118.344 247.103 118.513 247.038 118.681C246.924 118.958 246.81 119.227 246.687 119.497C246.614 119.665 246.532 119.834 246.451 120.002C246.329 120.272 246.198 120.535 246.059 120.798C245.978 120.966 245.888 121.128 245.798 121.297C245.66 121.56 245.521 121.816 245.374 122.072C245.284 122.234 245.187 122.402 245.089 122.564C244.942 122.813 244.787 123.07 244.624 123.312C244.518 123.474 244.412 123.636 244.306 123.798C244.142 124.04 243.588 124.842 243.465 125.004C243.294 125.24 243.115 125.476 242.935 125.705C242.813 125.86 242.193 126.629 242.005 126.851C241.875 127.006 241.744 127.161 241.614 127.31C241.418 127.532 240.749 128.26 240.602 128.408C240.398 128.617 239.109 129.878 238.897 130.073C238.742 130.215 237.429 131.348 237.258 131.482C237.029 131.664 232.323 134.887 232.127 135.001C231.874 135.149 231.605 135.291 231.344 135.433C231.14 135.547 230.202 136.039 229.933 136.167C229.72 136.275 229.517 136.376 229.296 136.477C229.027 136.605 228.048 137.05 227.828 137.145C227.551 137.266 227.273 137.381 226.988 137.495C226.8 137.596 221.017 139.464 220.707 139.538ZM221.555 143.697C221.547 143.697 221.547 143.697 221.555 143.697ZM195.901 164.789C195.313 163.172 195.746 155.399 192.907 149.373C191.822 147.067 185.378 139.16 184.309 137.637C192.679 142.585 197.565 143.528 198.976 143.852C198.976 143.852 203.462 158.601 195.901 164.789ZM187.597 74.6831C187.792 74.2921 189.701 68.2859 189.823 67.4837C189.823 67.477 189.823 67.4702 189.823 67.4635C190.199 64.9019 189.921 60.3046 189.921 60.3046C189.913 60.2574 189.595 58.0397 189.595 58.0329C189.538 57.7161 189.399 57.0285 189.391 56.9881C189.334 56.7184 189.269 56.4555 189.212 56.2061C189.204 56.1589 189.187 56.1117 189.179 56.0713C194.979 57.8105 205.314 61.0394 213.855 64.3829C214.866 64.7806 215.853 65.1783 216.799 65.576C216.824 65.5895 216.848 65.5963 216.873 65.6097C217.069 65.6906 217.248 65.7715 217.444 65.8524C218.015 66.0951 218.586 66.3378 219.132 66.5872C225.063 69.2161 229.875 71.9328 233.758 74.7842C234.647 75.4381 235.496 76.0987 236.287 76.766C236.727 77.1368 238.31 78.5793 238.661 78.9231C238.791 79.0512 238.914 79.1793 239.036 79.3006C239.264 79.5365 239.999 80.305 240.129 80.4533C240.325 80.669 240.977 81.424 241.116 81.5791C241.287 81.788 241.899 82.543 242.022 82.7115C242.177 82.9205 242.739 83.6822 242.862 83.8575C243.009 84.0665 243.898 85.4349 244.028 85.6439C244.134 85.8259 246.051 89.6075 246.133 89.7895C246.231 90.0187 247.397 93.3825 247.446 93.5577C247.519 93.8206 247.74 94.643 247.781 94.8318C247.781 94.8385 247.781 94.8453 247.789 94.852C247.887 95.2362 248.074 96.1125 248.091 96.1597C248.074 96.153 247.617 96.0182 247.405 95.9642C247.218 95.9171 245.758 95.6946 245.276 95.6811C245.178 95.6811 245.08 95.6676 244.983 95.6676C242.062 95.6676 239.493 96.881 237.943 98.728C237.861 98.8224 237.103 99.9819 237.062 100.076C236.972 100.251 236.589 101.384 236.573 101.458C236.54 101.6 236.466 102.031 236.466 102.099C236.442 102.314 236.426 102.53 236.426 102.752V107.262C236.426 108.812 234.9 110.066 233.032 110.066C232.013 110.066 231.099 109.689 230.471 109.102C230.381 109.015 230.291 108.927 230.218 108.826C229.851 108.381 229.639 107.835 229.639 107.255V89.9918V86.4595C229.639 82.5565 225.797 79.3815 221.074 79.3815C219.606 79.3815 218.219 79.6916 217.003 80.2309C216.718 80.3589 216.449 80.5072 216.179 80.6623C216.163 80.669 216.147 80.6758 216.131 80.6892C216.057 80.7297 215.992 80.7769 215.918 80.8173C215.698 80.9521 215.494 81.0937 215.29 81.2487C215.233 81.2959 215.168 81.3364 215.111 81.3836C214.866 81.5791 214.638 81.788 214.418 82.0037C214.385 82.0374 214.36 82.0711 214.328 82.1049C214.148 82.2936 213.977 82.4891 213.822 82.6981C213.773 82.7655 213.724 82.8329 213.675 82.9003C213.528 83.1025 213.398 83.3182 213.276 83.5339C213.251 83.5811 213.227 83.6216 213.202 83.662C213.063 83.9249 212.949 84.1878 212.851 84.4642C212.827 84.5316 212.811 84.599 212.786 84.6664C212.713 84.8821 212.656 85.1046 212.615 85.3338C212.598 85.4147 212.582 85.4955 212.574 85.5764C212.533 85.8663 212.501 86.1629 212.501 86.4662V114.279C212.501 115.823 210.975 117.084 209.107 117.084C207.933 117.084 206.905 116.592 206.293 115.843C206.244 115.789 206.22 115.729 206.179 115.668C206.113 115.567 206.032 115.473 205.983 115.365C205.812 115.028 205.714 114.664 205.714 114.273V96.1934C205.714 95.0812 205.396 94.0363 204.841 93.0993C204.686 92.8364 204.515 92.587 204.327 92.3444C204.303 92.3107 204.278 92.2769 204.254 92.2432C202.712 90.3625 200.102 89.1154 197.149 89.1154C192.426 89.1154 188.575 92.2904 188.575 96.1934V101.552C188.575 103.062 187.123 104.289 185.313 104.35C185.272 104.35 185.231 104.363 185.182 104.363C184.546 104.363 183.95 104.208 183.445 103.952C183.208 103.831 182.98 103.703 182.784 103.541C182.172 103.036 181.789 102.334 181.789 101.559V100.177V83.5137C183.893 80.8241 185.957 77.9861 187.597 74.6831ZM163.174 62.0573C170.695 62.7718 177.963 64.1065 184.905 66.0075C184.88 66.2838 184.799 66.8703 184.799 66.877C184.758 67.1467 183.363 72.0945 183.314 72.2091C183.241 72.3844 182.963 72.9709 182.906 73.0855C180.973 76.975 178.395 80.15 175.671 83.507C173.582 86.082 171.478 88.6975 169.683 91.6298C167.456 90.5647 165.099 89.6615 162.627 88.9267L163.174 62.0573ZM138.531 15.6121C138.555 14.3313 139.094 13.0573 140.138 12.2079C141.443 11.1496 142.748 10.5159 144.037 10.7317L154.087 10.9878C157.178 11.0013 159.715 13.1449 159.674 15.6997L159.299 36.1518C159.275 37.4326 158.736 38.7066 157.692 39.556C157.17 39.9806 156.909 40.1896 156.126 40.3986C155.351 40.6075 154.568 40.8165 153.54 40.8098L143.743 40.7693C142.707 40.7626 141.941 40.5536 141.174 40.3312C139.126 39.4683 138.123 37.7629 138.156 36.0574L138.531 15.6121ZM151.607 165.659L140.66 165.612C140.693 165.41 143.45 48.0159 143.621 48.0159C143.621 48.0159 153.924 48.0968 154.176 48.1102C154.168 48.1102 151.566 165.45 151.607 165.659ZM133.555 62.5561L133.082 88.6571C129.077 89.7828 125.349 91.3467 121.947 93.2679C121.123 84.4103 118.913 75.3774 114.859 66.3917C120.854 64.6862 127.103 63.392 133.555 62.5561ZM122.331 102.227C125.267 99.9144 128.848 97.9731 132.927 96.5035L131.524 161.527L121.197 161.486C120.291 161.48 119.443 161.695 118.725 162.059L117.926 160.853C116.808 159.154 114.744 158.008 112.42 157.786C110.095 157.57 107.778 158.298 106.22 159.747C106.098 159.855 105.975 159.963 105.861 160.077C114.206 144.62 122.159 124.189 122.331 102.227ZM96.1542 164.088C95.265 165.571 94.3922 166.987 93.5275 168.335C92.8179 168.713 92.1816 169.043 91.6432 169.313C90.5175 169.879 89.8242 170.196 89.7997 170.209C89.7671 170.223 88.8127 170.647 87.2465 171.267L87.0099 122.928L114.753 104.303L115.544 103.77C115.495 105.948 115.364 108.105 115.16 110.248C114.573 116.517 113.374 122.611 111.767 128.442C111.074 130.957 110.307 133.424 109.475 135.83C109.206 136.619 108.92 137.408 108.635 138.183C105.046 148.018 100.502 156.828 96.1542 164.088ZM102.753 57.7228C103.7 59.2058 108.496 68.414 108.529 68.4072C112.779 77.8648 114.883 87.3898 115.422 96.699L86.9691 115.796L86.7407 69.0813L102.753 57.7228ZM86.5939 38.4504C87.2057 39.0302 87.8093 39.6099 88.4048 40.1896C88.4211 40.2098 88.4456 40.2301 88.4619 40.2435C91.8472 43.5668 94.8409 46.9373 97.5164 50.3415C98.1445 51.1437 98.7645 51.9458 99.36 52.7547C99.3681 52.7682 99.3763 52.7817 99.3926 52.7952L86.7163 61.7809L86.5939 38.4504ZM80.5005 166.279C73.9258 159.039 63.2724 145.834 56.192 129.527L80.3944 145.416L80.5005 166.279ZM53.5001 72.2294C54.2913 70.261 55.1886 68.3129 56.1838 66.385C56.2164 66.3243 59.1204 61.2012 59.2917 60.9315C59.6098 60.4192 60.6621 58.8283 60.8579 58.5317C61.1923 58.0397 61.5268 57.5476 61.8694 57.0622C62.0815 56.7589 62.3099 56.4623 62.5301 56.1589C62.8809 55.6803 63.2235 55.2017 63.5906 54.7231C63.7945 54.4602 64.0066 54.1973 64.2105 53.9344C64.8631 53.0985 65.532 52.2694 66.2253 51.4403C66.5679 51.0291 67.8976 49.4921 68.2239 49.1349C68.5991 48.7169 71.1523 45.9868 71.5765 45.5621C71.9028 45.2318 72.2291 44.9015 72.5553 44.578C73.0121 44.1263 73.469 43.6814 73.9339 43.2365C74.252 42.9332 74.562 42.6298 74.8802 42.3332C75.4104 41.8344 75.9569 41.3423 76.5034 40.8435C76.7726 40.5941 77.0418 40.3514 77.3192 40.102C78.1512 39.3605 78.9995 38.6257 79.8724 37.8977L80.1252 90.3625L53.2717 72.7889C53.3451 72.5934 53.4267 72.4114 53.5001 72.2294ZM48.9484 91.8927C48.9647 91.65 48.981 91.4141 49.0055 91.1782C49.0707 90.3625 49.1523 89.5469 49.2502 88.7312C49.2828 88.4683 49.3154 88.2054 49.3481 87.9425C49.4541 87.1269 49.5846 86.3179 49.7233 85.509C49.7641 85.2731 49.7967 85.0372 49.8457 84.808C50.017 83.871 51.004 79.6242 51.3058 78.5793C51.3058 78.5793 51.3058 78.5793 51.3058 78.5726L64.0066 86.8842C64.0718 86.8168 64.1453 86.7561 64.2187 86.6887L64.2105 86.6954C64.1453 86.7561 64.08 86.8168 64.0147 86.8774L80.1823 97.4607L80.3781 138.304L52.668 120.117C52.3907 119.254 50.017 109.534 49.503 106.298C49.4459 105.907 49.3317 105.112 49.3317 105.112C49.3317 105.112 49.2665 104.478 49.2339 104.161C48.8913 101.175 48.8831 92.7893 48.9484 91.8927ZM46.9906 141.971C46.9906 137.098 47.5535 132.325 48.6221 127.687C57.5624 150.62 73.5424 168.146 79.285 173.971C76.4545 174.793 73.3303 175.528 70.2713 175.925C67.9547 176.222 65.9562 177.435 64.912 179.168C63.8761 180.907 63.925 182.956 65.0425 184.655L70.6221 193.108C55.3681 178.723 46.9906 160.65 46.9906 141.971ZM114.581 227.676L101.179 217.234C101.236 217.247 101.301 217.261 101.358 217.274C101.456 217.295 101.554 217.322 101.66 217.335C104.303 217.827 106.93 218.077 109.516 218.077C110.576 218.077 111.62 218.036 112.664 217.948C112.852 221.258 113.488 224.521 114.581 227.676ZM116.523 198.899L115.968 200.146C115.593 200.995 115.25 201.851 114.94 202.714C113.602 206.381 112.828 210.122 112.632 213.843C112.509 213.837 112.395 213.837 112.265 213.843C109.198 214.099 106 213.924 102.753 213.317C97.6143 212.354 92.8423 210.358 88.7556 207.561C87.5809 206.759 86.4634 205.889 85.4193 204.959C84.7993 204.406 84.2038 203.833 83.6328 203.24C82.5561 202.121 81.5609 200.934 80.6636 199.674C80.4515 199.377 80.2394 199.087 80.0437 198.784L69.423 182.687C69.0722 182.154 69.0559 181.541 69.3822 180.995C69.7085 180.449 70.3121 180.091 71.0299 179.997C74.301 179.579 77.5802 178.817 80.5576 177.975C80.5576 177.975 80.5576 177.975 80.5657 177.975C83.0945 177.26 85.3948 176.478 87.271 175.791C87.8746 175.568 88.4374 175.359 88.9432 175.157C90.8438 174.415 96.195 171.827 96.6273 171.591C97.753 170.984 100.763 169.225 100.951 169.104C103.936 167.27 107.207 165.005 109.932 162.47C110.421 162.019 111.115 161.796 111.84 161.864C112.566 161.931 113.186 162.275 113.537 162.808L122.502 176.391L124.158 178.898C124.403 179.276 124.639 179.66 124.876 180.051L123.097 184.062L119.288 192.65C117.844 192.259 116.327 192.057 114.769 192.057C114.524 192.057 114.271 192.07 114.018 192.077C112.24 192.144 110.429 192.461 108.667 193.027C107.901 193.27 107.15 193.553 106.408 193.89C105.723 194.2 105.078 194.537 104.458 194.901C101.187 196.836 98.895 199.512 98.0711 202.465C97.4838 204.581 97.6062 206.651 98.4464 208.599C98.9113 209.671 100.331 210.237 101.628 209.846C102.925 209.462 103.602 208.289 103.137 207.217C102.615 206.004 102.541 204.75 102.925 203.395C103.512 201.305 105.347 199.317 107.909 197.948C108.194 197.793 108.48 197.645 108.782 197.51C110.046 196.944 111.376 196.566 112.705 196.364C114.402 196.108 116.066 196.162 117.559 196.532L116.523 198.899ZM159.079 249.004L150.522 255.671L144.82 251.229C149.568 251.154 154.34 250.406 159.079 249.004ZM234.762 188.848C234.191 189.461 233.611 190.068 233.024 190.675C232.983 190.715 225.12 197.84 224.932 197.989C224.859 198.049 223.929 198.764 222.42 199.93C214.246 206.239 188.967 225.721 188.967 225.721C186.096 231.006 186.096 231.006 188.967 225.721C188.967 225.721 190.011 223.739 190.468 222.714L193.486 215.906L193.821 215.151L197.263 207.385L197.328 207.23L200.738 199.539C201.725 197.308 201.341 194.814 199.702 192.859C198.062 190.904 195.37 189.731 192.499 189.717C192.409 189.717 192.32 189.711 192.238 189.711C191.145 189.697 190.019 189.663 188.869 189.589C187.507 189.508 186.3 190.358 186.202 191.497C186.194 191.585 186.202 191.672 186.21 191.76C186.275 192.778 187.238 193.627 188.502 193.701C188.567 193.708 188.633 193.708 188.706 193.708C189.987 193.782 191.251 193.823 192.466 193.836C193.739 193.843 194.881 194.342 195.607 195.205C196.333 196.067 196.496 197.126 196.056 198.11L185.778 221.285C184.937 223.179 183.934 224.993 182.8 226.739C182.36 227.413 181.903 228.08 181.422 228.727C180.965 229.347 180.483 229.961 179.986 230.561C174.635 236.998 167.212 241.98 158.565 244.771C152.105 246.854 145.595 247.541 139.192 246.854C138.71 246.8 137.519 246.645 137.43 246.598C131.654 243.773 126.964 239.729 123.448 234.585C123.326 234.403 123.187 234.228 123.065 234.039C117.338 225.316 116.05 214.895 119.337 204.959C119.712 203.819 128.383 184.089 128.383 184.089L130.912 178.386C131.336 177.435 132.242 176.734 133.408 176.438C133.449 176.424 133.49 176.411 133.539 176.404C134.273 176.242 135.023 176.262 135.717 176.451C136.182 176.573 136.614 176.768 137.006 177.038C141.092 179.862 145.807 182.275 150.09 184.183C156.95 187.237 162.717 189.003 163.1 189.117C163.19 189.144 165.254 189.771 168.549 190.56C168.884 190.641 169.218 190.661 169.545 190.627C170.507 190.533 171.347 189.974 171.641 189.158C172.024 188.066 171.266 186.927 169.944 186.603C166.828 185.855 164.838 185.255 164.822 185.248C164.781 185.235 163.623 184.884 161.763 184.23L167.701 184.257C169.251 184.264 170.287 183.839 171.07 183.206C171.853 182.572 172.653 181.507 172.408 180.442C172.449 178.312 170.417 176.599 167.84 176.586L144.38 176.485C142.944 175.663 141.533 174.793 140.211 173.876C138.009 172.353 135.031 171.807 132.258 172.427C130.276 172.865 128.571 173.863 127.396 175.204L123.407 169.157L167.97 169.346C169.52 169.353 170.556 168.928 171.339 168.295C172.122 167.661 172.653 166.812 172.677 165.531C172.718 163.401 170.687 161.689 168.109 161.675L161.151 161.648L162.472 96.4294C163.9 96.9417 165.278 97.5214 166.592 98.1753C165.613 101.094 165.009 108.172 165.009 108.172C165.009 108.759 165.034 109.345 165.066 109.925C165.074 110.114 165.409 113.039 165.466 113.403C165.507 113.619 166.233 116.78 166.396 117.299C166.42 117.387 166.796 118.499 166.967 118.964C167.04 119.167 168.982 123.353 169.137 123.629C169.259 123.852 172.799 128.948 173.02 129.204C173.166 129.379 176.96 133.262 177.775 133.95C177.792 133.963 177.8 133.976 177.816 133.983C178.167 134.28 179.774 135.534 180.076 135.749C179.423 137.158 179.676 138.547 180.883 139.565C188.747 146.629 192.703 156.019 192.532 165.396C192.515 166.333 192.442 167.263 192.344 168.187C191.895 168.834 191.447 169.495 190.99 170.155C186.495 176.694 181.438 184.048 177.555 191.167L182.922 191.531C183.086 191.248 183.265 190.931 183.461 190.607C187.05 184.385 191.447 177.981 195.403 172.225C195.623 171.908 195.827 171.604 196.047 171.288C196.211 171.045 196.374 170.816 196.537 170.58C198.454 167.735 199.979 165.497 200.599 164.567C200.656 164.479 200.722 164.392 200.779 164.304C201.244 163.596 201.692 162.902 202.116 162.228C204.409 158.601 203.666 149.858 202.957 144.62C203.577 144.695 209.058 145.032 209.629 145.032C210.314 145.032 210.314 145.032 209.629 145.032C210.314 145.032 215.682 144.695 216.302 144.62C215.6 149.865 214.866 158.615 217.158 162.241C219.051 165.228 221.376 168.611 223.839 172.198C227.436 177.429 231.385 183.179 234.762 188.848ZM254.176 142.2C254.127 143.663 253.711 149.609 253.605 150.397C253.605 150.404 253.605 150.411 253.605 150.411C253.597 150.465 252.194 157.516 251.908 158.702C251.9 158.743 251.892 158.783 251.884 158.81C251.867 158.878 251.851 158.945 251.826 159.012C251.59 159.868 251.329 160.725 251.052 161.574C250.994 161.749 250.937 161.918 250.88 162.093C250.652 162.774 250.415 163.455 250.162 164.129C250.089 164.331 250.016 164.533 249.934 164.729C249.64 165.497 249.339 166.266 249.012 167.027C248.988 167.081 248.963 167.142 248.947 167.196C248.588 168.045 248.205 168.895 247.805 169.73C247.756 169.845 247.699 169.953 247.642 170.061C247.299 170.775 246.94 171.483 246.573 172.191C246.484 172.353 246.402 172.521 246.312 172.683C245.913 173.438 245.496 174.186 245.064 174.934C245.04 174.982 245.007 175.029 244.983 175.076C244.501 175.912 243.996 176.734 243.474 177.557C243.441 177.604 243.408 177.658 243.376 177.705C242.903 178.44 242.413 179.175 241.915 179.896C241.826 180.031 241.728 180.165 241.63 180.3C241.124 181.022 240.61 181.736 240.08 182.451C240.039 182.498 240.007 182.552 239.966 182.599C239.362 183.401 238.742 184.19 238.106 184.972C234.957 179.855 231.466 174.773 228.26 170.108C225.821 166.555 223.513 163.198 221.661 160.28C220.168 157.927 220.65 149.797 221.547 143.67C221.547 143.67 221.547 143.67 221.555 143.67C222.379 143.481 223.195 143.272 224.002 143.043C224.019 143.036 224.035 143.036 224.051 143.03C224.377 142.935 224.696 142.841 225.014 142.74C225.348 142.639 225.674 142.537 226.001 142.43C229.321 141.344 232.453 139.935 235.333 138.257C235.357 138.243 235.382 138.23 235.406 138.21C236.075 137.819 236.736 137.408 237.372 136.983C237.38 136.976 237.388 136.969 237.396 136.963C240.023 135.23 242.413 133.255 244.509 131.085C244.526 131.064 244.55 131.044 244.567 131.024C245.064 130.505 245.545 129.979 246.01 129.433C246.035 129.399 246.068 129.372 246.092 129.339C246.573 128.779 247.03 128.199 247.479 127.613C247.634 127.404 247.781 127.188 247.927 126.979C249.078 125.388 250.097 123.73 250.954 121.998C250.954 121.998 250.954 121.998 250.954 121.991V121.998C251.198 122.733 251.427 123.481 251.639 124.222C251.688 124.391 251.737 124.559 251.778 124.728C251.941 125.321 252.104 125.914 252.251 126.507C252.291 126.683 253.009 130.033 253.27 131.361C253.303 131.536 253.327 131.678 253.344 131.772C253.344 131.786 253.572 133.309 253.67 134.064C253.703 134.293 253.719 134.516 253.752 134.745V134.752C253.809 135.284 254.127 140.407 254.168 141.715C254.168 141.809 254.176 141.884 254.176 141.931C254.184 142.025 254.176 142.106 254.176 142.2Z" fill="#9FBFB7"/>
<path d="M160.252 192.879C160.187 192.946 160.114 193.007 160.041 193.074C160.106 193.014 160.171 192.953 160.236 192.892C160.244 192.886 160.244 192.879 160.252 192.879Z" fill="#9FBFB7"/>
<path d="M184.522 207.621C183.241 207.19 181.797 207.702 181.275 208.754C179.823 211.713 177.906 212.691 176.356 212.967C175.337 213.149 174.464 213.028 173.991 212.96C173.697 212.92 173.428 212.859 173.159 212.798C172.465 212.664 171.813 212.495 171.209 212.286C168.762 211.41 167.098 209.88 166.25 207.723C166.192 207.581 166.111 207.446 166.021 207.318C165.573 206.684 164.749 206.293 163.876 206.293C163.623 206.293 163.362 206.327 163.109 206.395C161.943 206.705 161.257 207.655 161.412 208.626C161.429 208.747 161.461 208.869 161.51 208.99C163.093 213.028 166.78 215.778 171.96 216.809C172.343 216.883 172.735 216.958 173.134 217.012C173.485 217.059 173.828 217.099 174.17 217.126C175.223 217.2 176.242 217.16 177.213 217.005C180.982 216.405 184.04 214.086 185.9 210.298C186.406 209.253 185.794 208.053 184.522 207.621Z" fill="#9FBFB7"/>
<path d="M134.894 205.485C135.22 205.64 135.538 205.788 135.864 205.923C139.592 207.48 143.434 207.743 147.015 206.732C148.051 206.442 149.063 206.044 150.042 205.539C151.118 204.979 151.494 203.853 150.963 202.923C150.923 202.849 150.882 202.775 150.833 202.701C150.107 201.737 148.565 201.44 147.399 202.047C146.387 202.573 145.343 202.916 144.283 203.092C142.684 203.355 141.036 203.227 139.347 202.708C138.703 202.505 138.05 202.249 137.398 201.932C136.337 201.42 133.115 199.876 135.098 194.834C135.522 193.756 134.812 192.589 133.499 192.239C133.246 192.171 132.985 192.138 132.724 192.138C131.672 192.138 130.693 192.69 130.358 193.56C129.314 196.209 129.233 198.636 130.048 200.692C130.848 202.674 132.471 204.319 134.894 205.485Z" fill="#9FBFB7"/>
<path d="M93.837 184.008C92.4829 183.819 91.194 184.588 90.9738 185.707C90.6149 187.507 89.4239 188.774 87.3357 189.549C87.2133 189.596 87.0746 189.63 86.9441 189.677C86.7728 189.738 86.6015 189.798 86.4139 189.846C85.59 190.075 83.4121 190.668 81.2504 187.655C81.0791 187.412 80.8589 187.217 80.606 187.062C80.606 187.062 80.606 187.062 80.5978 187.062C79.8147 186.576 78.7298 186.502 77.8325 186.94C76.6497 187.52 76.2582 188.781 76.9597 189.765C78.0038 191.214 79.2437 192.32 80.6304 193.061C80.6304 193.061 80.6305 193.061 80.6386 193.061C82.0009 193.789 83.5018 194.167 85.0761 194.167C85.6961 194.167 86.3242 194.106 86.9605 193.985C87.091 193.964 87.2215 193.937 87.352 193.91C87.5641 193.863 87.7762 193.816 87.9883 193.755C92.3768 192.549 95.1829 189.927 95.8844 186.381C96.1128 185.255 95.1911 184.19 93.837 184.008Z" fill="#9FBFB7"/>
<path d="M102.958 183.192C104.149 183.617 105.357 183.859 106.564 183.94C106.841 183.96 107.127 183.974 107.404 183.974C109.949 183.974 112.462 183.205 114.737 181.695C115.308 181.318 115.798 180.9 116.222 180.462C117.136 179.511 117.707 178.433 117.919 177.267C118.212 175.615 117.796 173.775 116.646 171.867C116.026 170.849 114.534 170.438 113.302 170.944C112.07 171.456 111.572 172.69 112.184 173.707C114.085 176.849 112.29 178.035 111.621 178.48C109.443 179.929 107.257 180.226 104.949 179.404C104.598 179.275 104.239 179.228 103.88 179.242C102.942 179.269 102.069 179.72 101.67 180.475C101.115 181.527 101.694 182.74 102.958 183.192Z" fill="#9FBFB7"/>
</svg>
