<svg width="298" height="268" viewBox="0 0 298 268" fill="none" xmlns="http://www.w3.org/2000/svg">
<path d="M247.012 10.7127C246.6 9.18008 245.413 8.00238 243.91 7.61519C242.406 7.228 240.808 7.69585 239.739 8.84935C227.125 22.3606 214.115 29.7898 201.168 35.0976C185.199 25.9018 166.546 20.6102 146.628 20.6102C141.175 20.6102 135.826 21.0055 130.587 21.7718C114.174 5.74377 91.9923 0.387651 90.7182 0.0891928C89.2305 -0.257664 87.6953 0.427985 86.9435 1.78315C86.9356 1.79928 86.9276 1.81541 86.9118 1.83154C86.3895 2.78339 81.7284 11.4145 78.6025 23.5625C76.8457 30.3868 75.5716 38.3241 75.7853 46.6164C70.2379 51.3756 65.2127 56.6753 60.7969 62.4428C60.1876 61.4587 59.602 60.4423 59.0322 59.3937C58.2171 57.8691 56.6106 56.9899 54.8776 57.1351C53.1761 57.2884 51.72 58.4499 51.174 60.1035C46.2043 75.0829 43.0705 90.2156 41.741 104.792C40.6014 110.793 40 116.98 40 123.296C40 133.024 41.4403 142.623 44.2021 151.819C46.9956 164.419 51.6013 175.623 57.9876 184.69C64.0336 193.281 71.6148 199.927 80.4781 204.517L146.549 268L216.394 200.887C238.394 182.52 251.57 156.433 253.074 128.644C260.077 100.791 260.892 62.5477 247.012 10.7127ZM210.965 194.329L146.565 256.199L99.3362 210.825C103.855 211.632 108.595 212.051 113.525 212.051C115.899 212.051 117.83 210.083 117.83 207.663C117.83 205.517 116.319 203.735 114.332 203.356C114.071 203.307 113.802 203.275 113.525 203.275C102.763 203.275 93.2506 201.202 85.0442 197.096C77.1306 193.135 70.4278 187.295 64.9991 179.576C59.4437 171.687 55.3682 161.967 52.8042 151.012C49.5596 137.162 48.7287 121.328 50.3668 104.679C51.4193 93.9423 53.5085 82.867 56.6344 71.7596C58.043 73.6794 59.5149 75.4782 61.0581 77.1883C71.7573 89.054 85.4241 96.2089 98.7585 103.186C108.532 108.301 118.63 113.584 127.366 120.666C141.302 131.959 149.018 144.438 152.025 155.618C153.283 160.305 153.718 164.758 153.426 168.799C153.236 171.429 152.753 173.881 151.985 176.107C151.265 178.22 150.3 180.084 149.121 181.697C147.071 183.552 144.705 185.408 142.157 187.223C140.123 188.053 137.883 188.489 135.462 188.489C114.76 188.489 83.9521 157.53 72.8335 113.1C72.2479 110.753 69.9213 109.325 67.5947 109.93C65.2919 110.527 63.8991 112.923 64.4847 115.27C74.5666 155.562 102.217 190.183 127.667 196.314C130.294 196.943 132.898 197.273 135.454 197.273C143.913 197.273 151.123 193.595 155.91 187.11C157.644 184.762 159.068 182.052 160.113 179.003C164.259 166.887 162.138 149.601 150.49 132.71C146.026 126.24 140.162 119.827 132.716 113.794C123.314 106.171 112.821 100.678 102.676 95.37C88.9139 88.1667 75.7695 81.278 65.9883 69.6381C69.2407 65.1612 72.8889 60.9666 76.8853 57.0948C77.0831 58.1192 77.3047 59.1356 77.5579 60.16C77.8903 61.4829 78.9112 62.4428 80.1378 62.7251C80.6522 62.8461 81.2061 62.8461 81.7521 62.709C83.6039 62.2412 84.7197 60.3213 84.2528 58.4338C83.691 56.1752 83.2953 53.8924 83.0421 51.6257C82.6464 48.0684 82.591 44.5192 82.7888 41.0748C83.6514 26.1277 89.2226 12.9148 91.7312 7.66358C97.2074 9.3172 110.455 14.0038 121.85 23.4012C124.47 25.563 126.994 27.9749 129.297 30.653C132.233 34.0651 134.821 37.9208 136.815 42.2444C137.44 43.5915 138.002 44.987 138.501 46.4309C139.134 48.262 141.112 49.2219 142.908 48.5766C142.995 48.5443 143.075 48.5121 143.154 48.4798C144.792 47.7457 145.623 45.834 145.013 44.0836C143.138 38.6549 140.495 33.8553 137.385 29.6043C140.416 29.3301 143.486 29.1849 146.596 29.1849C162.328 29.1849 177.214 32.7583 190.406 39.0905C187.367 40.1391 184.328 41.1232 181.313 42.1073C157.129 49.9963 134.291 57.4497 119.294 91.0384C118.313 93.2486 119.263 95.846 121.431 96.8543C123.591 97.8626 126.147 96.8865 127.137 94.6763C136.641 73.3809 149.516 63.8867 164.489 57.4577C170.646 54.812 177.158 52.6905 183.94 50.4722C189.314 48.7218 194.885 46.8988 200.567 44.7208C203.677 43.527 206.819 42.2283 209.976 40.7683C220.106 36.0978 230.449 29.814 240.539 20.3118C247.859 49.9479 250.122 74.6796 249.156 95.241C248.61 106.978 247.012 117.359 244.709 126.515C240.325 143.938 233.385 156.941 226.254 166.46C206.605 192.692 178.836 202.597 158.609 203.218C157.921 203.243 157.232 203.251 156.559 203.251C154.185 203.251 152.254 205.219 152.254 207.639C152.254 210.067 154.185 212.027 156.559 212.027C173.843 212.027 196.737 205.751 216.497 189.296C214.756 191.046 212.896 192.724 210.965 194.329Z" fill="#306586"/>
<path d="M169.514 147.891C170.234 147.891 170.962 147.705 171.627 147.326C197.188 132.605 217.264 104.461 227.22 69.622C227.694 67.9684 228.138 66.3067 228.565 64.6289C229.158 62.2816 227.774 59.8858 225.471 59.2808C223.492 58.7565 221.49 59.7245 220.588 61.4911C220.438 61.7814 220.311 62.096 220.224 62.4348C211.519 96.7656 191.767 125.643 167.385 139.687C165.319 140.881 164.584 143.559 165.755 145.672C166.554 147.084 168.01 147.891 169.514 147.891Z" fill="#306586"/>
<path d="M120.671 65.8223L115.148 53.037L110.297 41.8085C109.529 40.0258 107.487 39.2192 105.738 40.0097C103.989 40.7921 103.198 42.8733 103.974 44.6559L108.935 56.1345L114.356 68.6697C115.124 70.4524 117.166 71.2591 118.915 70.4686C120.648 69.6781 121.439 67.5969 120.671 65.8223Z" fill="#306586"/>
</svg>
