<?xml version="1.0" encoding="utf-8"?>
<!-- Generator: Adobe Illustrator 24.3.0, SVG Export Plug-In . SVG Version: 6.00 Build 0)  -->
<svg version="1.1" id="Capa_1" xmlns="http://www.w3.org/2000/svg" xmlns:xlink="http://www.w3.org/1999/xlink" x="0px" y="0px"
	 viewBox="0 0 91.35 92" style="enable-background:new 0 0 91.35 92;" xml:space="preserve">
<style type="text/css">
	.st0{fill:#6AB391;}
	.st1{fill:#FFFFFF;}
</style>
<g>
	<path class="st0" d="M1.13,74.42V17.59c0-8.87,7.26-16.13,16.13-16.13l56.83,0c8.87,0,16.13,7.26,16.13,16.13v56.83
		c0,8.87-7.26,16.13-16.13,16.13H17.26C8.39,90.55,1.13,83.29,1.13,74.42z"/>
	<path class="st1" d="M69.53,39.52c0-5.91-4.79-10.7-10.7-10.7H31.48c-5.91,0-10.7,4.79-10.7,10.7v12.73c0,5.91,4.79,10.7,10.7,10.7
		h27.35c5.91,0,10.7-4.79,10.7-10.7V39.52z M53.44,46.84l-12.27,6.07c-0.48,0.26-2.11-0.09-2.11-0.63V39.82
		c0-0.55,1.65-0.9,2.13-0.63l11.74,6.39C53.42,45.86,53.94,46.57,53.44,46.84z"/>
</g>
</svg>
