<?xml version="1.0" encoding="utf-8"?>
<!-- Generator: Adobe Illustrator 24.3.0, SVG Export Plug-In . SVG Version: 6.00 Build 0)  -->
<svg version="1.1" id="Capa_1" xmlns="http://www.w3.org/2000/svg" xmlns:xlink="http://www.w3.org/1999/xlink" x="0px" y="0px"
	 viewBox="0 0 91.35 92" style="enable-background:new 0 0 91.35 92;" xml:space="preserve">
<style type="text/css">
	.st0{fill:#6AB391;}
	.st1{fill:#FFFFFF;}
	.st2{fill-rule:evenodd;clip-rule:evenodd;fill:#FFFFFF;}
</style>
<g>
	<path class="st0" d="M1.24,76.01l0-60.01c0-7.94,6.49-14.43,14.43-14.43h60.01c7.94,0,14.43,6.49,14.43,14.43v60.01
		c0,7.94-6.49,14.43-14.43,14.43l-60.01,0C7.74,90.43,1.24,83.94,1.24,76.01z"/>
	<path class="st1" d="M21.67,71.15l3.7-13.82c-2.1-3.78-3.2-8.03-3.2-12.33c0-14.07,11.45-25.52,25.52-25.52
		c14.07,0,25.52,11.45,25.52,25.52c0,14.07-11.45,25.52-25.52,25.52c-4.22,0-8.4-1.07-12.13-3.09L21.67,71.15z M36.25,62.24
		l0.87,0.52c3.21,1.91,6.87,2.93,10.57,2.93c11.41,0,20.7-9.28,20.7-20.7s-9.29-20.7-20.7-20.7c-11.41,0-20.7,9.28-20.7,20.7
		c0,3.77,1.05,7.48,3.03,10.73l0.54,0.88l-2.07,7.72L36.25,62.24z"/>
	<path class="st2" d="M57.19,48.54c-1.05-0.63-2.42-1.33-3.65-0.82c-0.95,0.39-1.56,1.87-2.17,2.63c-0.32,0.39-0.69,0.45-1.18,0.26
		c-3.56-1.42-6.3-3.8-8.26-7.08c-0.33-0.51-0.27-0.91,0.13-1.38c0.59-0.7,1.34-1.49,1.5-2.44c0.16-0.94-0.28-2.04-0.67-2.88
		c-0.5-1.07-1.05-2.6-2.13-3.21c-0.99-0.56-2.29-0.25-3.17,0.47c-1.52,1.24-2.25,3.17-2.23,5.1c0.01,0.55,0.07,1.09,0.2,1.62
		c0.31,1.27,0.89,2.45,1.55,3.57c0.5,0.85,1.04,1.67,1.62,2.46c1.91,2.59,4.28,4.84,7.02,6.52c1.37,0.84,2.85,1.58,4.38,2.08
		c1.72,0.57,3.25,1.16,5.1,0.81c1.94-0.37,3.85-1.57,4.62-3.44c0.23-0.55,0.34-1.17,0.21-1.75C59.8,49.85,58.17,49.13,57.19,48.54z"
		/>
</g>
</svg>
