<?xml version="1.0" encoding="utf-8"?>
<!-- Generator: Adobe Illustrator 24.3.0, SVG Export Plug-In . SVG Version: 6.00 Build 0)  -->
<svg version="1.1" id="Capa_1" xmlns="http://www.w3.org/2000/svg" xmlns:xlink="http://www.w3.org/1999/xlink" x="0px" y="0px"
	 viewBox="0 0 91.35 92" style="enable-background:new 0 0 91.35 92;" xml:space="preserve">
<style type="text/css">
	.st0{fill:#6AB391;}
	.st1{fill:#FFFFFF;}
</style>
<g>
	<path class="st0" d="M1.24,74.63V17.37c0-8.69,7.11-15.81,15.81-15.81H74.3c8.69,0,15.81,7.11,15.81,15.81v57.25
		c0,8.69-7.11,15.81-15.81,15.81H17.05C8.36,90.43,1.24,83.32,1.24,74.63z"/>
	<path class="st1" d="M70.23,30.78c-1.54,0.7-3.24,1.12-4.9,1.4c0.79-0.13,1.95-1.56,2.41-2.14c0.71-0.88,1.3-1.88,1.63-2.97
		c0.04-0.08,0.07-0.19-0.01-0.25c-0.11-0.04-0.18-0.02-0.26,0.02c-1.85,0.99-3.77,1.71-5.81,2.22c-0.17,0.04-0.29,0-0.4-0.11
		c-0.17-0.19-0.33-0.37-0.51-0.52c-0.86-0.73-1.78-1.3-2.81-1.72c-1.36-0.56-2.85-0.79-4.32-0.7c-1.43,0.09-2.83,0.5-4.1,1.16
		c-1.27,0.66-2.4,1.59-3.3,2.7c-0.93,1.15-1.62,2.51-1.97,3.95c-0.34,1.39-0.31,2.77-0.1,4.17c0.03,0.23,0.01,0.26-0.2,0.23
		c-7.98-1.19-14.6-4.04-19.97-10.16c-0.23-0.27-0.36-0.27-0.55,0.02c-2.35,3.52-1.21,9.18,1.73,11.96c0.39,0.37,0.79,0.74,1.23,1.08
		c-0.16,0.03-2.11-0.18-3.85-1.08c-0.23-0.15-0.35-0.06-0.37,0.2c-0.02,0.38,0.01,0.73,0.06,1.14c0.45,3.57,2.92,6.87,6.31,8.16
		c0.4,0.17,0.85,0.32,1.28,0.39c-0.77,0.17-1.57,0.29-3.78,0.12c-0.28-0.05-0.38,0.08-0.28,0.35c1.66,4.53,5.25,5.88,7.94,6.65
		c0.36,0.06,0.72,0.06,1.08,0.15c-0.02,0.03-0.04,0.03-0.06,0.06c-0.89,1.36-3.98,2.37-5.42,2.87c-2.62,0.92-5.47,1.33-8.23,1.05
		c-0.44-0.07-0.54-0.06-0.66,0c-0.12,0.08-0.02,0.18,0.13,0.3c0.56,0.37,1.13,0.7,1.72,1.02c1.76,0.93,3.59,1.67,5.5,2.2
		c9.89,2.73,21.04,0.72,28.46-6.66c5.83-5.8,7.88-13.79,7.88-21.79c0-0.31,0.37-0.49,0.59-0.65c1.52-1.14,2.74-2.5,3.87-4.03
		c0.25-0.34,0.26-0.65,0.26-0.77c0-0.02,0-0.04,0-0.04C70.43,30.65,70.42,30.69,70.23,30.78z"/>
</g>
</svg>
