<?xml version="1.0" encoding="utf-8"?>
<!-- Generator: Adobe Illustrator 24.3.0, SVG Export Plug-In . SVG Version: 6.00 Build 0)  -->
<svg version="1.1" id="Capa_1" xmlns="http://www.w3.org/2000/svg" xmlns:xlink="http://www.w3.org/1999/xlink" x="0px" y="0px"
	 viewBox="0 0 463.42 119.96" style="enable-background:new 0 0 463.42 119.96;" xml:space="preserve">
<style type="text/css">
	.st0{fill:#FFFFFF;}
</style>
<g>
	<g>
		<path class="st0" d="M406.43,44.08c-4.44,0.16-7.35,2.51-7.23,5.51c0.1,2.58,2.64,4.35,6.54,4.21c4.3-0.15,7.4-2.47,7.27-5.47
			C412.91,45.75,410.37,43.94,406.43,44.08z"/>
		<path class="st0" d="M434.5,38.75c3.45-0.12,5.79-2.11,5.69-4.65c-0.09-2.16-2.17-3.73-5.08-3.62c-3.32,0.12-5.7,2.19-5.6,4.69
			C429.59,37.36,431.45,38.86,434.5,38.75z"/>
		<path class="st0" d="M406.7,39.76c3.45-0.12,5.79-2.11,5.69-4.65c-0.09-2.16-2.17-3.73-5.08-3.62c-3.32,0.12-5.7,2.19-5.6,4.69
			C401.8,38.37,403.65,39.87,406.7,39.76z"/>
		<path class="st0" d="M434.22,43.08c-4.44,0.16-7.35,2.51-7.23,5.51c0.1,2.58,2.64,4.35,6.54,4.21c4.3-0.15,7.4-2.47,7.27-5.47
			C440.71,44.75,438.17,42.94,434.22,43.08z"/>
		<path class="st0" d="M420.07,2.12c-22.54,0-40.81,17.22-40.81,38.47c0,9.7,3.81,18.55,10.1,25.31l-0.01,0.01l0.19,0.18
			c1.09,1.16,2.24,2.25,3.47,3.27l27.04,25.49l26.73-25.2c8.64-7.05,14.11-17.46,14.11-29.08C460.88,19.34,442.61,2.12,420.07,2.12z
			 M405.4,58.63c-7.04,0.25-12.39-3.36-12.59-8.39c-0.13-3.21,1.65-5.69,4.46-7.44c1.09-0.67,1.12-1.27,0.41-1.96
			c-1.21-1.18-2.23-2.92-2.3-4.61c-0.23-5.62,4.43-9.13,12.27-9.41c6.18-0.22,10.85,2.95,11.03,7.6c0.11,2.79-1.07,4.52-2.81,6.07
			c-0.87,0.75-0.89,1.34-0.06,1.91c2.03,1.41,3.46,3.51,3.56,5.79C419.64,54.39,414.28,58.31,405.4,58.63z M433.2,57.63
			c-7.04,0.25-12.39-3.36-12.59-8.39c-0.13-3.21,1.65-5.69,4.46-7.44c1.09-0.67,1.12-1.27,0.41-1.96c-1.21-1.18-2.23-2.92-2.3-4.61
			c-0.23-5.62,4.43-9.13,12.27-9.41c6.18-0.22,10.85,2.95,11.03,7.6c0.11,2.79-1.07,4.52-2.81,6.07c-0.87,0.75-0.89,1.34-0.06,1.91
			c2.03,1.41,3.46,3.51,3.56,5.79C447.43,53.39,442.07,57.31,433.2,57.63z"/>
	</g>
	<g>
		<g>
			<path class="st0" d="M2.55,113.61l2.19-69.82c0.11-2.92,1.71-4.65,4.6-4.87l25.63-1.89c16.2-1.19,26.13,7.78,26.88,17.97
				c0.61,8.26-2.77,13.68-8.41,17.55c-1.64,1.2-1.74,2.72-0.06,3.56c5.17,2.85,8.88,7.76,9.37,14.41
				c1.04,14.05-10.2,23.94-28.87,25.31l-27.03,1.99C3.95,118.03,2.44,116.53,2.55,113.61z M19.77,104.47l13.41-0.99
				c9.65-0.71,14.85-6.27,14.34-13.14c-0.47-6.33-5.41-8.98-14.52-8.31l-12.66,0.93c-1.18,0.09-1.98,0.9-2,2.09l-0.43,17.61
				C17.89,103.85,18.59,104.55,19.77,104.47z M20.78,71.29L33,70.38c9.97-0.84,14.22-6.01,13.75-12.44
				c-0.4-5.47-5.41-8.98-12.81-8.44L21.4,50.43c-1.18,0.09-1.98,0.9-2,2.09l-0.47,16.97C18.9,70.67,19.6,71.37,20.78,71.29z"/>
		</g>
		<g>
			<path class="st0" d="M60.95,109.95L88.49,37.4c1.18-3,3.12-4.54,6.23-4.77l8.69-0.64c3-0.22,4.81,0.94,5.89,3.77l25.88,68.72
				c0.82,2.31-0.25,3.9-2.72,4.08l-9.44,0.7c-1.93,0.14-3.28-0.62-3.84-2.41l-3.86-11.47c-0.27-0.73-0.95-1.22-1.81-1.16L82.6,96.49
				c-0.97,0.07-1.58,0.55-1.94,1.44l-4.29,11.96c-0.72,1.89-2.05,2.95-3.98,3.1l-8.9,0.66C61.12,113.82,60.04,112.28,60.95,109.95z
				 M88.06,82.83l20.49-1.51c1.18-0.09,1.77-0.88,1.36-2.04l-9.89-28.82c-0.54-1.47-1.72-1.38-2.15,0.16L86.85,80.97
				C86.4,82.19,86.88,82.91,88.06,82.83z"/>
		</g>
		<g>
			<path class="st0" d="M139.91,33.18c0.03-2.48,1.43-3.99,4.01-4.18l19.52-1.44c17.16-1.27,30.28,8.44,31.29,22.17
				c1.04,14.16-8.63,23.39-20.73,27.41l-0.42,0.14c-1.68,0.56-2.33,2.01-1.06,3.21l18.58,19.44c1.99,2.12,0.96,4.24-1.94,4.46
				l-11.26,0.83c-1.72,0.13-2.94-0.32-4.11-1.64l-17.02-20.2c-1.41-1.62-3.08-0.85-3.13,1.42l-0.55,18.8
				c-0.06,2.16-1.36,3.55-3.5,3.71l-8.69,0.64c-2.15,0.16-3.31-1.05-3.26-3.21L139.91,33.18z M156.05,67.89l6.11-0.45
				c11.05-0.81,17.33-7.75,16.74-15.79c-0.51-6.97-6.16-11.84-15.92-11.12l-6.11,0.45c-1.18,0.09-1.98,0.9-2,2.09l-0.68,23.02
				C154.17,67.28,154.87,67.98,156.05,67.89z"/>
		</g>
		<path class="st0" d="M287.19,93.51l-5.68-8.34c-0.27-0.39-0.69-0.62-1.16-0.63c-0.48-0.01-0.91,0.2-1.21,0.58
			c-4.88,6.36-14.62,6.73-18.58,6.59l-0.05,0c-0.62-0.05-14.86-1.46-25.53-17.68c0.19-0.61,0.78-1.14,1.66-1.42l0.42-0.14
			c12.1-4.02,21.78-13.25,20.73-27.41c-1.01-13.73-14.13-23.44-31.29-22.17l-19.52,1.44c-2.57,0.19-3.97,1.7-4.01,4.18l-2.27,71.55
			c-0.06,2.16,1.11,3.37,3.26,3.21l8.69-0.64c2.15-0.16,3.44-1.55,3.5-3.71l0.55-18.8c0.03-1.3,0.59-2.11,1.33-2.25
			c0.99,1.2,6.25,7.41,13.31,13.62c7.24,6.37,17.92,14.03,27.69,14.4c0.55,0.02,1.09,0.03,1.62,0.03c15.1,0,23.97-8.04,26.39-10.57
			C287.52,94.83,287.58,94.08,287.19,93.51z M217.27,61.41l0.68-23.02c0.02-1.19,0.82-2,2-2.09l6.11-0.45
			c9.76-0.72,15.4,4.15,15.92,11.12c0.59,8.04-5.69,14.98-16.74,15.79l-6.11,0.45C217.95,63.3,217.25,62.59,217.27,61.41z"/>
		<g>
			<path class="st0" d="M280.71,22.32l-1.59,54.45c-0.06,2.16-1.36,3.55-3.5,3.71l-8.69,0.64c-2.15,0.16-3.31-1.05-3.26-3.21
				l1.59-54.45c0.06-2.16,1.36-3.55,3.5-3.71l8.69-0.64C279.59,18.95,280.76,20.16,280.71,22.32z"/>
		</g>
		<g>
			<path class="st0" d="M329.49,14.24c21.67-1.6,39.2,12.42,40.75,33.44c1.89,25.63-16.05,45.61-43.29,47.62
				c-21.34,1.57-39.1-12.54-40.67-33.88C284.34,35.15,302.9,16.2,329.49,14.24z M327.77,81.55c16.3-1.2,27.82-14.67,26.56-31.72
				C353.3,35.89,343.37,26.91,328.67,28c-16.3,1.2-27.74,14.34-26.49,31.28C303.23,73.44,313.18,82.63,327.77,81.55z"/>
		</g>
	</g>
</g>
</svg>
