<?xml version="1.0" encoding="utf-8"?>
<!-- Generator: Adobe Illustrator 24.3.0, SVG Export Plug-In . SVG Version: 6.00 Build 0)  -->
<svg version="1.1" id="Capa_1" xmlns="http://www.w3.org/2000/svg" xmlns:xlink="http://www.w3.org/1999/xlink" x="0px" y="0px"
	 viewBox="0 0 91.35 92" style="enable-background:new 0 0 91.35 92;" xml:space="preserve">
<style type="text/css">
	.st0{fill:#6AB391;}
	.st1{fill:#FFFFFF;}
</style>
<g>
	<g>
		<path class="st0" d="M1.13,76.93V15.08c0-7.49,6.13-13.62,13.62-13.62H76.6c7.49,0,13.62,6.13,13.62,13.62l0,52.17
			c0,12.82-10.49,23.3-23.3,23.3H52.64l-7.48-1.82l-6.44,1.82l-23.97,0C7.26,90.55,1.13,84.42,1.13,76.93z"/>
		<g>
			<path class="st1" d="M63.02,60.34l1.97-12.88H52.64v-8.36c0-3.52,1.73-6.96,7.26-6.96h5.62V21.19c0,0-5.1-0.87-9.97-0.87
				c-10.17,0-16.83,6.17-16.83,17.33v9.81H27.41v12.88h11.31v30.21h13.92V60.34H63.02z"/>
		</g>
	</g>
</g>
</svg>
