<?xml version="1.0" encoding="utf-8"?>
<!-- Generator: Adobe Illustrator 24.3.0, SVG Export Plug-In . SVG Version: 6.00 Build 0)  -->
<svg version="1.1" id="Capa_1" xmlns="http://www.w3.org/2000/svg" xmlns:xlink="http://www.w3.org/1999/xlink" x="0px" y="0px"
	 viewBox="0 0 91.35 92" style="enable-background:new 0 0 91.35 92;" xml:space="preserve">
<style type="text/css">
	.st0{fill:#6AB391;}
	.st1{fill:#FFFFFF;}
</style>
<g>
	<path class="st0" d="M1.13,74.44V17.57c0-8.86,7.25-16.11,16.11-16.11l56.87,0c8.86,0,16.11,7.25,16.11,16.11v56.87
		c0,8.86-7.25,16.11-16.11,16.11l-56.87,0C8.38,90.55,1.13,83.3,1.13,74.44z"/>
	<g>
		<path class="st1" d="M59.5,29.21c-1.69,0-3.06,1.37-3.06,3.06c0,1.69,1.37,3.06,3.06,3.06c1.69,0,3.06-1.37,3.06-3.06
			C62.57,30.58,61.19,29.21,59.5,29.21z"/>
		<path class="st1" d="M45.89,33.14c-7.09,0-12.86,5.77-12.86,12.86c0,7.09,5.77,12.86,12.86,12.86c7.09,0,12.86-5.77,12.86-12.86
			C58.75,38.91,52.98,33.14,45.89,33.14z M45.89,54.24c-4.54,0-8.24-3.7-8.24-8.24s3.7-8.24,8.24-8.24c4.54,0,8.24,3.7,8.24,8.24
			S50.43,54.24,45.89,54.24z"/>
		<path class="st1" d="M56.1,72.12H35.25c-8.65,0-15.69-7.04-15.69-15.69V35.58c0-8.65,7.04-15.69,15.69-15.69H56.1
			c8.65,0,15.69,7.04,15.69,15.69v20.85C71.79,65.08,64.75,72.12,56.1,72.12z M35.25,24.8c-5.94,0-10.77,4.83-10.77,10.77v20.85
			c0,5.94,4.83,10.77,10.77,10.77H56.1c5.94,0,10.77-4.83,10.77-10.77V35.58c0-5.94-4.83-10.77-10.77-10.77H35.25z"/>
	</g>
</g>
</svg>
