<?xml version="1.0" encoding="utf-8"?>
<!-- Generator: Adobe Illustrator 24.3.0, SVG Export Plug-In . SVG Version: 6.00 Build 0)  -->
<svg version="1.1" id="Capa_1" xmlns="http://www.w3.org/2000/svg" xmlns:xlink="http://www.w3.org/1999/xlink" x="0px" y="0px"
	 viewBox="0 0 196.29 51.77" style="enable-background:new 0 0 196.29 51.77;" xml:space="preserve">
<style type="text/css">
	.st0{fill:#9FBFB7;}
	.st1{fill:#306586;}
</style>
<g>
	<g>
		<path class="st0" d="M170.94,19.26c-1.85,0.07-3.06,1.04-3.01,2.29c0.04,1.07,1.1,1.81,2.73,1.75c1.79-0.06,3.08-1.03,3.03-2.28
			C173.64,19.96,172.58,19.2,170.94,19.26z"/>
		<path class="st0" d="M182.64,17.04c1.44-0.05,2.41-0.88,2.37-1.94c-0.04-0.9-0.9-1.55-2.12-1.51c-1.38,0.05-2.38,0.91-2.33,1.95
			C180.59,16.46,181.37,17.09,182.64,17.04z"/>
		<path class="st0" d="M171.05,17.46c1.44-0.05,2.41-0.88,2.37-1.94c-0.04-0.9-0.9-1.55-2.12-1.51c-1.38,0.05-2.37,0.91-2.33,1.95
			C169.01,16.88,169.78,17.51,171.05,17.46z"/>
		<path class="st0" d="M182.52,18.85c-1.85,0.07-3.06,1.04-3.01,2.29c0.04,1.07,1.1,1.81,2.73,1.75c1.79-0.06,3.08-1.03,3.03-2.28
			C185.22,19.54,184.16,18.79,182.52,18.85z"/>
		<path class="st0" d="M176.62,1.78c-9.39,0-17,7.18-17,16.03c0,4.04,1.59,7.73,4.21,10.55l-0.01,0.01l0.08,0.08
			c0.45,0.48,0.94,0.94,1.45,1.36l11.27,10.62l11.14-10.5c3.6-2.94,5.88-7.27,5.88-12.11C193.63,8.96,186.01,1.78,176.62,1.78z
			 M170.51,25.32c-2.93,0.11-5.16-1.4-5.25-3.5c-0.05-1.34,0.69-2.37,1.86-3.1c0.46-0.28,0.46-0.53,0.17-0.82
			c-0.51-0.49-0.93-1.22-0.96-1.92c-0.1-2.34,1.85-3.8,5.11-3.92c2.58-0.09,4.52,1.23,4.6,3.17c0.05,1.16-0.45,1.88-1.17,2.53
			c-0.36,0.31-0.37,0.56-0.02,0.79c0.85,0.59,1.44,1.46,1.48,2.41C176.44,23.56,174.21,25.19,170.51,25.32z M182.09,24.91
			c-2.93,0.11-5.16-1.4-5.25-3.5c-0.05-1.34,0.69-2.37,1.86-3.1c0.46-0.28,0.46-0.53,0.17-0.82c-0.51-0.49-0.93-1.22-0.96-1.92
			c-0.1-2.34,1.85-3.8,5.11-3.92c2.58-0.09,4.52,1.23,4.6,3.17c0.05,1.16-0.45,1.88-1.17,2.53c-0.36,0.31-0.37,0.56-0.02,0.79
			c0.85,0.59,1.44,1.46,1.48,2.41C188.02,23.14,185.79,24.77,182.09,24.91z"/>
	</g>
	<g>
		<g>
			<path class="st1" d="M2.67,48.23l0.91-29.09c0.05-1.22,0.71-1.94,1.92-2.03l10.68-0.79c6.75-0.5,10.89,3.24,11.2,7.49
				c0.25,3.44-1.15,5.7-3.5,7.31c-0.68,0.5-0.73,1.13-0.03,1.48c2.15,1.19,3.7,3.23,3.9,6c0.43,5.85-4.25,9.97-12.03,10.55
				L4.46,49.99C3.25,50.07,2.62,49.45,2.67,48.23z M9.84,44.42l5.59-0.41c4.02-0.3,6.19-2.61,5.98-5.47
				c-0.19-2.64-2.25-3.74-6.05-3.46l-5.27,0.39c-0.49,0.04-0.83,0.38-0.83,0.87l-0.18,7.34C9.06,44.16,9.35,44.46,9.84,44.42z
				 M10.26,30.6l5.09-0.38c4.15-0.35,5.93-2.5,5.73-5.18c-0.17-2.28-2.25-3.74-5.34-3.52l-5.23,0.39c-0.49,0.04-0.83,0.38-0.83,0.87
				l-0.2,7.07C9.48,30.34,9.77,30.63,10.26,30.6z"/>
		</g>
		<g>
			<path class="st1" d="M27,46.71l11.47-30.23c0.49-1.25,1.3-1.89,2.59-1.99l3.62-0.27c1.25-0.09,2.01,0.39,2.45,1.57l10.78,28.63
				c0.34,0.96-0.1,1.63-1.13,1.7l-3.93,0.29c-0.8,0.06-1.37-0.26-1.6-1.01l-1.61-4.78c-0.11-0.31-0.4-0.51-0.75-0.48L36.02,41.1
				c-0.4,0.03-0.66,0.23-0.81,0.6l-1.79,4.98c-0.3,0.79-0.85,1.23-1.66,1.29l-3.71,0.27C27.07,48.32,26.62,47.68,27,46.71z
				 M38.3,35.41l8.53-0.63c0.49-0.04,0.74-0.37,0.57-0.85l-4.12-12.01c-0.22-0.61-0.72-0.58-0.89,0.07l-4.59,12.65
				C37.6,35.14,37.8,35.44,38.3,35.41z"/>
		</g>
		<g>
			<path class="st1" d="M59.9,14.72c0.01-1.03,0.6-1.66,1.67-1.74l8.13-0.6c7.15-0.53,12.61,3.52,13.04,9.24
				c0.43,5.9-3.59,9.74-8.64,11.42l-0.18,0.06c-0.7,0.23-0.97,0.84-0.44,1.34l7.74,8.1c0.83,0.88,0.4,1.77-0.81,1.86l-4.69,0.35
				c-0.71,0.05-1.22-0.13-1.71-0.68l-7.09-8.42c-0.59-0.68-1.28-0.35-1.3,0.59l-0.23,7.83c-0.02,0.9-0.56,1.48-1.46,1.55l-3.62,0.27
				c-0.89,0.07-1.38-0.44-1.36-1.34L59.9,14.72z M66.62,29.18L69.17,29c4.6-0.34,7.22-3.23,6.97-6.58c-0.21-2.9-2.57-4.93-6.63-4.63
				l-2.55,0.19c-0.49,0.04-0.83,0.38-0.83,0.87l-0.28,9.59C65.84,28.93,66.13,29.22,66.62,29.18z"/>
		</g>
		<path class="st1" d="M121.26,39.86l-2.37-3.47c-0.11-0.16-0.29-0.26-0.48-0.26c-0.2-0.01-0.38,0.08-0.5,0.24
			c-2.03,2.65-6.09,2.8-7.74,2.75l-0.02,0c-0.26-0.02-6.19-0.61-10.64-7.37c0.08-0.25,0.33-0.47,0.69-0.59l0.18-0.06
			c5.04-1.67,9.07-5.52,8.64-11.42c-0.42-5.72-5.89-9.77-13.04-9.24l-8.13,0.6c-1.07,0.08-1.66,0.71-1.67,1.74l-0.95,29.81
			c-0.02,0.9,0.46,1.4,1.36,1.34l3.62-0.27c0.89-0.07,1.44-0.64,1.46-1.55l0.23-7.83c0.01-0.54,0.25-0.88,0.56-0.94
			c0.41,0.5,2.6,3.09,5.55,5.67c3.02,2.65,7.47,5.85,11.54,6c0.23,0.01,0.45,0.01,0.68,0.01c6.29,0,9.99-3.35,10.99-4.4
			C121.4,40.41,121.42,40.1,121.26,39.86z M92.13,26.48l0.28-9.59c0.01-0.49,0.34-0.83,0.83-0.87l2.55-0.19
			c4.07-0.3,6.42,1.73,6.63,4.63c0.25,3.35-2.37,6.24-6.97,6.58l-2.55,0.19C92.41,27.27,92.12,26.98,92.13,26.48z"/>
		<g>
			<path class="st1" d="M118.56,10.2l-0.66,22.69c-0.02,0.9-0.56,1.48-1.46,1.55l-3.62,0.27c-0.89,0.07-1.38-0.44-1.36-1.34
				l0.66-22.69c0.02-0.9,0.56-1.48,1.46-1.55l3.62-0.27C118.1,8.79,118.58,9.3,118.56,10.2z"/>
		</g>
		<g>
			<path class="st1" d="M138.89,6.83c9.03-0.67,16.33,5.18,16.98,13.93c0.79,10.68-6.69,19-18.04,19.84
				c-8.89,0.66-16.29-5.22-16.95-14.12C120.07,15.54,127.8,7.65,138.89,6.83z M138.17,34.87c6.79-0.5,11.59-6.11,11.07-13.22
				c-0.43-5.81-4.57-9.55-10.69-9.1c-6.79,0.5-11.56,5.97-11.04,13.03C127.94,31.49,132.09,35.32,138.17,34.87z"/>
		</g>
	</g>
</g>
</svg>
