<svg id="wave" style="transform:rotate(0deg); transition: 0.3s" viewBox="0 0 1440 490" version="1.1" xmlns="http://www.w3.org/2000/svg"><defs><linearGradient id="sw-gradient-0" x1="0" x2="0" y1="1" y2="0"><stop stop-color="rgba(48, 101, 134, 1)" offset="0%"></stop><stop stop-color="rgba(48, 101, 134, 1)" offset="100%"></stop></linearGradient></defs><path style="transform:translate(0, 0px); opacity:1" fill="url(#sw-gradient-0)" d="M0,392L1440,196L2880,441L4320,49L5760,392L7200,294L8640,343L10080,147L11520,49L12960,343L14400,147L15840,294L17280,0L18720,294L20160,441L21600,0L23040,196L24480,441L25920,147L27360,196L28800,245L30240,98L31680,49L33120,392L34560,49L34560,490L33120,490L31680,490L30240,490L28800,490L27360,490L25920,490L24480,490L23040,490L21600,490L20160,490L18720,490L17280,490L15840,490L14400,490L12960,490L11520,490L10080,490L8640,490L7200,490L5760,490L4320,490L2880,490L1440,490L0,490Z"></path></svg>